<mxfile host="app.diagrams.net" agent="Mozilla/5.0 (Windows NT 10.0; Win64; x64) AppleWebKit/537.36 (KHTML, like Gecko) Chrome/135.0.0.0 Safari/537.36 Edg/135.0.0.0" version="26.2.14">
  <diagram name="PÃ¡gina-1" id="hzmleBiBobsAvq6zwUDG">
    <mxGraphModel dx="22176" dy="9689" grid="1" gridSize="10" guides="1" tooltips="1" connect="1" arrows="1" fold="1" page="1" pageScale="1" pageWidth="827" pageHeight="1169" math="0" shadow="0">
      <root>
        <mxCell id="0" />
        <mxCell id="1" parent="0" />
        <UserObject label="" plantUmlData="{&#xa;  &quot;data&quot;: &quot;@startuml\nskinparam backgroundColor #2B2B2B\nskinparam class {\n  BackgroundColor #3C3F41\n  FontColor #FFFFFF\n  BorderColor #6699CC\n  ArrowColor #6699CC\n}\n\npackage \&quot;Model Layer\&quot; {\n&#39; Interfaces\ninterface IRewardable {\n  + PointRate(): Double\n  + DiscountRate(): Double\n  + SubscriptionPrice(): Double\n}\n\ninterface ISellable {\n  + getId(): int\n  + getName(): String\n  + getPrice(): double\n  + getCategory(): String\n}\n\n&#39; Enums\nenum Type {\n  FIRST\n  REGULAR\n  VIP\n}\n\nenum Status {\n  PENDING\n  CONFIRMED\n  CANCELLED\n}\n\n&#39; Customer and subclasses\nabstract class Customer {\n  - id: String\n  - name: String\n  - type: Type\n  - email: String\n  - phone: String\n  - loyaltyPoints: double\n  + &lt;&lt;create&gt;&gt; Customer(String id, String name, Type type, String email, String phone, double loyaltyPoints)\n  + &lt;&lt;create&gt;&gt; Customer(String name, Type type)\n  + &lt;&lt;create&gt;&gt; Customer(String name, Type type, String email, String phone)\n  + getId(): String\n  + getName(): String\n  + getType(): Type\n  + getEmail(): String\n  + getPhone(): String\n  + getLoyaltyPoints(): double\n  + setId(): void\n  + setName(String)\n  + setEmail(String)\n  + setPhone(String)\n  + setType(Type)\n  + setLoyaltyPoints(double)\n  + addLoyaltyPoints(double)\n  + removeLoyaltyPoints(double)\n}\n\nclass CTFirstTime {\n  + &lt;&lt;create&gt;&gt; CTFirstTime(String name)\n  + &lt;&lt;create&gt;&gt; CTFirstTime(String name, String email, String phone)\n  + &lt;&lt;create&gt;&gt; CTFirstTime(String id, String name, String email, String phone, double loyaltyPoints)\n  + PointRate(): Double\n  + DiscountRate(): Double\n  + SubscriptionPrice(): Double\n}\n\nclass CTRegular {\n  + &lt;&lt;create&gt;&gt; CTRegular(String name)\n  + &lt;&lt;create&gt;&gt; CTRegular(String name, String email, String phone)\n  + &lt;&lt;create&gt;&gt; CTRegular(String id, String name, String email, String phone, double loyaltyPoints)\n  + PointRate(): Double\n  + DiscountRate(): Double\n  + SubscriptionPrice(): Double\n}\n\nclass CTVIP {\n  + &lt;&lt;create&gt;&gt; CTVIP(String name)\n  + &lt;&lt;create&gt;&gt; CTVIP(String name, String email, String phone)\n  + &lt;&lt;create&gt;&gt; CTVIP(String id, String name, String email, String phone, double loyaltyPoints)\n  + PointRate(): Double\n  + DiscountRate(): Double\n  + SubscriptionPrice(): Double\n}\n\nCustomer &lt;|-- CTFirstTime\nCustomer &lt;|-- CTRegular\nCustomer &lt;|-- CTVIP\n\nIRewardable &lt;|.. Customer\nIRewardable &lt;|.. CTFirstTime\nIRewardable &lt;|.. CTRegular\nIRewardable &lt;|.. CTVIP\n\n&#39; Menu Items\nclass Beverage {\n  - id: int\n  - name: String\n  - size: String\n  - price: double\n  + &lt;&lt;create&gt;&gt; Beverage()\n  + &lt;&lt;create&gt;&gt; Beverage(int id, String name, String size, double price)\n  + getId(): int\n  + getName(): String\n  + setName(String)\n  + getSize(): String\n  + setSize(String)\n  + getPrice(): double\n  + setPrice(double)\n  + getCategory(): String\n}\n\nclass Dessert {\n  - id: int\n  - name: String\n  - size: String\n  - price: double\n  + &lt;&lt;create&gt;&gt; Dessert()\n  + &lt;&lt;create&gt;&gt; Dessert(int id, String name, String size, double price)\n  + getId(): int\n  + getName(): String\n  + setName(String)\n  + getSize(): String\n  + setSize(String)\n  + getPrice(): double\n  + setPrice(double)\n  + getCategory(): String\n}\n\nclass Dish {\n  - id: int\n  - name: String\n  - price: double\n  + &lt;&lt;create&gt;&gt; Dish()\n  + &lt;&lt;create&gt;&gt; Dish(int id, String name, String string, double price)\n  + getId(): int\n  + getName(): String\n  + setName(String)\n  + getPrice(): double\n  + setPrice(double)\n  + getCategory(): String\n}\n\nISellable &lt;|.. Beverage\nISellable &lt;|.. Dessert\nISellable &lt;|.. Dish\n\n&#39; Order\nclass Order {\n  - id: int\n  - tableId: int\n  - customer: Customer\n  - orderItems: ArrayList&lt;ISellable&gt;\n  - orderStatus: String\n  - orderDate: LocalDateTime\n  + &lt;&lt;create&gt;&gt; Order(int id, int tableId, Customer customer, ArrayList&lt;ISellable&gt; orderItem, String orderStatus, LocalDateTime orderDate)\n  + getId(): int\n  + getTableId(): int\n  + getCustomer(): Customer\n  + getOrderItems(): ArrayList&lt;ISellable&gt;\n  + getOrderStatus(): String\n  + getOrderDate(): LocalDateTime\n  + setId(int)\n  + setTableId(int)\n  + setCustomer(Customer)\n  + setOrderItems(ArrayList&lt;ISellable&gt;)\n  + setOrderStatus(String)\n  + setOrderDate(LocalDateTime)\n  + addItem(ISellable, int)\n  + removeItem(ISellable)\n  + calculateSubtotal(): double\n  + calculateTotal(): double\n  + getDiscountAmount(): double\n  + updateOrderStatus(String)\n}\n\nOrder \&quot;1\&quot; --&gt; \&quot;1\&quot; Customer\nOrder \&quot;1\&quot; --&gt; \&quot;*\&quot; ISellable\n\n&#39; Payment\nclass Payment {\n  - paymentId: int\n  - amount: double\n  - status: Status\n  - order: Order\n  - paymentMethod: String\n  - transactionId: String\n  - paymentDate: LocalDateTime\n  + &lt;&lt;create&gt;&gt; Payment(int paymentId, Order order, double amount, String paymentMethod, String transactionId, Status status, LocalDateTime paymentDate)\n  + &lt;&lt;create&gt;&gt; Payment(int paymentId, Order order, double amount, String paymentMethod)\n  + getPaymentId(): int\n  + getAmount(): double\n  + getPaymentMethod(): String\n  + getTransactionId(): String\n  + getStatus(): Status\n  + getPaymentDate(): LocalDateTime\n  + getPointsGained(): int\n  + getCustomer(): Customer\n  + setAmount(double)\n  + setStatus(Status)\n  + setPaymentId(int)\n  + setOrder(Order)\n  + setPaymentMethod(String)\n  + setTransactionId(String)\n  + setPaymentTime(LocalDateTime)\n}\n\nPayment \&quot;1\&quot; --&gt; \&quot;1\&quot; Order\n\n&#39; Reservation\nclass Reservation {\n  - reservationId: int\n  - customerID: String\n  - tableID: int\n  - reservationDate: LocalDateTime\n  - numberOfGuests: int\n  - status: String\n  + &lt;&lt;create&gt;&gt; Reservation(int reservationId, int tableID, String customerID, LocalDateTime reservationDate, int numberOfGuests)\n  + &lt;&lt;create&gt;&gt; Reservation(int reservationId, String customerID, int tableID, LocalDateTime reservationDate, int numberOfGuests, String status)\n  + getReservationId(): int\n  + getCustomerID(): String\n  + getTableID(): int\n  + getReservationDate(): LocalDateTime\n  + getNumberOfGuests(): int\n  + getStatus(): String\n  + setReservationId(int)\n  + setCustomerID(String)\n  + setTableID(int)\n  + setReservationDate(LocalDateTime)\n  + setNumberOfGuests(int)\n  + setStatus(String)\n}\n\nReservation \&quot;1\&quot; --&gt; \&quot;1\&quot; Table\n\n&#39; Table\nclass Table {\n  - id: int\n  - available: boolean\n  + &lt;&lt;create&gt;&gt; Table(boolean available)\n  + getId(): int\n  + isAvailable(): boolean\n  + setId(int)\n  + Reserve(): void\n  + UnReserve(): void\n}\n}\npackage \&quot;DAO Layer\&quot; {\n\n  interface DAOCustomer {\n    + findCustomerById(String id): Customer\n    + findAllCustomers(): List&lt;Customer&gt;\n    + saveCustomer(Customer): boolean\n    + deleteCustomer(String id): boolean\n  }\n\n  interface DAOOrders {\n    + getAllOrders(): List&lt;Order&gt;\n    + SaveOrder(Order): boolean\n    + RemoveOrder(Order): void\n    + getOrderById(int): Order\n  }\n\n  interface DAOPayments {\n    + createPayment(Payment): Payment\n    + readPayment(int): Payment\n    + deletePayment(int): void\n  }\n\n  interface DAOReservations {\n    + SaveReservation(Reservation): void\n    + RemoveReservation(Reservation): void\n    + getAllReservations(): List&lt;Reservation&gt;\n  }\n\n  interface DAOTable {\n    + addTable(Table): void\n    + updateTableStatus(Table): void\n  }\n\n  class DAOCRUDManager {\n    + getOrderById(int): Order\n    + getAllOrders(): List&lt;Order&gt;\n    + SaveOrder(Order): boolean\n    + RemoveOrder(Order): void\n\n    + SaveReservation(Reservation): void\n    + RemoveReservation(Reservation): void\n    + getAllReservations(): List&lt;Reservation&gt;\n\n    + createPayment(Payment): Payment\n    + readPayment(int): Payment\n    + deletePayment(int): void\n    + getAllPayments(): List&lt;Payment&gt;\n\n    + addTable(Table): void\n    + updateTableStatus(Table): void\n\n    + findCustomerById(String): Customer\n    + findAllCustomers(): List&lt;Customer&gt;\n    + saveCustomer(Customer): boolean\n    + deleteCustomer(String): boolean\n\n    + createSellableItem(int, String, double, String): ISellable\n    + updateCustomerLoyaltyPoints(Payment): void\n    + createCustomerInstance(String, String, IRewardable.Type, String, String, double): Customer\n  }\n\n  DAOCRUDManager ..|&gt; DAOCustomer\n  DAOCRUDManager ..|&gt; DAOOrders\n  DAOCRUDManager ..|&gt; DAOPayments\n  DAOCRUDManager ..|&gt; DAOReservations\n  DAOCRUDManager ..|&gt; DAOTable\n}\n\npackage \&quot;Controller Layer\&quot; {\n  class CustomerServlet {\n    + doGet(HttpServletRequest, HttpServletResponse): void\n    + doPost(HttpServletRequest, HttpServletResponse): void\n    + createCustomer(HttpServletRequest, HttpServletResponse): void\n    + updateCustomer(HttpServletRequest, HttpServletResponse): void\n    + deleteCustomer(HttpServletRequest, HttpServletResponse): void\n  }\n\n  class OrderServlet {\n    + doGet(HttpServletRequest, HttpServletResponse): void\n    + doPost(HttpServletRequest, HttpServletResponse): void\n    + createOrder(HttpServletRequest, HttpServletResponse): void\n    + updateOrder(HttpServletRequest, HttpServletResponse): void\n    + deleteOrder(HttpServletRequest, HttpServletResponse): void\n    + createItemFromId(int): ISellable\n  }\n\n  class PaymentServlet {\n    + doGet(HttpServletRequest, HttpServletResponse): void\n    + doPost(HttpServletRequest, HttpServletResponse): void\n    + createPayment(HttpServletRequest, HttpServletResponse): void\n    + updatePayment(HttpServletRequest, HttpServletResponse): void\n    + deletePayment(HttpServletRequest, HttpServletResponse): void\n  }\n\n  class ReservationServlet {\n    + doGet(HttpServletRequest, HttpServletResponse): void\n    + doPost(HttpServletRequest, HttpServletResponse): void\n    + createReservation(HttpServletRequest, HttpServletResponse): void\n    + updateReservationStatus(HttpServletRequest, HttpServletResponse): void\n  }\n\n  class HelloServlet {\n    + init(): void\n    + doGet(HttpServletRequest, HttpServletResponse): void\n    + destroy(): void\n  }\n\n  CustomerServlet --&gt; DAOCustomer\n  OrderServlet --&gt; DAOOrders\n  OrderServlet --&gt; DAOCustomer\n  PaymentServlet --&gt; DAOPayments\n  ReservationServlet --&gt; DAOReservations\n  ReservationServlet --&gt; DAOCustomer\n}\n\npackage \&quot;Database Layer\&quot; {\nclass DbUtil {\n  + getConnection(): Connection\n  + closeQuietly(Connection): void\n  + closeQuietly(Statement): void\n  + closeQuietly(ResultSet): void\n}\n\nDAOCRUDManager --&gt; DbUtil\n}\n\n@enduml&quot;,&#xa;  &quot;format&quot;: &quot;svg&quot;&#xa;}" id="uMaPI6aUym3E-WiTtEiA-5">
          <mxCell style="shape=image;noLabel=1;verticalAlign=top;aspect=fixed;imageAspect=0;image=data:image/svg+xml,PHN2ZyB4bWxucz0iaHR0cDovL3d3dy53My5vcmcvMjAwMC9zdmciIHhtbG5zOnhsaW5rPSJodHRwOi8vd3d3LnczLm9yZy8xOTk5L3hsaW5rIiBjb250ZW50U3R5bGVUeXBlPSJ0ZXh0L2NzcyIgZGF0YS1kaWFncmFtLXR5cGU9IkNMQVNTIiBoZWlnaHQ9IjE3MzlweCIgcHJlc2VydmVBc3BlY3RSYXRpbz0ibm9uZSIgc3R5bGU9IndpZHRoOjc4NDBweDtoZWlnaHQ6MTczOXB4O2JhY2tncm91bmQ6IzJCMkIyQjsiIHZlcnNpb249IjEuMSIgdmlld0JveD0iMCAwIDc4NDAgMTczOSIgd2lkdGg9Ijc4NDBweCIgem9vbUFuZFBhbj0ibWFnbmlmeSI+PGRlZnMvPjxnPjxyZWN0IGZpbGw9IiMyQjJCMkIiIGhlaWdodD0iMTczOSIgc3R5bGU9InN0cm9rZTpub25lO3N0cm9rZS13aWR0aDoxOyIgd2lkdGg9Ijc4NDAiIHg9IjAiIHk9IjAiLz48IS0tY2x1c3RlciBNb2RlbCBMYXllci0tPjxnIGNsYXNzPSJjbHVzdGVyIiBkYXRhLWVudGl0eT0iTW9kZWwgTGF5ZXIiIGRhdGEtc291cmNlLWxpbmU9IjkiIGRhdGEtdWlkPSJlbnQwMDAyIiBpZD0iY2x1c3Rlcl9Nb2RlbCBMYXllciI+PHBhdGggZD0iTTguNSwxMy41IEw4Ni41LDEzLjUgQTMuNzUsMy43NSAwIDAgMSA4OSwxNiBMOTYsMzQuNDg0NCBMMzYzMC41LDM0LjQ4NDQgQTIuNSwyLjUgMCAwIDEgMzYzMywzNi45ODQ0IEwzNjMzLDE3MjkuNSBBMi41LDIuNSAwIDAgMSAzNjMwLjUsMTczMiBMOC41LDE3MzIgQTIuNSwyLjUgMCAwIDEgNiwxNzI5LjUgTDYsMTYgQTIuNSwyLjUgMCAwIDEgOC41LDEzLjUiIGZpbGw9Im5vbmUiIHN0eWxlPSJzdHJva2U6IzAwMDAwMDtzdHJva2Utd2lkdGg6MS41OyIvPjxsaW5lIHN0eWxlPSJzdHJva2U6IzAwMDAwMDtzdHJva2Utd2lkdGg6MS41OyIgeDE9IjYiIHgyPSI5NiIgeTE9IjM0LjQ4NDQiIHkyPSIzNC40ODQ0Ii8+PHRleHQgZmlsbD0iIzAwMDAwMCIgZm9udC1mYW1pbHk9InNhbnMtc2VyaWYiIGZvbnQtc2l6ZT0iMTQiIGZvbnQtd2VpZ2h0PSJib2xkIiBsZW5ndGhBZGp1c3Q9InNwYWNpbmciIHRleHRMZW5ndGg9Ijc3IiB4PSIxMCIgeT0iMjguNzM0NCI+TW9kZWwgTGF5ZXI8L3RleHQ+PC9nPjwhLS1jbHVzdGVyIERBTyBMYXllci0tPjxnIGNsYXNzPSJjbHVzdGVyIiBkYXRhLWVudGl0eT0iREFPIExheWVyIiBkYXRhLXNvdXJjZS1saW5lPSIyNTMiIGRhdGEtdWlkPSJlbnQwMDMyIiBpZD0iY2x1c3Rlcl9EQU8gTGF5ZXIiPjxwYXRoIGQ9Ik02MDkyLjUsNiBMNjE1Ni41LDYgQTMuNzUsMy43NSAwIDAgMSA2MTU5LDguNSBMNjE2NiwyNi45ODQ0IEw3NTM4LjUsMjYuOTg0NCBBMi41LDIuNSAwIDAgMSA3NTQxLDI5LjQ4NDQgTDc1NDEsODAxIEEyLjUsMi41IDAgMCAxIDc1MzguNSw4MDMuNSBMNjA5Mi41LDgwMy41IEEyLjUsMi41IDAgMCAxIDYwOTAsODAxIEw2MDkwLDguNSBBMi41LDIuNSAwIDAgMSA2MDkyLjUsNiIgZmlsbD0ibm9uZSIgc3R5bGU9InN0cm9rZTojMDAwMDAwO3N0cm9rZS13aWR0aDoxLjU7Ii8+PGxpbmUgc3R5bGU9InN0cm9rZTojMDAwMDAwO3N0cm9rZS13aWR0aDoxLjU7IiB4MT0iNjA5MCIgeDI9IjYxNjYiIHkxPSIyNi45ODQ0IiB5Mj0iMjYuOTg0NCIvPjx0ZXh0IGZpbGw9IiMwMDAwMDAiIGZvbnQtZmFtaWx5PSJzYW5zLXNlcmlmIiBmb250LXNpemU9IjE0IiBmb250LXdlaWdodD0iYm9sZCIgbGVuZ3RoQWRqdXN0PSJzcGFjaW5nIiB0ZXh0TGVuZ3RoPSI2MyIgeD0iNjA5NCIgeT0iMjEuMjM0NCI+REFPIExheWVyPC90ZXh0PjwvZz48IS0tY2x1c3RlciBDb250cm9sbGVyIExheWVyLS0+PGcgY2xhc3M9ImNsdXN0ZXIiIGRhdGEtZW50aXR5PSJDb250cm9sbGVyIExheWVyIiBkYXRhLXNvdXJjZS1saW5lPSIzMjEiIGRhdGEtdWlkPSJlbnQwMDQ0IiBpZD0iY2x1c3Rlcl9Db250cm9sbGVyIExheWVyIj48cGF0aCBkPSJNMzY1OS41LDE0OC41IEwzNzcyLjUsMTQ4LjUgQTMuNzUsMy43NSAwIDAgMSAzNzc1LDE1MSBMMzc4MiwxNjkuNDg0NCBMNjA2My41LDE2OS40ODQ0IEEyLjUsMi41IDAgMCAxIDYwNjYsMTcxLjk4NDQgTDYwNjYsMzMzIEEyLjUsMi41IDAgMCAxIDYwNjMuNSwzMzUuNSBMMzY1OS41LDMzNS41IEEyLjUsMi41IDAgMCAxIDM2NTcsMzMzIEwzNjU3LDE1MSBBMi41LDIuNSAwIDAgMSAzNjU5LjUsMTQ4LjUiIGZpbGw9Im5vbmUiIHN0eWxlPSJzdHJva2U6IzAwMDAwMDtzdHJva2Utd2lkdGg6MS41OyIvPjxsaW5lIHN0eWxlPSJzdHJva2U6IzAwMDAwMDtzdHJva2Utd2lkdGg6MS41OyIgeDE9IjM2NTciIHgyPSIzNzgyIiB5MT0iMTY5LjQ4NDQiIHkyPSIxNjkuNDg0NCIvPjx0ZXh0IGZpbGw9IiMwMDAwMDAiIGZvbnQtZmFtaWx5PSJzYW5zLXNlcmlmIiBmb250LXNpemU9IjE0IiBmb250LXdlaWdodD0iYm9sZCIgbGVuZ3RoQWRqdXN0PSJzcGFjaW5nIiB0ZXh0TGVuZ3RoPSIxMTIiIHg9IjM2NjEiIHk9IjE2My43MzQ0Ij5Db250cm9sbGVyIExheWVyPC90ZXh0PjwvZz48IS0tY2x1c3RlciBEYXRhYmFzZSBMYXllci0tPjxnIGNsYXNzPSJjbHVzdGVyIiBkYXRhLWVudGl0eT0iRGF0YWJhc2UgTGF5ZXIiIGRhdGEtc291cmNlLWxpbmU9IjM2OCIgZGF0YS11aWQ9ImVudDAwNTYiIGlkPSJjbHVzdGVyX0RhdGFiYXNlIExheWVyIj48cGF0aCBkPSJNNzU2Ny41LDY0Ni41IEw3NjY2LjUsNjQ2LjUgQTMuNzUsMy43NSAwIDAgMSA3NjY5LDY0OSBMNzY3Niw2NjcuNDg0NCBMNzgzMC41LDY2Ny40ODQ0IEEyLjUsMi41IDAgMCAxIDc4MzMsNjY5Ljk4NDQgTDc4MzMsODAxIEEyLjUsMi41IDAgMCAxIDc4MzAuNSw4MDMuNSBMNzU2Ny41LDgwMy41IEEyLjUsMi41IDAgMCAxIDc1NjUsODAxIEw3NTY1LDY0OSBBMi41LDIuNSAwIDAgMSA3NTY3LjUsNjQ2LjUiIGZpbGw9Im5vbmUiIHN0eWxlPSJzdHJva2U6IzAwMDAwMDtzdHJva2Utd2lkdGg6MS41OyIvPjxsaW5lIHN0eWxlPSJzdHJva2U6IzAwMDAwMDtzdHJva2Utd2lkdGg6MS41OyIgeDE9Ijc1NjUiIHgyPSI3Njc2IiB5MT0iNjY3LjQ4NDQiIHkyPSI2NjcuNDg0NCIvPjx0ZXh0IGZpbGw9IiMwMDAwMDAiIGZvbnQtZmFtaWx5PSJzYW5zLXNlcmlmIiBmb250LXNpemU9IjE0IiBmb250LXdlaWdodD0iYm9sZCIgbGVuZ3RoQWRqdXN0PSJzcGFjaW5nIiB0ZXh0TGVuZ3RoPSI5OCIgeD0iNzU2OSIgeT0iNjYxLjczNDQiPkRhdGFiYXNlIExheWVyPC90ZXh0PjwvZz48IS0tY2xhc3MgSVJld2FyZGFibGUtLT48ZyBjbGFzcz0iZW50aXR5IiBkYXRhLWVudGl0eT0iSVJld2FyZGFibGUiIGRhdGEtc291cmNlLWxpbmU9IjExIiBkYXRhLXVpZD0iZW50MDAwMyIgaWQ9ImVudGl0eV9JUmV3YXJkYWJsZSI+PHJlY3QgZmlsbD0iIzNDM0Y0MSIgaGVpZ2h0PSI5Mi45NTMxIiByeD0iMi41IiByeT0iMi41IiBzdHlsZT0ic3Ryb2tlOiM2Njk5Q0M7c3Ryb2tlLXdpZHRoOjAuNTsiIHdpZHRoPSIyMTUiIHg9IjI1MzEuNSIgeT0iNjg3Ii8+PGVsbGlwc2UgY3g9IjI1OTYuMjUiIGN5PSI3MDMiIGZpbGw9IiNCNEE3RTUiIHJ4PSIxMSIgcnk9IjExIiBzdHlsZT0ic3Ryb2tlOiMxODE4MTg7c3Ryb2tlLXdpZHRoOjE7Ii8+PHBhdGggZD0iTTI1OTkuMzc1LDcwOSBMMjU5OS4zNzUsNzA3LjI1IEwyNTk3LjI1LDcwNy4yNSBRMjU5Ny4yNSw3MDcuMjUgMjU5Ny4yNSw2OTkuNDM3NSBMMjU5OS4zNzUsNjk5LjQzNzUgTDI1OTkuMzc1LDY5Ny42ODc1IEwyNTkzLjM3NSw2OTcuNjg3NSBMMjU5My4zNzUsNjk5LjQzNzUgTDI1OTUuNSw2OTkuNDM3NSBRMjU5NS41LDY5OS40Mzc1IDI1OTUuNSw3MDcuMjUgTDI1OTMuMzc1LDcwNy4yNSBMMjU5My4zNzUsNzA5IEwyNTk5LjM3NSw3MDkgWiAiIGZpbGw9IiMwMDAwMDAiLz48dGV4dCBmaWxsPSIjRkZGRkZGIiBmb250LWZhbWlseT0ic2Fucy1zZXJpZiIgZm9udC1zaXplPSIxNCIgZm9udC1zdHlsZT0iaXRhbGljIiBsZW5ndGhBZGp1c3Q9InNwYWNpbmciIHRleHRMZW5ndGg9Ijc3IiB4PSIyNjE2Ljc1IiB5PSI3MDguNzQyMiI+SVJld2FyZGFibGU8L3RleHQ+PGxpbmUgc3R5bGU9InN0cm9rZTojNjY5OUNDO3N0cm9rZS13aWR0aDowLjU7IiB4MT0iMjUzMi41IiB4Mj0iMjc0NS41IiB5MT0iNzE5IiB5Mj0iNzE5Ii8+PGxpbmUgc3R5bGU9InN0cm9rZTojNjY5OUNDO3N0cm9rZS13aWR0aDowLjU7IiB4MT0iMjUzMi41IiB4Mj0iMjc0NS41IiB5MT0iNzI3IiB5Mj0iNzI3Ii8+PGVsbGlwc2UgY3g9IjI1NDIuNSIgY3k9IjczOS45OTIyIiBmaWxsPSIjODRCRTg0IiByeD0iMyIgcnk9IjMiIHN0eWxlPSJzdHJva2U6IzAzODA0ODtzdHJva2Utd2lkdGg6MTsiLz48dGV4dCBmaWxsPSIjMDAwMDAwIiBmb250LWZhbWlseT0ic2Fucy1zZXJpZiIgZm9udC1zaXplPSIxNCIgbGVuZ3RoQWRqdXN0PSJzcGFjaW5nIiB0ZXh0TGVuZ3RoPSIxMzMiIHg9IjI1NTEuNSIgeT0iNzQ0LjIzNDQiPlBvaW50UmF0ZSgpOiBEb3VibGU8L3RleHQ+PGVsbGlwc2UgY3g9IjI1NDIuNSIgY3k9Ijc1NC45NzY2IiBmaWxsPSIjODRCRTg0IiByeD0iMyIgcnk9IjMiIHN0eWxlPSJzdHJva2U6IzAzODA0ODtzdHJva2Utd2lkdGg6MTsiLz48dGV4dCBmaWxsPSIjMDAwMDAwIiBmb250LWZhbWlseT0ic2Fucy1zZXJpZiIgZm9udC1zaXplPSIxNCIgbGVuZ3RoQWRqdXN0PSJzcGFjaW5nIiB0ZXh0TGVuZ3RoPSIxNTQiIHg9IjI1NTEuNSIgeT0iNzU5LjIxODgiPkRpc2NvdW50UmF0ZSgpOiBEb3VibGU8L3RleHQ+PGVsbGlwc2UgY3g9IjI1NDIuNSIgY3k9Ijc2OS45NjA5IiBmaWxsPSIjODRCRTg0IiByeD0iMyIgcnk9IjMiIHN0eWxlPSJzdHJva2U6IzAzODA0ODtzdHJva2Utd2lkdGg6MTsiLz48dGV4dCBmaWxsPSIjMDAwMDAwIiBmb250LWZhbWlseT0ic2Fucy1zZXJpZiIgZm9udC1zaXplPSIxNCIgbGVuZ3RoQWRqdXN0PSJzcGFjaW5nIiB0ZXh0TGVuZ3RoPSIxODkiIHg9IjI1NTEuNSIgeT0iNzc0LjIwMzEiPlN1YnNjcmlwdGlvblByaWNlKCk6IERvdWJsZTwvdGV4dD48L2c+PCEtLWNsYXNzIElTZWxsYWJsZS0tPjxnIGNsYXNzPSJlbnRpdHkiIGRhdGEtZW50aXR5PSJJU2VsbGFibGUiIGRhdGEtc291cmNlLWxpbmU9IjE3IiBkYXRhLXVpZD0iZW50MDAwNCIgaWQ9ImVudGl0eV9JU2VsbGFibGUiPjxyZWN0IGZpbGw9IiMzQzNGNDEiIGhlaWdodD0iMTA3LjkzNzUiIHJ4PSIyLjUiIHJ5PSIyLjUiIHN0eWxlPSJzdHJva2U6IzY2OTlDQztzdHJva2Utd2lkdGg6MC41OyIgd2lkdGg9IjE3MyIgeD0iOTQyLjUiIHk9IjExNDcuNSIvPjxlbGxpcHNlIGN4PSI5OTMuMjUiIGN5PSIxMTYzLjUiIGZpbGw9IiNCNEE3RTUiIHJ4PSIxMSIgcnk9IjExIiBzdHlsZT0ic3Ryb2tlOiMxODE4MTg7c3Ryb2tlLXdpZHRoOjE7Ii8+PHBhdGggZD0iTTk5Ni4zNzUsMTE2OS41IEw5OTYuMzc1LDExNjcuNzUgTDk5NC4yNSwxMTY3Ljc1IFE5OTQuMjUsMTE2Ny43NSA5OTQuMjUsMTE1OS45Mzc1IEw5OTYuMzc1LDExNTkuOTM3NSBMOTk2LjM3NSwxMTU4LjE4NzUgTDk5MC4zNzUsMTE1OC4xODc1IEw5OTAuMzc1LDExNTkuOTM3NSBMOTkyLjUsMTE1OS45Mzc1IFE5OTIuNSwxMTU5LjkzNzUgOTkyLjUsMTE2Ny43NSBMOTkwLjM3NSwxMTY3Ljc1IEw5OTAuMzc1LDExNjkuNSBMOTk2LjM3NSwxMTY5LjUgWiAiIGZpbGw9IiMwMDAwMDAiLz48dGV4dCBmaWxsPSIjRkZGRkZGIiBmb250LWZhbWlseT0ic2Fucy1zZXJpZiIgZm9udC1zaXplPSIxNCIgZm9udC1zdHlsZT0iaXRhbGljIiBsZW5ndGhBZGp1c3Q9InNwYWNpbmciIHRleHRMZW5ndGg9IjYzIiB4PSIxMDEzLjc1IiB5PSIxMTY5LjI0MjIiPklTZWxsYWJsZTwvdGV4dD48bGluZSBzdHlsZT0ic3Ryb2tlOiM2Njk5Q0M7c3Ryb2tlLXdpZHRoOjAuNTsiIHgxPSI5NDMuNSIgeDI9IjExMTQuNSIgeTE9IjExNzkuNSIgeTI9IjExNzkuNSIvPjxsaW5lIHN0eWxlPSJzdHJva2U6IzY2OTlDQztzdHJva2Utd2lkdGg6MC41OyIgeDE9Ijk0My41IiB4Mj0iMTExNC41IiB5MT0iMTE4Ny41IiB5Mj0iMTE4Ny41Ii8+PGVsbGlwc2UgY3g9Ijk1My41IiBjeT0iMTIwMC40OTIyIiBmaWxsPSIjODRCRTg0IiByeD0iMyIgcnk9IjMiIHN0eWxlPSJzdHJva2U6IzAzODA0ODtzdHJva2Utd2lkdGg6MTsiLz48dGV4dCBmaWxsPSIjMDAwMDAwIiBmb250LWZhbWlseT0ic2Fucy1zZXJpZiIgZm9udC1zaXplPSIxNCIgbGVuZ3RoQWRqdXN0PSJzcGFjaW5nIiB0ZXh0TGVuZ3RoPSI4NCIgeD0iOTYyLjUiIHk9IjEyMDQuNzM0NCI+Z2V0SWQoKTogaW50PC90ZXh0PjxlbGxpcHNlIGN4PSI5NTMuNSIgY3k9IjEyMTUuNDc2NiIgZmlsbD0iIzg0QkU4NCIgcng9IjMiIHJ5PSIzIiBzdHlsZT0ic3Ryb2tlOiMwMzgwNDg7c3Ryb2tlLXdpZHRoOjE7Ii8+PHRleHQgZmlsbD0iIzAwMDAwMCIgZm9udC1mYW1pbHk9InNhbnMtc2VyaWYiIGZvbnQtc2l6ZT0iMTQiIGxlbmd0aEFkanVzdD0ic3BhY2luZyIgdGV4dExlbmd0aD0iMTE5IiB4PSI5NjIuNSIgeT0iMTIxOS43MTg4Ij5nZXROYW1lKCk6IFN0cmluZzwvdGV4dD48ZWxsaXBzZSBjeD0iOTUzLjUiIGN5PSIxMjMwLjQ2MDkiIGZpbGw9IiM4NEJFODQiIHJ4PSIzIiByeT0iMyIgc3R5bGU9InN0cm9rZTojMDM4MDQ4O3N0cm9rZS13aWR0aDoxOyIvPjx0ZXh0IGZpbGw9IiMwMDAwMDAiIGZvbnQtZmFtaWx5PSJzYW5zLXNlcmlmIiBmb250LXNpemU9IjE0IiBsZW5ndGhBZGp1c3Q9InNwYWNpbmciIHRleHRMZW5ndGg9IjEyNiIgeD0iOTYyLjUiIHk9IjEyMzQuNzAzMSI+Z2V0UHJpY2UoKTogZG91YmxlPC90ZXh0PjxlbGxpcHNlIGN4PSI5NTMuNSIgY3k9IjEyNDUuNDQ1MyIgZmlsbD0iIzg0QkU4NCIgcng9IjMiIHJ5PSIzIiBzdHlsZT0ic3Ryb2tlOiMwMzgwNDg7c3Ryb2tlLXdpZHRoOjE7Ii8+PHRleHQgZmlsbD0iIzAwMDAwMCIgZm9udC1mYW1pbHk9InNhbnMtc2VyaWYiIGZvbnQtc2l6ZT0iMTQiIGxlbmd0aEFkanVzdD0ic3BhY2luZyIgdGV4dExlbmd0aD0iMTQ3IiB4PSI5NjIuNSIgeT0iMTI0OS42ODc1Ij5nZXRDYXRlZ29yeSgpOiBTdHJpbmc8L3RleHQ+PC9nPjwhLS1jbGFzcyBUeXBlLS0+PGcgY2xhc3M9ImVudGl0eSIgZGF0YS1lbnRpdHk9IlR5cGUiIGRhdGEtc291cmNlLWxpbmU9IjI1IiBkYXRhLXVpZD0iZW50MDAwNSIgaWQ9ImVudGl0eV9UeXBlIj48cmVjdCBmaWxsPSIjM0MzRjQxIiBoZWlnaHQ9IjkyLjk1MzEiIHJ4PSIyLjUiIHJ5PSIyLjUiIHN0eWxlPSJzdHJva2U6IzY2OTlDQztzdHJva2Utd2lkdGg6MC41OyIgd2lkdGg9IjYxIiB4PSIzMTU3LjUiIHk9IjIwNCIvPjxlbGxpcHNlIGN4PSIzMTcyLjk1IiBjeT0iMjIwIiBmaWxsPSIjRUI5MzdGIiByeD0iMTEiIHJ5PSIxMSIgc3R5bGU9InN0cm9rZTojMTgxODE4O3N0cm9rZS13aWR0aDoxOyIvPjxwYXRoIGQ9Ik0zMTc2LjU3NSwyMjYgTDMxNzYuNTc1LDIyNC4yNSBMMzE3MS4yNjI1LDIyNC4yNSBRMzE3MS4yNjI1LDIyNC4yNSAzMTcxLjI2MjUsMjIwLjY4NzUgTDMxNzUuNTEyNSwyMjAuNjg3NSBMMzE3NS41MTI1LDIxOC45Mzc1IEwzMTcxLjI2MjUsMjE4LjkzNzUgTDMxNzEuMjYyNSwyMTYuNDM3NSBMMzE3Ni41NzUsMjE2LjQzNzUgTDMxNzYuNTc1LDIxNC42ODc1IEwzMTY5LjUxMjUsMjE0LjY4NzUgUTMxNjkuNTEyNSwyMTQuNjg3NSAzMTY5LjUxMjUsMjI2IEwzMTc2LjU3NSwyMjYgWiAiIGZpbGw9IiMwMDAwMDAiLz48dGV4dCBmaWxsPSIjRkZGRkZGIiBmb250LWZhbWlseT0ic2Fucy1zZXJpZiIgZm9udC1zaXplPSIxNCIgbGVuZ3RoQWRqdXN0PSJzcGFjaW5nIiB0ZXh0TGVuZ3RoPSIyOCIgeD0iMzE4Ny4wNSIgeT0iMjI1Ljc0MjIiPlR5cGU8L3RleHQ+PGxpbmUgc3R5bGU9InN0cm9rZTojNjY5OUNDO3N0cm9rZS13aWR0aDowLjU7IiB4MT0iMzE1OC41IiB4Mj0iMzIxNy41IiB5MT0iMjM2IiB5Mj0iMjM2Ii8+PHRleHQgZmlsbD0iIzAwMDAwMCIgZm9udC1mYW1pbHk9InNhbnMtc2VyaWYiIGZvbnQtc2l6ZT0iMTQiIGxlbmd0aEFkanVzdD0ic3BhY2luZyIgdGV4dExlbmd0aD0iMzUiIHg9IjMxNjMuNSIgeT0iMjUzLjIzNDQiPkZJUlNUPC90ZXh0Pjx0ZXh0IGZpbGw9IiMwMDAwMDAiIGZvbnQtZmFtaWx5PSJzYW5zLXNlcmlmIiBmb250LXNpemU9IjE0IiBsZW5ndGhBZGp1c3Q9InNwYWNpbmciIHRleHRMZW5ndGg9IjQ5IiB4PSIzMTYzLjUiIHk9IjI2OC4yMTg4Ij5SRUdVTEFSPC90ZXh0Pjx0ZXh0IGZpbGw9IiMwMDAwMDAiIGZvbnQtZmFtaWx5PSJzYW5zLXNlcmlmIiBmb250LXNpemU9IjE0IiBsZW5ndGhBZGp1c3Q9InNwYWNpbmciIHRleHRMZW5ndGg9IjIxIiB4PSIzMTYzLjUiIHk9IjI4My4yMDMxIj5WSVA8L3RleHQ+PGxpbmUgc3R5bGU9InN0cm9rZTojNjY5OUNDO3N0cm9rZS13aWR0aDowLjU7IiB4MT0iMzE1OC41IiB4Mj0iMzIxNy41IiB5MT0iMjg4Ljk1MzEiIHkyPSIyODguOTUzMSIvPjwvZz48IS0tY2xhc3MgU3RhdHVzLS0+PGcgY2xhc3M9ImVudGl0eSIgZGF0YS1lbnRpdHk9IlN0YXR1cyIgZGF0YS1zb3VyY2UtbGluZT0iMzEiIGRhdGEtdWlkPSJlbnQwMDA2IiBpZD0iZW50aXR5X1N0YXR1cyI+PHJlY3QgZmlsbD0iIzNDM0Y0MSIgaGVpZ2h0PSI5Mi45NTMxIiByeD0iMi41IiByeT0iMi41IiBzdHlsZT0ic3Ryb2tlOiM2Njk5Q0M7c3Ryb2tlLXdpZHRoOjAuNTsiIHdpZHRoPSI3NSIgeD0iMjg0Ny41IiB5PSIyMDQiLz48ZWxsaXBzZSBjeD0iMjg2Mi45NSIgY3k9IjIyMCIgZmlsbD0iI0VCOTM3RiIgcng9IjExIiByeT0iMTEiIHN0eWxlPSJzdHJva2U6IzE4MTgxODtzdHJva2Utd2lkdGg6MTsiLz48cGF0aCBkPSJNMjg2Ni41NzUsMjI2IEwyODY2LjU3NSwyMjQuMjUgTDI4NjEuMjYyNSwyMjQuMjUgUTI4NjEuMjYyNSwyMjQuMjUgMjg2MS4yNjI1LDIyMC42ODc1IEwyODY1LjUxMjUsMjIwLjY4NzUgTDI4NjUuNTEyNSwyMTguOTM3NSBMMjg2MS4yNjI1LDIxOC45Mzc1IEwyODYxLjI2MjUsMjE2LjQzNzUgTDI4NjYuNTc1LDIxNi40Mzc1IEwyODY2LjU3NSwyMTQuNjg3NSBMMjg1OS41MTI1LDIxNC42ODc1IFEyODU5LjUxMjUsMjE0LjY4NzUgMjg1OS41MTI1LDIyNiBMMjg2Ni41NzUsMjI2IFogIiBmaWxsPSIjMDAwMDAwIi8+PHRleHQgZmlsbD0iI0ZGRkZGRiIgZm9udC1mYW1pbHk9InNhbnMtc2VyaWYiIGZvbnQtc2l6ZT0iMTQiIGxlbmd0aEFkanVzdD0ic3BhY2luZyIgdGV4dExlbmd0aD0iNDIiIHg9IjI4NzcuMDUiIHk9IjIyNS43NDIyIj5TdGF0dXM8L3RleHQ+PGxpbmUgc3R5bGU9InN0cm9rZTojNjY5OUNDO3N0cm9rZS13aWR0aDowLjU7IiB4MT0iMjg0OC41IiB4Mj0iMjkyMS41IiB5MT0iMjM2IiB5Mj0iMjM2Ii8+PHRleHQgZmlsbD0iIzAwMDAwMCIgZm9udC1mYW1pbHk9InNhbnMtc2VyaWYiIGZvbnQtc2l6ZT0iMTQiIGxlbmd0aEFkanVzdD0ic3BhY2luZyIgdGV4dExlbmd0aD0iNDkiIHg9IjI4NTMuNSIgeT0iMjUzLjIzNDQiPlBFTkRJTkc8L3RleHQ+PHRleHQgZmlsbD0iIzAwMDAwMCIgZm9udC1mYW1pbHk9InNhbnMtc2VyaWYiIGZvbnQtc2l6ZT0iMTQiIGxlbmd0aEFkanVzdD0ic3BhY2luZyIgdGV4dExlbmd0aD0iNjMiIHg9IjI4NTMuNSIgeT0iMjY4LjIxODgiPkNPTkZJUk1FRDwvdGV4dD48dGV4dCBmaWxsPSIjMDAwMDAwIiBmb250LWZhbWlseT0ic2Fucy1zZXJpZiIgZm9udC1zaXplPSIxNCIgbGVuZ3RoQWRqdXN0PSJzcGFjaW5nIiB0ZXh0TGVuZ3RoPSI2MyIgeD0iMjg1My41IiB5PSIyODMuMjAzMSI+Q0FOQ0VMTEVEPC90ZXh0PjxsaW5lIHN0eWxlPSJzdHJva2U6IzY2OTlDQztzdHJva2Utd2lkdGg6MC41OyIgeDE9IjI4NDguNSIgeDI9IjI5MjEuNSIgeTE9IjI4OC45NTMxIiB5Mj0iMjg4Ljk1MzEiLz48L2c+PCEtLWNsYXNzIEN1c3RvbWVyLS0+PGcgY2xhc3M9ImVudGl0eSIgZGF0YS1lbnRpdHk9IkN1c3RvbWVyIiBkYXRhLXNvdXJjZS1saW5lPSIzOCIgZGF0YS11aWQ9ImVudDAwMDciIGlkPSJlbnRpdHlfQ3VzdG9tZXIiPjxyZWN0IGZpbGw9IiMzQzNGNDEiIGhlaWdodD0iMzkyLjY0MDYiIHJ4PSIyLjUiIHJ5PSIyLjUiIHN0eWxlPSJzdHJva2U6IzY2OTlDQztzdHJva2Utd2lkdGg6MC41OyIgd2lkdGg9Ijc0MCIgeD0iMTkyOSIgeT0iMTAwNSIvPjxlbGxpcHNlIGN4PSIyMjY2Ljc1IiBjeT0iMTAyMSIgZmlsbD0iI0E5RENERiIgcng9IjExIiByeT0iMTEiIHN0eWxlPSJzdHJva2U6IzE4MTgxODtzdHJva2Utd2lkdGg6MTsiLz48cGF0aCBkPSJNMjI2My4zMTI1LDEwMTguNjI1IEwyMjYzLjMxMjUsMTAyNi43NSBMMjI2NS4wNjI1LDEwMjYuNzUgUTIyNjUuMDYyNSwxMDI2Ljc1IDIyNjUuMDYyNSwxMDIyLjUgTDIyNjguNjI1LDEwMjIuNSBRMjI2OC42MjUsMTAyMi41IDIyNjguNjI1LDEwMjYuNzUgTDIyNzAuMzc1LDEwMjYuNzUgTDIyNzAuMzc1LDEwMTguNjI1IEwyMjY4LjYyNSwxMDE4LjYyNSBRMjI2OC42MjUsMTAxOC42MjUgMjI2OC42MjUsMTAyMC43NSBMMjI2NS4wNjI1LDEwMjAuNzUgUTIyNjUuMDYyNSwxMDIwLjc1IDIyNjUuMDYyNSwxMDE4LjYyNSBMMjI2My4zMTI1LDEwMTguNjI1IFogTTIyNjQuMzc1LDEwMTkuMzEyNSBMMjI2Ni4xMjUsMTAxOS4zMTI1IFEyMjY2LjEyNSwxMDE5LjMxMjUgMjI2Ni4xMjUsMTAxNi41IEwyMjY0LjM3NSwxMDE2LjUgUTIyNjQuMzc1LDEwMTYuNSAyMjY0LjM3NSwxMDE5LjMxMjUgWiBNMjI2OS4zMTI1LDEwMTkuMzEyNSBRMjI2OS4zMTI1LDEwMTkuMzEyNSAyMjY5LjMxMjUsMTAxNi41IEwyMjY3LjU2MjUsMTAxNi41IFEyMjY3LjU2MjUsMTAxNi41IDIyNjcuNTYyNSwxMDE5LjMxMjUgTDIyNjkuMzEyNSwxMDE5LjMxMjUgWiBNMjI2NS40Mzc1LDEwMTcuMTg3NSBMMjI2OC4yNSwxMDE3LjE4NzUgTDIyNjguMjUsMTAxNS40Mzc1IEwyMjY1LjQzNzUsMTAxNS40Mzc1IEwyMjY1LjQzNzUsMTAxNy4xODc1IFogIiBmaWxsPSIjMDAwMDAwIi8+PHRleHQgZmlsbD0iI0ZGRkZGRiIgZm9udC1mYW1pbHk9InNhbnMtc2VyaWYiIGZvbnQtc2l6ZT0iMTQiIGZvbnQtc3R5bGU9Iml0YWxpYyIgbGVuZ3RoQWRqdXN0PSJzcGFjaW5nIiB0ZXh0TGVuZ3RoPSI1NiIgeD0iMjI4Ny4yNSIgeT0iMTAyNi43NDIyIj5DdXN0b21lcjwvdGV4dD48bGluZSBzdHlsZT0ic3Ryb2tlOiM2Njk5Q0M7c3Ryb2tlLXdpZHRoOjAuNTsiIHgxPSIxOTMwIiB4Mj0iMjY2OCIgeTE9IjEwMzciIHkyPSIxMDM3Ii8+PHJlY3QgZmlsbD0ibm9uZSIgaGVpZ2h0PSI2IiBzdHlsZT0ic3Ryb2tlOiNDODI5MzA7c3Ryb2tlLXdpZHRoOjE7IiB3aWR0aD0iNiIgeD0iMTkzNyIgeT0iMTA0Ni45OTIyIi8+PHRleHQgZmlsbD0iIzAwMDAwMCIgZm9udC1mYW1pbHk9InNhbnMtc2VyaWYiIGZvbnQtc2l6ZT0iMTQiIGxlbmd0aEFkanVzdD0ic3BhY2luZyIgdGV4dExlbmd0aD0iNzAiIHg9IjE5NDkiIHk9IjEwNTQuMjM0NCI+aWQ6IFN0cmluZzwvdGV4dD48cmVjdCBmaWxsPSJub25lIiBoZWlnaHQ9IjYiIHN0eWxlPSJzdHJva2U6I0M4MjkzMDtzdHJva2Utd2lkdGg6MTsiIHdpZHRoPSI2IiB4PSIxOTM3IiB5PSIxMDYxLjk3NjYiLz48dGV4dCBmaWxsPSIjMDAwMDAwIiBmb250LWZhbWlseT0ic2Fucy1zZXJpZiIgZm9udC1zaXplPSIxNCIgbGVuZ3RoQWRqdXN0PSJzcGFjaW5nIiB0ZXh0TGVuZ3RoPSI4NCIgeD0iMTk0OSIgeT0iMTA2OS4yMTg4Ij5uYW1lOiBTdHJpbmc8L3RleHQ+PHJlY3QgZmlsbD0ibm9uZSIgaGVpZ2h0PSI2IiBzdHlsZT0ic3Ryb2tlOiNDODI5MzA7c3Ryb2tlLXdpZHRoOjE7IiB3aWR0aD0iNiIgeD0iMTkzNyIgeT0iMTA3Ni45NjA5Ii8+PHRleHQgZmlsbD0iIzAwMDAwMCIgZm9udC1mYW1pbHk9InNhbnMtc2VyaWYiIGZvbnQtc2l6ZT0iMTQiIGxlbmd0aEFkanVzdD0ic3BhY2luZyIgdGV4dExlbmd0aD0iNzAiIHg9IjE5NDkiIHk9IjEwODQuMjAzMSI+dHlwZTogVHlwZTwvdGV4dD48cmVjdCBmaWxsPSJub25lIiBoZWlnaHQ9IjYiIHN0eWxlPSJzdHJva2U6I0M4MjkzMDtzdHJva2Utd2lkdGg6MTsiIHdpZHRoPSI2IiB4PSIxOTM3IiB5PSIxMDkxLjk0NTMiLz48dGV4dCBmaWxsPSIjMDAwMDAwIiBmb250LWZhbWlseT0ic2Fucy1zZXJpZiIgZm9udC1zaXplPSIxNCIgbGVuZ3RoQWRqdXN0PSJzcGFjaW5nIiB0ZXh0TGVuZ3RoPSI5MSIgeD0iMTk0OSIgeT0iMTA5OS4xODc1Ij5lbWFpbDogU3RyaW5nPC90ZXh0PjxyZWN0IGZpbGw9Im5vbmUiIGhlaWdodD0iNiIgc3R5bGU9InN0cm9rZTojQzgyOTMwO3N0cm9rZS13aWR0aDoxOyIgd2lkdGg9IjYiIHg9IjE5MzciIHk9IjExMDYuOTI5NyIvPjx0ZXh0IGZpbGw9IiMwMDAwMDAiIGZvbnQtZmFtaWx5PSJzYW5zLXNlcmlmIiBmb250LXNpemU9IjE0IiBsZW5ndGhBZGp1c3Q9InNwYWNpbmciIHRleHRMZW5ndGg9IjkxIiB4PSIxOTQ5IiB5PSIxMTE0LjE3MTkiPnBob25lOiBTdHJpbmc8L3RleHQ+PHJlY3QgZmlsbD0ibm9uZSIgaGVpZ2h0PSI2IiBzdHlsZT0ic3Ryb2tlOiNDODI5MzA7c3Ryb2tlLXdpZHRoOjE7IiB3aWR0aD0iNiIgeD0iMTkzNyIgeT0iMTEyMS45MTQxIi8+PHRleHQgZmlsbD0iIzAwMDAwMCIgZm9udC1mYW1pbHk9InNhbnMtc2VyaWYiIGZvbnQtc2l6ZT0iMTQiIGxlbmd0aEFkanVzdD0ic3BhY2luZyIgdGV4dExlbmd0aD0iMTQ3IiB4PSIxOTQ5IiB5PSIxMTI5LjE1NjMiPmxveWFsdHlQb2ludHM6IGRvdWJsZTwvdGV4dD48bGluZSBzdHlsZT0ic3Ryb2tlOiM2Njk5Q0M7c3Ryb2tlLXdpZHRoOjAuNTsiIHgxPSIxOTMwIiB4Mj0iMjY2OCIgeTE9IjExMzQuOTA2MyIgeTI9IjExMzQuOTA2MyIvPjxlbGxpcHNlIGN4PSIxOTQwIiBjeT0iMTE0Ny44OTg0IiBmaWxsPSIjODRCRTg0IiByeD0iMyIgcnk9IjMiIHN0eWxlPSJzdHJva2U6IzAzODA0ODtzdHJva2Utd2lkdGg6MTsiLz48dGV4dCBmaWxsPSIjMDAwMDAwIiBmb250LWZhbWlseT0ic2Fucy1zZXJpZiIgZm9udC1zaXplPSIxNCIgbGVuZ3RoQWRqdXN0PSJzcGFjaW5nIiB0ZXh0TGVuZ3RoPSI3MTQiIHg9IjE5NDkiIHk9IjExNTIuMTQwNiI+JiMxNzE7Y3JlYXRlJiMxODc7IEN1c3RvbWVyKFN0cmluZyBpZCwgU3RyaW5nIG5hbWUsIFR5cGUgdHlwZSwgU3RyaW5nIGVtYWlsLCBTdHJpbmcgcGhvbmUsIGRvdWJsZSBsb3lhbHR5UG9pbnRzKTwvdGV4dD48ZWxsaXBzZSBjeD0iMTk0MCIgY3k9IjExNjIuODgyOCIgZmlsbD0iIzg0QkU4NCIgcng9IjMiIHJ5PSIzIiBzdHlsZT0ic3Ryb2tlOiMwMzgwNDg7c3Ryb2tlLXdpZHRoOjE7Ii8+PHRleHQgZmlsbD0iIzAwMDAwMCIgZm9udC1mYW1pbHk9InNhbnMtc2VyaWYiIGZvbnQtc2l6ZT0iMTQiIGxlbmd0aEFkanVzdD0ic3BhY2luZyIgdGV4dExlbmd0aD0iMjg3IiB4PSIxOTQ5IiB5PSIxMTY3LjEyNSI+JiMxNzE7Y3JlYXRlJiMxODc7IEN1c3RvbWVyKFN0cmluZyBuYW1lLCBUeXBlIHR5cGUpPC90ZXh0PjxlbGxpcHNlIGN4PSIxOTQwIiBjeT0iMTE3Ny44NjcyIiBmaWxsPSIjODRCRTg0IiByeD0iMyIgcnk9IjMiIHN0eWxlPSJzdHJva2U6IzAzODA0ODtzdHJva2Utd2lkdGg6MTsiLz48dGV4dCBmaWxsPSIjMDAwMDAwIiBmb250LWZhbWlseT0ic2Fucy1zZXJpZiIgZm9udC1zaXplPSIxNCIgbGVuZ3RoQWRqdXN0PSJzcGFjaW5nIiB0ZXh0TGVuZ3RoPSI0ODMiIHg9IjE5NDkiIHk9IjExODIuMTA5NCI+JiMxNzE7Y3JlYXRlJiMxODc7IEN1c3RvbWVyKFN0cmluZyBuYW1lLCBUeXBlIHR5cGUsIFN0cmluZyBlbWFpbCwgU3RyaW5nIHBob25lKTwvdGV4dD48ZWxsaXBzZSBjeD0iMTk0MCIgY3k9IjExOTIuODUxNiIgZmlsbD0iIzg0QkU4NCIgcng9IjMiIHJ5PSIzIiBzdHlsZT0ic3Ryb2tlOiMwMzgwNDg7c3Ryb2tlLXdpZHRoOjE7Ii8+PHRleHQgZmlsbD0iIzAwMDAwMCIgZm9udC1mYW1pbHk9InNhbnMtc2VyaWYiIGZvbnQtc2l6ZT0iMTQiIGxlbmd0aEFkanVzdD0ic3BhY2luZyIgdGV4dExlbmd0aD0iMTA1IiB4PSIxOTQ5IiB5PSIxMTk3LjA5MzgiPmdldElkKCk6IFN0cmluZzwvdGV4dD48ZWxsaXBzZSBjeD0iMTk0MCIgY3k9IjEyMDcuODM1OSIgZmlsbD0iIzg0QkU4NCIgcng9IjMiIHJ5PSIzIiBzdHlsZT0ic3Ryb2tlOiMwMzgwNDg7c3Ryb2tlLXdpZHRoOjE7Ii8+PHRleHQgZmlsbD0iIzAwMDAwMCIgZm9udC1mYW1pbHk9InNhbnMtc2VyaWYiIGZvbnQtc2l6ZT0iMTQiIGxlbmd0aEFkanVzdD0ic3BhY2luZyIgdGV4dExlbmd0aD0iMTE5IiB4PSIxOTQ5IiB5PSIxMjEyLjA3ODEiPmdldE5hbWUoKTogU3RyaW5nPC90ZXh0PjxlbGxpcHNlIGN4PSIxOTQwIiBjeT0iMTIyMi44MjAzIiBmaWxsPSIjODRCRTg0IiByeD0iMyIgcnk9IjMiIHN0eWxlPSJzdHJva2U6IzAzODA0ODtzdHJva2Utd2lkdGg6MTsiLz48dGV4dCBmaWxsPSIjMDAwMDAwIiBmb250LWZhbWlseT0ic2Fucy1zZXJpZiIgZm9udC1zaXplPSIxNCIgbGVuZ3RoQWRqdXN0PSJzcGFjaW5nIiB0ZXh0TGVuZ3RoPSIxMDUiIHg9IjE5NDkiIHk9IjEyMjcuMDYyNSI+Z2V0VHlwZSgpOiBUeXBlPC90ZXh0PjxlbGxpcHNlIGN4PSIxOTQwIiBjeT0iMTIzNy44MDQ3IiBmaWxsPSIjODRCRTg0IiByeD0iMyIgcnk9IjMiIHN0eWxlPSJzdHJva2U6IzAzODA0ODtzdHJva2Utd2lkdGg6MTsiLz48dGV4dCBmaWxsPSIjMDAwMDAwIiBmb250LWZhbWlseT0ic2Fucy1zZXJpZiIgZm9udC1zaXplPSIxNCIgbGVuZ3RoQWRqdXN0PSJzcGFjaW5nIiB0ZXh0TGVuZ3RoPSIxMjYiIHg9IjE5NDkiIHk9IjEyNDIuMDQ2OSI+Z2V0RW1haWwoKTogU3RyaW5nPC90ZXh0PjxlbGxpcHNlIGN4PSIxOTQwIiBjeT0iMTI1Mi43ODkxIiBmaWxsPSIjODRCRTg0IiByeD0iMyIgcnk9IjMiIHN0eWxlPSJzdHJva2U6IzAzODA0ODtzdHJva2Utd2lkdGg6MTsiLz48dGV4dCBmaWxsPSIjMDAwMDAwIiBmb250LWZhbWlseT0ic2Fucy1zZXJpZiIgZm9udC1zaXplPSIxNCIgbGVuZ3RoQWRqdXN0PSJzcGFjaW5nIiB0ZXh0TGVuZ3RoPSIxMjYiIHg9IjE5NDkiIHk9IjEyNTcuMDMxMyI+Z2V0UGhvbmUoKTogU3RyaW5nPC90ZXh0PjxlbGxpcHNlIGN4PSIxOTQwIiBjeT0iMTI2Ny43NzM0IiBmaWxsPSIjODRCRTg0IiByeD0iMyIgcnk9IjMiIHN0eWxlPSJzdHJva2U6IzAzODA0ODtzdHJva2Utd2lkdGg6MTsiLz48dGV4dCBmaWxsPSIjMDAwMDAwIiBmb250LWZhbWlseT0ic2Fucy1zZXJpZiIgZm9udC1zaXplPSIxNCIgbGVuZ3RoQWRqdXN0PSJzcGFjaW5nIiB0ZXh0TGVuZ3RoPSIxODIiIHg9IjE5NDkiIHk9IjEyNzIuMDE1NiI+Z2V0TG95YWx0eVBvaW50cygpOiBkb3VibGU8L3RleHQ+PGVsbGlwc2UgY3g9IjE5NDAiIGN5PSIxMjgyLjc1NzgiIGZpbGw9IiM4NEJFODQiIHJ4PSIzIiByeT0iMyIgc3R5bGU9InN0cm9rZTojMDM4MDQ4O3N0cm9rZS13aWR0aDoxOyIvPjx0ZXh0IGZpbGw9IiMwMDAwMDAiIGZvbnQtZmFtaWx5PSJzYW5zLXNlcmlmIiBmb250LXNpemU9IjE0IiBsZW5ndGhBZGp1c3Q9InNwYWNpbmciIHRleHRMZW5ndGg9IjkxIiB4PSIxOTQ5IiB5PSIxMjg3Ij5zZXRJZCgpOiB2b2lkPC90ZXh0PjxlbGxpcHNlIGN4PSIxOTQwIiBjeT0iMTI5Ny43NDIyIiBmaWxsPSIjODRCRTg0IiByeD0iMyIgcnk9IjMiIHN0eWxlPSJzdHJva2U6IzAzODA0ODtzdHJva2Utd2lkdGg6MTsiLz48dGV4dCBmaWxsPSIjMDAwMDAwIiBmb250LWZhbWlseT0ic2Fucy1zZXJpZiIgZm9udC1zaXplPSIxNCIgbGVuZ3RoQWRqdXN0PSJzcGFjaW5nIiB0ZXh0TGVuZ3RoPSIxMDUiIHg9IjE5NDkiIHk9IjEzMDEuOTg0NCI+c2V0TmFtZShTdHJpbmcpPC90ZXh0PjxlbGxpcHNlIGN4PSIxOTQwIiBjeT0iMTMxMi43MjY2IiBmaWxsPSIjODRCRTg0IiByeD0iMyIgcnk9IjMiIHN0eWxlPSJzdHJva2U6IzAzODA0ODtzdHJva2Utd2lkdGg6MTsiLz48dGV4dCBmaWxsPSIjMDAwMDAwIiBmb250LWZhbWlseT0ic2Fucy1zZXJpZiIgZm9udC1zaXplPSIxNCIgbGVuZ3RoQWRqdXN0PSJzcGFjaW5nIiB0ZXh0TGVuZ3RoPSIxMTIiIHg9IjE5NDkiIHk9IjEzMTYuOTY4OCI+c2V0RW1haWwoU3RyaW5nKTwvdGV4dD48ZWxsaXBzZSBjeD0iMTk0MCIgY3k9IjEzMjcuNzEwOSIgZmlsbD0iIzg0QkU4NCIgcng9IjMiIHJ5PSIzIiBzdHlsZT0ic3Ryb2tlOiMwMzgwNDg7c3Ryb2tlLXdpZHRoOjE7Ii8+PHRleHQgZmlsbD0iIzAwMDAwMCIgZm9udC1mYW1pbHk9InNhbnMtc2VyaWYiIGZvbnQtc2l6ZT0iMTQiIGxlbmd0aEFkanVzdD0ic3BhY2luZyIgdGV4dExlbmd0aD0iMTEyIiB4PSIxOTQ5IiB5PSIxMzMxLjk1MzEiPnNldFBob25lKFN0cmluZyk8L3RleHQ+PGVsbGlwc2UgY3g9IjE5NDAiIGN5PSIxMzQyLjY5NTMiIGZpbGw9IiM4NEJFODQiIHJ4PSIzIiByeT0iMyIgc3R5bGU9InN0cm9rZTojMDM4MDQ4O3N0cm9rZS13aWR0aDoxOyIvPjx0ZXh0IGZpbGw9IiMwMDAwMDAiIGZvbnQtZmFtaWx5PSJzYW5zLXNlcmlmIiBmb250LXNpemU9IjE0IiBsZW5ndGhBZGp1c3Q9InNwYWNpbmciIHRleHRMZW5ndGg9IjkxIiB4PSIxOTQ5IiB5PSIxMzQ2LjkzNzUiPnNldFR5cGUoVHlwZSk8L3RleHQ+PGVsbGlwc2UgY3g9IjE5NDAiIGN5PSIxMzU3LjY3OTciIGZpbGw9IiM4NEJFODQiIHJ4PSIzIiByeT0iMyIgc3R5bGU9InN0cm9rZTojMDM4MDQ4O3N0cm9rZS13aWR0aDoxOyIvPjx0ZXh0IGZpbGw9IiMwMDAwMDAiIGZvbnQtZmFtaWx5PSJzYW5zLXNlcmlmIiBmb250LXNpemU9IjE0IiBsZW5ndGhBZGp1c3Q9InNwYWNpbmciIHRleHRMZW5ndGg9IjE2OCIgeD0iMTk0OSIgeT0iMTM2MS45MjE5Ij5zZXRMb3lhbHR5UG9pbnRzKGRvdWJsZSk8L3RleHQ+PGVsbGlwc2UgY3g9IjE5NDAiIGN5PSIxMzcyLjY2NDEiIGZpbGw9IiM4NEJFODQiIHJ4PSIzIiByeT0iMyIgc3R5bGU9InN0cm9rZTojMDM4MDQ4O3N0cm9rZS13aWR0aDoxOyIvPjx0ZXh0IGZpbGw9IiMwMDAwMDAiIGZvbnQtZmFtaWx5PSJzYW5zLXNlcmlmIiBmb250LXNpemU9IjE0IiBsZW5ndGhBZGp1c3Q9InNwYWNpbmciIHRleHRMZW5ndGg9IjE2OCIgeD0iMTk0OSIgeT0iMTM3Ni45MDYzIj5hZGRMb3lhbHR5UG9pbnRzKGRvdWJsZSk8L3RleHQ+PGVsbGlwc2UgY3g9IjE5NDAiIGN5PSIxMzg3LjY0ODQiIGZpbGw9IiM4NEJFODQiIHJ4PSIzIiByeT0iMyIgc3R5bGU9InN0cm9rZTojMDM4MDQ4O3N0cm9rZS13aWR0aDoxOyIvPjx0ZXh0IGZpbGw9IiMwMDAwMDAiIGZvbnQtZmFtaWx5PSJzYW5zLXNlcmlmIiBmb250LXNpemU9IjE0IiBsZW5ndGhBZGp1c3Q9InNwYWNpbmciIHRleHRMZW5ndGg9IjE4OSIgeD0iMTk0OSIgeT0iMTM5MS44OTA2Ij5yZW1vdmVMb3lhbHR5UG9pbnRzKGRvdWJsZSk8L3RleHQ+PC9nPjwhLS1jbGFzcyBDVEZpcnN0VGltZS0tPjxnIGNsYXNzPSJlbnRpdHkiIGRhdGEtZW50aXR5PSJDVEZpcnN0VGltZSIgZGF0YS1zb3VyY2UtbGluZT0iNjQiIGRhdGEtdWlkPSJlbnQwMDA4IiBpZD0iZW50aXR5X0NURmlyc3RUaW1lIj48cmVjdCBmaWxsPSIjM0MzRjQxIiBoZWlnaHQ9IjEzNy45MDYzIiByeD0iMi41IiByeT0iMi41IiBzdHlsZT0ic3Ryb2tlOiM2Njk5Q0M7c3Ryb2tlLXdpZHRoOjAuNTsiIHdpZHRoPSI2ODQiIHg9IjE1NTEiIHk9IjE1MTgiLz48ZWxsaXBzZSBjeD0iMTg1MC4yNSIgY3k9IjE1MzQiIGZpbGw9IiNBREQxQjIiIHJ4PSIxMSIgcnk9IjExIiBzdHlsZT0ic3Ryb2tlOiMxODE4MTg7c3Ryb2tlLXdpZHRoOjE7Ii8+PHBhdGggZD0iTTE4NDcuODc1LDE1MzguMjUgTDE4NDcuODc1LDE1NDAgTDE4NTIuODEyNSwxNTQwIEwxODUyLjgxMjUsMTUzOC4yNSBMMTg0Ny44NzUsMTUzOC4yNSBaIE0xODQ4LjU2MjUsMTUzOC45Mzc1IFExODQ4LjU2MjUsMTUzOC45Mzc1IDE4NDguNTYyNSwxNTI5Ljc1IEwxODQ2LjgxMjUsMTUyOS43NSBRMTg0Ni44MTI1LDE1MjkuNzUgMTg0Ni44MTI1LDE1MzguOTM3NSBMMTg0OC41NjI1LDE1MzguOTM3NSBaIE0xODUyLjEyNSwxNTM4LjkzNzUgTDE4NTMuODc1LDE1MzguOTM3NSBRMTg1My44NzUsMTUzOC45Mzc1IDE4NTMuODc1LDE1MzYuMTI1IEwxODUyLjEyNSwxNTM2LjEyNSBRMTg1Mi4xMjUsMTUzNi4xMjUgMTg1Mi4xMjUsMTUzOC45Mzc1IFogTTE4NTIuMTI1LDE1MjkuNzUgUTE4NTIuMTI1LDE1MjkuNzUgMTg1Mi4xMjUsMTUzMi41NjI1IEwxODUzLjg3NSwxNTMyLjU2MjUgUTE4NTMuODc1LDE1MzIuNTYyNSAxODUzLjg3NSwxNTI5Ljc1IEwxODUyLjEyNSwxNTI5Ljc1IFogTTE4NDcuODc1LDE1MzAuNDM3NSBMMTg1Mi44MTI1LDE1MzAuNDM3NSBMMTg1Mi44MTI1LDE1MjguNjg3NSBMMTg0Ny44NzUsMTUyOC42ODc1IEwxODQ3Ljg3NSwxNTMwLjQzNzUgWiAiIGZpbGw9IiMwMDAwMDAiLz48dGV4dCBmaWxsPSIjRkZGRkZGIiBmb250LWZhbWlseT0ic2Fucy1zZXJpZiIgZm9udC1zaXplPSIxNCIgbGVuZ3RoQWRqdXN0PSJzcGFjaW5nIiB0ZXh0TGVuZ3RoPSI3NyIgeD0iMTg3MC43NSIgeT0iMTUzOS43NDIyIj5DVEZpcnN0VGltZTwvdGV4dD48bGluZSBzdHlsZT0ic3Ryb2tlOiM2Njk5Q0M7c3Ryb2tlLXdpZHRoOjAuNTsiIHgxPSIxNTUyIiB4Mj0iMjIzNCIgeTE9IjE1NTAiIHkyPSIxNTUwIi8+PGxpbmUgc3R5bGU9InN0cm9rZTojNjY5OUNDO3N0cm9rZS13aWR0aDowLjU7IiB4MT0iMTU1MiIgeDI9IjIyMzQiIHkxPSIxNTU4IiB5Mj0iMTU1OCIvPjxlbGxpcHNlIGN4PSIxNTYyIiBjeT0iMTU3MC45OTIyIiBmaWxsPSIjODRCRTg0IiByeD0iMyIgcnk9IjMiIHN0eWxlPSJzdHJva2U6IzAzODA0ODtzdHJva2Utd2lkdGg6MTsiLz48dGV4dCBmaWxsPSIjMDAwMDAwIiBmb250LWZhbWlseT0ic2Fucy1zZXJpZiIgZm9udC1zaXplPSIxNCIgbGVuZ3RoQWRqdXN0PSJzcGFjaW5nIiB0ZXh0TGVuZ3RoPSIyMzEiIHg9IjE1NzEiIHk9IjE1NzUuMjM0NCI+JiMxNzE7Y3JlYXRlJiMxODc7IENURmlyc3RUaW1lKFN0cmluZyBuYW1lKTwvdGV4dD48ZWxsaXBzZSBjeD0iMTU2MiIgY3k9IjE1ODUuOTc2NiIgZmlsbD0iIzg0QkU4NCIgcng9IjMiIHJ5PSIzIiBzdHlsZT0ic3Ryb2tlOiMwMzgwNDg7c3Ryb2tlLXdpZHRoOjE7Ii8+PHRleHQgZmlsbD0iIzAwMDAwMCIgZm9udC1mYW1pbHk9InNhbnMtc2VyaWYiIGZvbnQtc2l6ZT0iMTQiIGxlbmd0aEFkanVzdD0ic3BhY2luZyIgdGV4dExlbmd0aD0iNDI3IiB4PSIxNTcxIiB5PSIxNTkwLjIxODgiPiYjMTcxO2NyZWF0ZSYjMTg3OyBDVEZpcnN0VGltZShTdHJpbmcgbmFtZSwgU3RyaW5nIGVtYWlsLCBTdHJpbmcgcGhvbmUpPC90ZXh0PjxlbGxpcHNlIGN4PSIxNTYyIiBjeT0iMTYwMC45NjA5IiBmaWxsPSIjODRCRTg0IiByeD0iMyIgcnk9IjMiIHN0eWxlPSJzdHJva2U6IzAzODA0ODtzdHJva2Utd2lkdGg6MTsiLz48dGV4dCBmaWxsPSIjMDAwMDAwIiBmb250LWZhbWlseT0ic2Fucy1zZXJpZiIgZm9udC1zaXplPSIxNCIgbGVuZ3RoQWRqdXN0PSJzcGFjaW5nIiB0ZXh0TGVuZ3RoPSI2NTgiIHg9IjE1NzEiIHk9IjE2MDUuMjAzMSI+JiMxNzE7Y3JlYXRlJiMxODc7IENURmlyc3RUaW1lKFN0cmluZyBpZCwgU3RyaW5nIG5hbWUsIFN0cmluZyBlbWFpbCwgU3RyaW5nIHBob25lLCBkb3VibGUgbG95YWx0eVBvaW50cyk8L3RleHQ+PGVsbGlwc2UgY3g9IjE1NjIiIGN5PSIxNjE1Ljk0NTMiIGZpbGw9IiM4NEJFODQiIHJ4PSIzIiByeT0iMyIgc3R5bGU9InN0cm9rZTojMDM4MDQ4O3N0cm9rZS13aWR0aDoxOyIvPjx0ZXh0IGZpbGw9IiMwMDAwMDAiIGZvbnQtZmFtaWx5PSJzYW5zLXNlcmlmIiBmb250LXNpemU9IjE0IiBsZW5ndGhBZGp1c3Q9InNwYWNpbmciIHRleHRMZW5ndGg9IjEzMyIgeD0iMTU3MSIgeT0iMTYyMC4xODc1Ij5Qb2ludFJhdGUoKTogRG91YmxlPC90ZXh0PjxlbGxpcHNlIGN4PSIxNTYyIiBjeT0iMTYzMC45Mjk3IiBmaWxsPSIjODRCRTg0IiByeD0iMyIgcnk9IjMiIHN0eWxlPSJzdHJva2U6IzAzODA0ODtzdHJva2Utd2lkdGg6MTsiLz48dGV4dCBmaWxsPSIjMDAwMDAwIiBmb250LWZhbWlseT0ic2Fucy1zZXJpZiIgZm9udC1zaXplPSIxNCIgbGVuZ3RoQWRqdXN0PSJzcGFjaW5nIiB0ZXh0TGVuZ3RoPSIxNTQiIHg9IjE1NzEiIHk9IjE2MzUuMTcxOSI+RGlzY291bnRSYXRlKCk6IERvdWJsZTwvdGV4dD48ZWxsaXBzZSBjeD0iMTU2MiIgY3k9IjE2NDUuOTE0MSIgZmlsbD0iIzg0QkU4NCIgcng9IjMiIHJ5PSIzIiBzdHlsZT0ic3Ryb2tlOiMwMzgwNDg7c3Ryb2tlLXdpZHRoOjE7Ii8+PHRleHQgZmlsbD0iIzAwMDAwMCIgZm9udC1mYW1pbHk9InNhbnMtc2VyaWYiIGZvbnQtc2l6ZT0iMTQiIGxlbmd0aEFkanVzdD0ic3BhY2luZyIgdGV4dExlbmd0aD0iMTg5IiB4PSIxNTcxIiB5PSIxNjUwLjE1NjMiPlN1YnNjcmlwdGlvblByaWNlKCk6IERvdWJsZTwvdGV4dD48L2c+PCEtLWNsYXNzIENUUmVndWxhci0tPjxnIGNsYXNzPSJlbnRpdHkiIGRhdGEtZW50aXR5PSJDVFJlZ3VsYXIiIGRhdGEtc291cmNlLWxpbmU9IjczIiBkYXRhLXVpZD0iZW50MDAwOSIgaWQ9ImVudGl0eV9DVFJlZ3VsYXIiPjxyZWN0IGZpbGw9IiMzQzNGNDEiIGhlaWdodD0iMTM3LjkwNjMiIHJ4PSIyLjUiIHJ5PSIyLjUiIHN0eWxlPSJzdHJva2U6IzY2OTlDQztzdHJva2Utd2lkdGg6MC41OyIgd2lkdGg9IjY3MCIgeD0iMjI3MCIgeT0iMTUxOCIvPjxlbGxpcHNlIGN4PSIyNTY5LjI1IiBjeT0iMTUzNCIgZmlsbD0iI0FERDFCMiIgcng9IjExIiByeT0iMTEiIHN0eWxlPSJzdHJva2U6IzE4MTgxODtzdHJva2Utd2lkdGg6MTsiLz48cGF0aCBkPSJNMjU2Ni44NzUsMTUzOC4yNSBMMjU2Ni44NzUsMTU0MCBMMjU3MS44MTI1LDE1NDAgTDI1NzEuODEyNSwxNTM4LjI1IEwyNTY2Ljg3NSwxNTM4LjI1IFogTTI1NjcuNTYyNSwxNTM4LjkzNzUgUTI1NjcuNTYyNSwxNTM4LjkzNzUgMjU2Ny41NjI1LDE1MjkuNzUgTDI1NjUuODEyNSwxNTI5Ljc1IFEyNTY1LjgxMjUsMTUyOS43NSAyNTY1LjgxMjUsMTUzOC45Mzc1IEwyNTY3LjU2MjUsMTUzOC45Mzc1IFogTTI1NzEuMTI1LDE1MzguOTM3NSBMMjU3Mi44NzUsMTUzOC45Mzc1IFEyNTcyLjg3NSwxNTM4LjkzNzUgMjU3Mi44NzUsMTUzNi4xMjUgTDI1NzEuMTI1LDE1MzYuMTI1IFEyNTcxLjEyNSwxNTM2LjEyNSAyNTcxLjEyNSwxNTM4LjkzNzUgWiBNMjU3MS4xMjUsMTUyOS43NSBRMjU3MS4xMjUsMTUyOS43NSAyNTcxLjEyNSwxNTMyLjU2MjUgTDI1NzIuODc1LDE1MzIuNTYyNSBRMjU3Mi44NzUsMTUzMi41NjI1IDI1NzIuODc1LDE1MjkuNzUgTDI1NzEuMTI1LDE1MjkuNzUgWiBNMjU2Ni44NzUsMTUzMC40Mzc1IEwyNTcxLjgxMjUsMTUzMC40Mzc1IEwyNTcxLjgxMjUsMTUyOC42ODc1IEwyNTY2Ljg3NSwxNTI4LjY4NzUgTDI1NjYuODc1LDE1MzAuNDM3NSBaICIgZmlsbD0iIzAwMDAwMCIvPjx0ZXh0IGZpbGw9IiNGRkZGRkYiIGZvbnQtZmFtaWx5PSJzYW5zLXNlcmlmIiBmb250LXNpemU9IjE0IiBsZW5ndGhBZGp1c3Q9InNwYWNpbmciIHRleHRMZW5ndGg9IjYzIiB4PSIyNTg5Ljc1IiB5PSIxNTM5Ljc0MjIiPkNUUmVndWxhcjwvdGV4dD48bGluZSBzdHlsZT0ic3Ryb2tlOiM2Njk5Q0M7c3Ryb2tlLXdpZHRoOjAuNTsiIHgxPSIyMjcxIiB4Mj0iMjkzOSIgeTE9IjE1NTAiIHkyPSIxNTUwIi8+PGxpbmUgc3R5bGU9InN0cm9rZTojNjY5OUNDO3N0cm9rZS13aWR0aDowLjU7IiB4MT0iMjI3MSIgeDI9IjI5MzkiIHkxPSIxNTU4IiB5Mj0iMTU1OCIvPjxlbGxpcHNlIGN4PSIyMjgxIiBjeT0iMTU3MC45OTIyIiBmaWxsPSIjODRCRTg0IiByeD0iMyIgcnk9IjMiIHN0eWxlPSJzdHJva2U6IzAzODA0ODtzdHJva2Utd2lkdGg6MTsiLz48dGV4dCBmaWxsPSIjMDAwMDAwIiBmb250LWZhbWlseT0ic2Fucy1zZXJpZiIgZm9udC1zaXplPSIxNCIgbGVuZ3RoQWRqdXN0PSJzcGFjaW5nIiB0ZXh0TGVuZ3RoPSIyMTciIHg9IjIyOTAiIHk9IjE1NzUuMjM0NCI+JiMxNzE7Y3JlYXRlJiMxODc7IENUUmVndWxhcihTdHJpbmcgbmFtZSk8L3RleHQ+PGVsbGlwc2UgY3g9IjIyODEiIGN5PSIxNTg1Ljk3NjYiIGZpbGw9IiM4NEJFODQiIHJ4PSIzIiByeT0iMyIgc3R5bGU9InN0cm9rZTojMDM4MDQ4O3N0cm9rZS13aWR0aDoxOyIvPjx0ZXh0IGZpbGw9IiMwMDAwMDAiIGZvbnQtZmFtaWx5PSJzYW5zLXNlcmlmIiBmb250LXNpemU9IjE0IiBsZW5ndGhBZGp1c3Q9InNwYWNpbmciIHRleHRMZW5ndGg9IjQxMyIgeD0iMjI5MCIgeT0iMTU5MC4yMTg4Ij4mIzE3MTtjcmVhdGUmIzE4NzsgQ1RSZWd1bGFyKFN0cmluZyBuYW1lLCBTdHJpbmcgZW1haWwsIFN0cmluZyBwaG9uZSk8L3RleHQ+PGVsbGlwc2UgY3g9IjIyODEiIGN5PSIxNjAwLjk2MDkiIGZpbGw9IiM4NEJFODQiIHJ4PSIzIiByeT0iMyIgc3R5bGU9InN0cm9rZTojMDM4MDQ4O3N0cm9rZS13aWR0aDoxOyIvPjx0ZXh0IGZpbGw9IiMwMDAwMDAiIGZvbnQtZmFtaWx5PSJzYW5zLXNlcmlmIiBmb250LXNpemU9IjE0IiBsZW5ndGhBZGp1c3Q9InNwYWNpbmciIHRleHRMZW5ndGg9IjY0NCIgeD0iMjI5MCIgeT0iMTYwNS4yMDMxIj4mIzE3MTtjcmVhdGUmIzE4NzsgQ1RSZWd1bGFyKFN0cmluZyBpZCwgU3RyaW5nIG5hbWUsIFN0cmluZyBlbWFpbCwgU3RyaW5nIHBob25lLCBkb3VibGUgbG95YWx0eVBvaW50cyk8L3RleHQ+PGVsbGlwc2UgY3g9IjIyODEiIGN5PSIxNjE1Ljk0NTMiIGZpbGw9IiM4NEJFODQiIHJ4PSIzIiByeT0iMyIgc3R5bGU9InN0cm9rZTojMDM4MDQ4O3N0cm9rZS13aWR0aDoxOyIvPjx0ZXh0IGZpbGw9IiMwMDAwMDAiIGZvbnQtZmFtaWx5PSJzYW5zLXNlcmlmIiBmb250LXNpemU9IjE0IiBsZW5ndGhBZGp1c3Q9InNwYWNpbmciIHRleHRMZW5ndGg9IjEzMyIgeD0iMjI5MCIgeT0iMTYyMC4xODc1Ij5Qb2ludFJhdGUoKTogRG91YmxlPC90ZXh0PjxlbGxpcHNlIGN4PSIyMjgxIiBjeT0iMTYzMC45Mjk3IiBmaWxsPSIjODRCRTg0IiByeD0iMyIgcnk9IjMiIHN0eWxlPSJzdHJva2U6IzAzODA0ODtzdHJva2Utd2lkdGg6MTsiLz48dGV4dCBmaWxsPSIjMDAwMDAwIiBmb250LWZhbWlseT0ic2Fucy1zZXJpZiIgZm9udC1zaXplPSIxNCIgbGVuZ3RoQWRqdXN0PSJzcGFjaW5nIiB0ZXh0TGVuZ3RoPSIxNTQiIHg9IjIyOTAiIHk9IjE2MzUuMTcxOSI+RGlzY291bnRSYXRlKCk6IERvdWJsZTwvdGV4dD48ZWxsaXBzZSBjeD0iMjI4MSIgY3k9IjE2NDUuOTE0MSIgZmlsbD0iIzg0QkU4NCIgcng9IjMiIHJ5PSIzIiBzdHlsZT0ic3Ryb2tlOiMwMzgwNDg7c3Ryb2tlLXdpZHRoOjE7Ii8+PHRleHQgZmlsbD0iIzAwMDAwMCIgZm9udC1mYW1pbHk9InNhbnMtc2VyaWYiIGZvbnQtc2l6ZT0iMTQiIGxlbmd0aEFkanVzdD0ic3BhY2luZyIgdGV4dExlbmd0aD0iMTg5IiB4PSIyMjkwIiB5PSIxNjUwLjE1NjMiPlN1YnNjcmlwdGlvblByaWNlKCk6IERvdWJsZTwvdGV4dD48L2c+PCEtLWNsYXNzIENUVklQLS0+PGcgY2xhc3M9ImVudGl0eSIgZGF0YS1lbnRpdHk9IkNUVklQIiBkYXRhLXNvdXJjZS1saW5lPSI4MiIgZGF0YS11aWQ9ImVudDAwMTAiIGlkPSJlbnRpdHlfQ1RWSVAiPjxyZWN0IGZpbGw9IiMzQzNGNDEiIGhlaWdodD0iMTM3LjkwNjMiIHJ4PSIyLjUiIHJ5PSIyLjUiIHN0eWxlPSJzdHJva2U6IzY2OTlDQztzdHJva2Utd2lkdGg6MC41OyIgd2lkdGg9IjY0MiIgeD0iMjk3NSIgeT0iMTUxOCIvPjxlbGxpcHNlIGN4PSIzMjc0LjI1IiBjeT0iMTUzNCIgZmlsbD0iI0FERDFCMiIgcng9IjExIiByeT0iMTEiIHN0eWxlPSJzdHJva2U6IzE4MTgxODtzdHJva2Utd2lkdGg6MTsiLz48cGF0aCBkPSJNMzI3MS44NzUsMTUzOC4yNSBMMzI3MS44NzUsMTU0MCBMMzI3Ni44MTI1LDE1NDAgTDMyNzYuODEyNSwxNTM4LjI1IEwzMjcxLjg3NSwxNTM4LjI1IFogTTMyNzIuNTYyNSwxNTM4LjkzNzUgUTMyNzIuNTYyNSwxNTM4LjkzNzUgMzI3Mi41NjI1LDE1MjkuNzUgTDMyNzAuODEyNSwxNTI5Ljc1IFEzMjcwLjgxMjUsMTUyOS43NSAzMjcwLjgxMjUsMTUzOC45Mzc1IEwzMjcyLjU2MjUsMTUzOC45Mzc1IFogTTMyNzYuMTI1LDE1MzguOTM3NSBMMzI3Ny44NzUsMTUzOC45Mzc1IFEzMjc3Ljg3NSwxNTM4LjkzNzUgMzI3Ny44NzUsMTUzNi4xMjUgTDMyNzYuMTI1LDE1MzYuMTI1IFEzMjc2LjEyNSwxNTM2LjEyNSAzMjc2LjEyNSwxNTM4LjkzNzUgWiBNMzI3Ni4xMjUsMTUyOS43NSBRMzI3Ni4xMjUsMTUyOS43NSAzMjc2LjEyNSwxNTMyLjU2MjUgTDMyNzcuODc1LDE1MzIuNTYyNSBRMzI3Ny44NzUsMTUzMi41NjI1IDMyNzcuODc1LDE1MjkuNzUgTDMyNzYuMTI1LDE1MjkuNzUgWiBNMzI3MS44NzUsMTUzMC40Mzc1IEwzMjc2LjgxMjUsMTUzMC40Mzc1IEwzMjc2LjgxMjUsMTUyOC42ODc1IEwzMjcxLjg3NSwxNTI4LjY4NzUgTDMyNzEuODc1LDE1MzAuNDM3NSBaICIgZmlsbD0iIzAwMDAwMCIvPjx0ZXh0IGZpbGw9IiNGRkZGRkYiIGZvbnQtZmFtaWx5PSJzYW5zLXNlcmlmIiBmb250LXNpemU9IjE0IiBsZW5ndGhBZGp1c3Q9InNwYWNpbmciIHRleHRMZW5ndGg9IjM1IiB4PSIzMjk0Ljc1IiB5PSIxNTM5Ljc0MjIiPkNUVklQPC90ZXh0PjxsaW5lIHN0eWxlPSJzdHJva2U6IzY2OTlDQztzdHJva2Utd2lkdGg6MC41OyIgeDE9IjI5NzYiIHgyPSIzNjE2IiB5MT0iMTU1MCIgeTI9IjE1NTAiLz48bGluZSBzdHlsZT0ic3Ryb2tlOiM2Njk5Q0M7c3Ryb2tlLXdpZHRoOjAuNTsiIHgxPSIyOTc2IiB4Mj0iMzYxNiIgeTE9IjE1NTgiIHkyPSIxNTU4Ii8+PGVsbGlwc2UgY3g9IjI5ODYiIGN5PSIxNTcwLjk5MjIiIGZpbGw9IiM4NEJFODQiIHJ4PSIzIiByeT0iMyIgc3R5bGU9InN0cm9rZTojMDM4MDQ4O3N0cm9rZS13aWR0aDoxOyIvPjx0ZXh0IGZpbGw9IiMwMDAwMDAiIGZvbnQtZmFtaWx5PSJzYW5zLXNlcmlmIiBmb250LXNpemU9IjE0IiBsZW5ndGhBZGp1c3Q9InNwYWNpbmciIHRleHRMZW5ndGg9IjE4OSIgeD0iMjk5NSIgeT0iMTU3NS4yMzQ0Ij4mIzE3MTtjcmVhdGUmIzE4NzsgQ1RWSVAoU3RyaW5nIG5hbWUpPC90ZXh0PjxlbGxpcHNlIGN4PSIyOTg2IiBjeT0iMTU4NS45NzY2IiBmaWxsPSIjODRCRTg0IiByeD0iMyIgcnk9IjMiIHN0eWxlPSJzdHJva2U6IzAzODA0ODtzdHJva2Utd2lkdGg6MTsiLz48dGV4dCBmaWxsPSIjMDAwMDAwIiBmb250LWZhbWlseT0ic2Fucy1zZXJpZiIgZm9udC1zaXplPSIxNCIgbGVuZ3RoQWRqdXN0PSJzcGFjaW5nIiB0ZXh0TGVuZ3RoPSIzODUiIHg9IjI5OTUiIHk9IjE1OTAuMjE4OCI+JiMxNzE7Y3JlYXRlJiMxODc7IENUVklQKFN0cmluZyBuYW1lLCBTdHJpbmcgZW1haWwsIFN0cmluZyBwaG9uZSk8L3RleHQ+PGVsbGlwc2UgY3g9IjI5ODYiIGN5PSIxNjAwLjk2MDkiIGZpbGw9IiM4NEJFODQiIHJ4PSIzIiByeT0iMyIgc3R5bGU9InN0cm9rZTojMDM4MDQ4O3N0cm9rZS13aWR0aDoxOyIvPjx0ZXh0IGZpbGw9IiMwMDAwMDAiIGZvbnQtZmFtaWx5PSJzYW5zLXNlcmlmIiBmb250LXNpemU9IjE0IiBsZW5ndGhBZGp1c3Q9InNwYWNpbmciIHRleHRMZW5ndGg9IjYxNiIgeD0iMjk5NSIgeT0iMTYwNS4yMDMxIj4mIzE3MTtjcmVhdGUmIzE4NzsgQ1RWSVAoU3RyaW5nIGlkLCBTdHJpbmcgbmFtZSwgU3RyaW5nIGVtYWlsLCBTdHJpbmcgcGhvbmUsIGRvdWJsZSBsb3lhbHR5UG9pbnRzKTwvdGV4dD48ZWxsaXBzZSBjeD0iMjk4NiIgY3k9IjE2MTUuOTQ1MyIgZmlsbD0iIzg0QkU4NCIgcng9IjMiIHJ5PSIzIiBzdHlsZT0ic3Ryb2tlOiMwMzgwNDg7c3Ryb2tlLXdpZHRoOjE7Ii8+PHRleHQgZmlsbD0iIzAwMDAwMCIgZm9udC1mYW1pbHk9InNhbnMtc2VyaWYiIGZvbnQtc2l6ZT0iMTQiIGxlbmd0aEFkanVzdD0ic3BhY2luZyIgdGV4dExlbmd0aD0iMTMzIiB4PSIyOTk1IiB5PSIxNjIwLjE4NzUiPlBvaW50UmF0ZSgpOiBEb3VibGU8L3RleHQ+PGVsbGlwc2UgY3g9IjI5ODYiIGN5PSIxNjMwLjkyOTciIGZpbGw9IiM4NEJFODQiIHJ4PSIzIiByeT0iMyIgc3R5bGU9InN0cm9rZTojMDM4MDQ4O3N0cm9rZS13aWR0aDoxOyIvPjx0ZXh0IGZpbGw9IiMwMDAwMDAiIGZvbnQtZmFtaWx5PSJzYW5zLXNlcmlmIiBmb250LXNpemU9IjE0IiBsZW5ndGhBZGp1c3Q9InNwYWNpbmciIHRleHRMZW5ndGg9IjE1NCIgeD0iMjk5NSIgeT0iMTYzNS4xNzE5Ij5EaXNjb3VudFJhdGUoKTogRG91YmxlPC90ZXh0PjxlbGxpcHNlIGN4PSIyOTg2IiBjeT0iMTY0NS45MTQxIiBmaWxsPSIjODRCRTg0IiByeD0iMyIgcnk9IjMiIHN0eWxlPSJzdHJva2U6IzAzODA0ODtzdHJva2Utd2lkdGg6MTsiLz48dGV4dCBmaWxsPSIjMDAwMDAwIiBmb250LWZhbWlseT0ic2Fucy1zZXJpZiIgZm9udC1zaXplPSIxNCIgbGVuZ3RoQWRqdXN0PSJzcGFjaW5nIiB0ZXh0TGVuZ3RoPSIxODkiIHg9IjI5OTUiIHk9IjE2NTAuMTU2MyI+U3Vic2NyaXB0aW9uUHJpY2UoKTogRG91YmxlPC90ZXh0PjwvZz48IS0tY2xhc3MgQmV2ZXJhZ2UtLT48ZyBjbGFzcz0iZW50aXR5IiBkYXRhLWVudGl0eT0iQmV2ZXJhZ2UiIGRhdGEtc291cmNlLWxpbmU9IjEwMSIgZGF0YS11aWQ9ImVudDAwMTgiIGlkPSJlbnRpdHlfQmV2ZXJhZ2UiPjxyZWN0IGZpbGw9IiMzQzNGNDEiIGhlaWdodD0iMjU3Ljc4MTMiIHJ4PSIyLjUiIHJ5PSIyLjUiIHN0eWxlPSJzdHJva2U6IzY2OTlDQztzdHJva2Utd2lkdGg6MC41OyIgd2lkdGg9IjQ4MSIgeD0iMjIuNSIgeT0iMTQ1OCIvPjxlbGxpcHNlIGN4PSIyMzAuNzUiIGN5PSIxNDc0IiBmaWxsPSIjQUREMUIyIiByeD0iMTEiIHJ5PSIxMSIgc3R5bGU9InN0cm9rZTojMTgxODE4O3N0cm9rZS13aWR0aDoxOyIvPjxwYXRoIGQ9Ik0yMjguMzc1LDE0NzguMjUgTDIyOC4zNzUsMTQ4MCBMMjMzLjMxMjUsMTQ4MCBMMjMzLjMxMjUsMTQ3OC4yNSBMMjI4LjM3NSwxNDc4LjI1IFogTTIyOS4wNjI1LDE0NzguOTM3NSBRMjI5LjA2MjUsMTQ3OC45Mzc1IDIyOS4wNjI1LDE0NjkuNzUgTDIyNy4zMTI1LDE0NjkuNzUgUTIyNy4zMTI1LDE0NjkuNzUgMjI3LjMxMjUsMTQ3OC45Mzc1IEwyMjkuMDYyNSwxNDc4LjkzNzUgWiBNMjMyLjYyNSwxNDc4LjkzNzUgTDIzNC4zNzUsMTQ3OC45Mzc1IFEyMzQuMzc1LDE0NzguOTM3NSAyMzQuMzc1LDE0NzYuMTI1IEwyMzIuNjI1LDE0NzYuMTI1IFEyMzIuNjI1LDE0NzYuMTI1IDIzMi42MjUsMTQ3OC45Mzc1IFogTTIzMi42MjUsMTQ2OS43NSBRMjMyLjYyNSwxNDY5Ljc1IDIzMi42MjUsMTQ3Mi41NjI1IEwyMzQuMzc1LDE0NzIuNTYyNSBRMjM0LjM3NSwxNDcyLjU2MjUgMjM0LjM3NSwxNDY5Ljc1IEwyMzIuNjI1LDE0NjkuNzUgWiBNMjI4LjM3NSwxNDcwLjQzNzUgTDIzMy4zMTI1LDE0NzAuNDM3NSBMMjMzLjMxMjUsMTQ2OC42ODc1IEwyMjguMzc1LDE0NjguNjg3NSBMMjI4LjM3NSwxNDcwLjQzNzUgWiAiIGZpbGw9IiMwMDAwMDAiLz48dGV4dCBmaWxsPSIjRkZGRkZGIiBmb250LWZhbWlseT0ic2Fucy1zZXJpZiIgZm9udC1zaXplPSIxNCIgbGVuZ3RoQWRqdXN0PSJzcGFjaW5nIiB0ZXh0TGVuZ3RoPSI1NiIgeD0iMjUxLjI1IiB5PSIxNDc5Ljc0MjIiPkJldmVyYWdlPC90ZXh0PjxsaW5lIHN0eWxlPSJzdHJva2U6IzY2OTlDQztzdHJva2Utd2lkdGg6MC41OyIgeDE9IjIzLjUiIHgyPSI1MDIuNSIgeTE9IjE0OTAiIHkyPSIxNDkwIi8+PHJlY3QgZmlsbD0ibm9uZSIgaGVpZ2h0PSI2IiBzdHlsZT0ic3Ryb2tlOiNDODI5MzA7c3Ryb2tlLXdpZHRoOjE7IiB3aWR0aD0iNiIgeD0iMzAuNSIgeT0iMTQ5OS45OTIyIi8+PHRleHQgZmlsbD0iIzAwMDAwMCIgZm9udC1mYW1pbHk9InNhbnMtc2VyaWYiIGZvbnQtc2l6ZT0iMTQiIGxlbmd0aEFkanVzdD0ic3BhY2luZyIgdGV4dExlbmd0aD0iNDkiIHg9IjQyLjUiIHk9IjE1MDcuMjM0NCI+aWQ6IGludDwvdGV4dD48cmVjdCBmaWxsPSJub25lIiBoZWlnaHQ9IjYiIHN0eWxlPSJzdHJva2U6I0M4MjkzMDtzdHJva2Utd2lkdGg6MTsiIHdpZHRoPSI2IiB4PSIzMC41IiB5PSIxNTE0Ljk3NjYiLz48dGV4dCBmaWxsPSIjMDAwMDAwIiBmb250LWZhbWlseT0ic2Fucy1zZXJpZiIgZm9udC1zaXplPSIxNCIgbGVuZ3RoQWRqdXN0PSJzcGFjaW5nIiB0ZXh0TGVuZ3RoPSI4NCIgeD0iNDIuNSIgeT0iMTUyMi4yMTg4Ij5uYW1lOiBTdHJpbmc8L3RleHQ+PHJlY3QgZmlsbD0ibm9uZSIgaGVpZ2h0PSI2IiBzdHlsZT0ic3Ryb2tlOiNDODI5MzA7c3Ryb2tlLXdpZHRoOjE7IiB3aWR0aD0iNiIgeD0iMzAuNSIgeT0iMTUyOS45NjA5Ii8+PHRleHQgZmlsbD0iIzAwMDAwMCIgZm9udC1mYW1pbHk9InNhbnMtc2VyaWYiIGZvbnQtc2l6ZT0iMTQiIGxlbmd0aEFkanVzdD0ic3BhY2luZyIgdGV4dExlbmd0aD0iODQiIHg9IjQyLjUiIHk9IjE1MzcuMjAzMSI+c2l6ZTogU3RyaW5nPC90ZXh0PjxyZWN0IGZpbGw9Im5vbmUiIGhlaWdodD0iNiIgc3R5bGU9InN0cm9rZTojQzgyOTMwO3N0cm9rZS13aWR0aDoxOyIgd2lkdGg9IjYiIHg9IjMwLjUiIHk9IjE1NDQuOTQ1MyIvPjx0ZXh0IGZpbGw9IiMwMDAwMDAiIGZvbnQtZmFtaWx5PSJzYW5zLXNlcmlmIiBmb250LXNpemU9IjE0IiBsZW5ndGhBZGp1c3Q9InNwYWNpbmciIHRleHRMZW5ndGg9IjkxIiB4PSI0Mi41IiB5PSIxNTUyLjE4NzUiPnByaWNlOiBkb3VibGU8L3RleHQ+PGxpbmUgc3R5bGU9InN0cm9rZTojNjY5OUNDO3N0cm9rZS13aWR0aDowLjU7IiB4MT0iMjMuNSIgeDI9IjUwMi41IiB5MT0iMTU1Ny45Mzc1IiB5Mj0iMTU1Ny45Mzc1Ii8+PGVsbGlwc2UgY3g9IjMzLjUiIGN5PSIxNTcwLjkyOTciIGZpbGw9IiM4NEJFODQiIHJ4PSIzIiByeT0iMyIgc3R5bGU9InN0cm9rZTojMDM4MDQ4O3N0cm9rZS13aWR0aDoxOyIvPjx0ZXh0IGZpbGw9IiMwMDAwMDAiIGZvbnQtZmFtaWx5PSJzYW5zLXNlcmlmIiBmb250LXNpemU9IjE0IiBsZW5ndGhBZGp1c3Q9InNwYWNpbmciIHRleHRMZW5ndGg9IjEzMyIgeD0iNDIuNSIgeT0iMTU3NS4xNzE5Ij4mIzE3MTtjcmVhdGUmIzE4NzsgQmV2ZXJhZ2UoKTwvdGV4dD48ZWxsaXBzZSBjeD0iMzMuNSIgY3k9IjE1ODUuOTE0MSIgZmlsbD0iIzg0QkU4NCIgcng9IjMiIHJ5PSIzIiBzdHlsZT0ic3Ryb2tlOiMwMzgwNDg7c3Ryb2tlLXdpZHRoOjE7Ii8+PHRleHQgZmlsbD0iIzAwMDAwMCIgZm9udC1mYW1pbHk9InNhbnMtc2VyaWYiIGZvbnQtc2l6ZT0iMTQiIGxlbmd0aEFkanVzdD0ic3BhY2luZyIgdGV4dExlbmd0aD0iNDU1IiB4PSI0Mi41IiB5PSIxNTkwLjE1NjMiPiYjMTcxO2NyZWF0ZSYjMTg3OyBCZXZlcmFnZShpbnQgaWQsIFN0cmluZyBuYW1lLCBTdHJpbmcgc2l6ZSwgZG91YmxlIHByaWNlKTwvdGV4dD48ZWxsaXBzZSBjeD0iMzMuNSIgY3k9IjE2MDAuODk4NCIgZmlsbD0iIzg0QkU4NCIgcng9IjMiIHJ5PSIzIiBzdHlsZT0ic3Ryb2tlOiMwMzgwNDg7c3Ryb2tlLXdpZHRoOjE7Ii8+PHRleHQgZmlsbD0iIzAwMDAwMCIgZm9udC1mYW1pbHk9InNhbnMtc2VyaWYiIGZvbnQtc2l6ZT0iMTQiIGxlbmd0aEFkanVzdD0ic3BhY2luZyIgdGV4dExlbmd0aD0iODQiIHg9IjQyLjUiIHk9IjE2MDUuMTQwNiI+Z2V0SWQoKTogaW50PC90ZXh0PjxlbGxpcHNlIGN4PSIzMy41IiBjeT0iMTYxNS44ODI4IiBmaWxsPSIjODRCRTg0IiByeD0iMyIgcnk9IjMiIHN0eWxlPSJzdHJva2U6IzAzODA0ODtzdHJva2Utd2lkdGg6MTsiLz48dGV4dCBmaWxsPSIjMDAwMDAwIiBmb250LWZhbWlseT0ic2Fucy1zZXJpZiIgZm9udC1zaXplPSIxNCIgbGVuZ3RoQWRqdXN0PSJzcGFjaW5nIiB0ZXh0TGVuZ3RoPSIxMTkiIHg9IjQyLjUiIHk9IjE2MjAuMTI1Ij5nZXROYW1lKCk6IFN0cmluZzwvdGV4dD48ZWxsaXBzZSBjeD0iMzMuNSIgY3k9IjE2MzAuODY3MiIgZmlsbD0iIzg0QkU4NCIgcng9IjMiIHJ5PSIzIiBzdHlsZT0ic3Ryb2tlOiMwMzgwNDg7c3Ryb2tlLXdpZHRoOjE7Ii8+PHRleHQgZmlsbD0iIzAwMDAwMCIgZm9udC1mYW1pbHk9InNhbnMtc2VyaWYiIGZvbnQtc2l6ZT0iMTQiIGxlbmd0aEFkanVzdD0ic3BhY2luZyIgdGV4dExlbmd0aD0iMTA1IiB4PSI0Mi41IiB5PSIxNjM1LjEwOTQiPnNldE5hbWUoU3RyaW5nKTwvdGV4dD48ZWxsaXBzZSBjeD0iMzMuNSIgY3k9IjE2NDUuODUxNiIgZmlsbD0iIzg0QkU4NCIgcng9IjMiIHJ5PSIzIiBzdHlsZT0ic3Ryb2tlOiMwMzgwNDg7c3Ryb2tlLXdpZHRoOjE7Ii8+PHRleHQgZmlsbD0iIzAwMDAwMCIgZm9udC1mYW1pbHk9InNhbnMtc2VyaWYiIGZvbnQtc2l6ZT0iMTQiIGxlbmd0aEFkanVzdD0ic3BhY2luZyIgdGV4dExlbmd0aD0iMTE5IiB4PSI0Mi41IiB5PSIxNjUwLjA5MzgiPmdldFNpemUoKTogU3RyaW5nPC90ZXh0PjxlbGxpcHNlIGN4PSIzMy41IiBjeT0iMTY2MC44MzU5IiBmaWxsPSIjODRCRTg0IiByeD0iMyIgcnk9IjMiIHN0eWxlPSJzdHJva2U6IzAzODA0ODtzdHJva2Utd2lkdGg6MTsiLz48dGV4dCBmaWxsPSIjMDAwMDAwIiBmb250LWZhbWlseT0ic2Fucy1zZXJpZiIgZm9udC1zaXplPSIxNCIgbGVuZ3RoQWRqdXN0PSJzcGFjaW5nIiB0ZXh0TGVuZ3RoPSIxMDUiIHg9IjQyLjUiIHk9IjE2NjUuMDc4MSI+c2V0U2l6ZShTdHJpbmcpPC90ZXh0PjxlbGxpcHNlIGN4PSIzMy41IiBjeT0iMTY3NS44MjAzIiBmaWxsPSIjODRCRTg0IiByeD0iMyIgcnk9IjMiIHN0eWxlPSJzdHJva2U6IzAzODA0ODtzdHJva2Utd2lkdGg6MTsiLz48dGV4dCBmaWxsPSIjMDAwMDAwIiBmb250LWZhbWlseT0ic2Fucy1zZXJpZiIgZm9udC1zaXplPSIxNCIgbGVuZ3RoQWRqdXN0PSJzcGFjaW5nIiB0ZXh0TGVuZ3RoPSIxMjYiIHg9IjQyLjUiIHk9IjE2ODAuMDYyNSI+Z2V0UHJpY2UoKTogZG91YmxlPC90ZXh0PjxlbGxpcHNlIGN4PSIzMy41IiBjeT0iMTY5MC44MDQ3IiBmaWxsPSIjODRCRTg0IiByeD0iMyIgcnk9IjMiIHN0eWxlPSJzdHJva2U6IzAzODA0ODtzdHJva2Utd2lkdGg6MTsiLz48dGV4dCBmaWxsPSIjMDAwMDAwIiBmb250LWZhbWlseT0ic2Fucy1zZXJpZiIgZm9udC1zaXplPSIxNCIgbGVuZ3RoQWRqdXN0PSJzcGFjaW5nIiB0ZXh0TGVuZ3RoPSIxMTIiIHg9IjQyLjUiIHk9IjE2OTUuMDQ2OSI+c2V0UHJpY2UoZG91YmxlKTwvdGV4dD48ZWxsaXBzZSBjeD0iMzMuNSIgY3k9IjE3MDUuNzg5MSIgZmlsbD0iIzg0QkU4NCIgcng9IjMiIHJ5PSIzIiBzdHlsZT0ic3Ryb2tlOiMwMzgwNDg7c3Ryb2tlLXdpZHRoOjE7Ii8+PHRleHQgZmlsbD0iIzAwMDAwMCIgZm9udC1mYW1pbHk9InNhbnMtc2VyaWYiIGZvbnQtc2l6ZT0iMTQiIGxlbmd0aEFkanVzdD0ic3BhY2luZyIgdGV4dExlbmd0aD0iMTQ3IiB4PSI0Mi41IiB5PSIxNzEwLjAzMTMiPmdldENhdGVnb3J5KCk6IFN0cmluZzwvdGV4dD48L2c+PCEtLWNsYXNzIERlc3NlcnQtLT48ZyBjbGFzcz0iZW50aXR5IiBkYXRhLWVudGl0eT0iRGVzc2VydCIgZGF0YS1zb3VyY2UtbGluZT0iMTE4IiBkYXRhLXVpZD0iZW50MDAxOSIgaWQ9ImVudGl0eV9EZXNzZXJ0Ij48cmVjdCBmaWxsPSIjM0MzRjQxIiBoZWlnaHQ9IjI1Ny43ODEzIiByeD0iMi41IiByeT0iMi41IiBzdHlsZT0ic3Ryb2tlOiM2Njk5Q0M7c3Ryb2tlLXdpZHRoOjAuNTsiIHdpZHRoPSI0NzQiIHg9IjUzOSIgeT0iMTQ1OCIvPjxlbGxpcHNlIGN4PSI3NDcuMjUiIGN5PSIxNDc0IiBmaWxsPSIjQUREMUIyIiByeD0iMTEiIHJ5PSIxMSIgc3R5bGU9InN0cm9rZTojMTgxODE4O3N0cm9rZS13aWR0aDoxOyIvPjxwYXRoIGQ9Ik03NDQuODc1LDE0NzguMjUgTDc0NC44NzUsMTQ4MCBMNzQ5LjgxMjUsMTQ4MCBMNzQ5LjgxMjUsMTQ3OC4yNSBMNzQ0Ljg3NSwxNDc4LjI1IFogTTc0NS41NjI1LDE0NzguOTM3NSBRNzQ1LjU2MjUsMTQ3OC45Mzc1IDc0NS41NjI1LDE0NjkuNzUgTDc0My44MTI1LDE0NjkuNzUgUTc0My44MTI1LDE0NjkuNzUgNzQzLjgxMjUsMTQ3OC45Mzc1IEw3NDUuNTYyNSwxNDc4LjkzNzUgWiBNNzQ5LjEyNSwxNDc4LjkzNzUgTDc1MC44NzUsMTQ3OC45Mzc1IFE3NTAuODc1LDE0NzguOTM3NSA3NTAuODc1LDE0NzYuMTI1IEw3NDkuMTI1LDE0NzYuMTI1IFE3NDkuMTI1LDE0NzYuMTI1IDc0OS4xMjUsMTQ3OC45Mzc1IFogTTc0OS4xMjUsMTQ2OS43NSBRNzQ5LjEyNSwxNDY5Ljc1IDc0OS4xMjUsMTQ3Mi41NjI1IEw3NTAuODc1LDE0NzIuNTYyNSBRNzUwLjg3NSwxNDcyLjU2MjUgNzUwLjg3NSwxNDY5Ljc1IEw3NDkuMTI1LDE0NjkuNzUgWiBNNzQ0Ljg3NSwxNDcwLjQzNzUgTDc0OS44MTI1LDE0NzAuNDM3NSBMNzQ5LjgxMjUsMTQ2OC42ODc1IEw3NDQuODc1LDE0NjguNjg3NSBMNzQ0Ljg3NSwxNDcwLjQzNzUgWiAiIGZpbGw9IiMwMDAwMDAiLz48dGV4dCBmaWxsPSIjRkZGRkZGIiBmb250LWZhbWlseT0ic2Fucy1zZXJpZiIgZm9udC1zaXplPSIxNCIgbGVuZ3RoQWRqdXN0PSJzcGFjaW5nIiB0ZXh0TGVuZ3RoPSI0OSIgeD0iNzY3Ljc1IiB5PSIxNDc5Ljc0MjIiPkRlc3NlcnQ8L3RleHQ+PGxpbmUgc3R5bGU9InN0cm9rZTojNjY5OUNDO3N0cm9rZS13aWR0aDowLjU7IiB4MT0iNTQwIiB4Mj0iMTAxMiIgeTE9IjE0OTAiIHkyPSIxNDkwIi8+PHJlY3QgZmlsbD0ibm9uZSIgaGVpZ2h0PSI2IiBzdHlsZT0ic3Ryb2tlOiNDODI5MzA7c3Ryb2tlLXdpZHRoOjE7IiB3aWR0aD0iNiIgeD0iNTQ3IiB5PSIxNDk5Ljk5MjIiLz48dGV4dCBmaWxsPSIjMDAwMDAwIiBmb250LWZhbWlseT0ic2Fucy1zZXJpZiIgZm9udC1zaXplPSIxNCIgbGVuZ3RoQWRqdXN0PSJzcGFjaW5nIiB0ZXh0TGVuZ3RoPSI0OSIgeD0iNTU5IiB5PSIxNTA3LjIzNDQiPmlkOiBpbnQ8L3RleHQ+PHJlY3QgZmlsbD0ibm9uZSIgaGVpZ2h0PSI2IiBzdHlsZT0ic3Ryb2tlOiNDODI5MzA7c3Ryb2tlLXdpZHRoOjE7IiB3aWR0aD0iNiIgeD0iNTQ3IiB5PSIxNTE0Ljk3NjYiLz48dGV4dCBmaWxsPSIjMDAwMDAwIiBmb250LWZhbWlseT0ic2Fucy1zZXJpZiIgZm9udC1zaXplPSIxNCIgbGVuZ3RoQWRqdXN0PSJzcGFjaW5nIiB0ZXh0TGVuZ3RoPSI4NCIgeD0iNTU5IiB5PSIxNTIyLjIxODgiPm5hbWU6IFN0cmluZzwvdGV4dD48cmVjdCBmaWxsPSJub25lIiBoZWlnaHQ9IjYiIHN0eWxlPSJzdHJva2U6I0M4MjkzMDtzdHJva2Utd2lkdGg6MTsiIHdpZHRoPSI2IiB4PSI1NDciIHk9IjE1MjkuOTYwOSIvPjx0ZXh0IGZpbGw9IiMwMDAwMDAiIGZvbnQtZmFtaWx5PSJzYW5zLXNlcmlmIiBmb250LXNpemU9IjE0IiBsZW5ndGhBZGp1c3Q9InNwYWNpbmciIHRleHRMZW5ndGg9Ijg0IiB4PSI1NTkiIHk9IjE1MzcuMjAzMSI+c2l6ZTogU3RyaW5nPC90ZXh0PjxyZWN0IGZpbGw9Im5vbmUiIGhlaWdodD0iNiIgc3R5bGU9InN0cm9rZTojQzgyOTMwO3N0cm9rZS13aWR0aDoxOyIgd2lkdGg9IjYiIHg9IjU0NyIgeT0iMTU0NC45NDUzIi8+PHRleHQgZmlsbD0iIzAwMDAwMCIgZm9udC1mYW1pbHk9InNhbnMtc2VyaWYiIGZvbnQtc2l6ZT0iMTQiIGxlbmd0aEFkanVzdD0ic3BhY2luZyIgdGV4dExlbmd0aD0iOTEiIHg9IjU1OSIgeT0iMTU1Mi4xODc1Ij5wcmljZTogZG91YmxlPC90ZXh0PjxsaW5lIHN0eWxlPSJzdHJva2U6IzY2OTlDQztzdHJva2Utd2lkdGg6MC41OyIgeDE9IjU0MCIgeDI9IjEwMTIiIHkxPSIxNTU3LjkzNzUiIHkyPSIxNTU3LjkzNzUiLz48ZWxsaXBzZSBjeD0iNTUwIiBjeT0iMTU3MC45Mjk3IiBmaWxsPSIjODRCRTg0IiByeD0iMyIgcnk9IjMiIHN0eWxlPSJzdHJva2U6IzAzODA0ODtzdHJva2Utd2lkdGg6MTsiLz48dGV4dCBmaWxsPSIjMDAwMDAwIiBmb250LWZhbWlseT0ic2Fucy1zZXJpZiIgZm9udC1zaXplPSIxNCIgbGVuZ3RoQWRqdXN0PSJzcGFjaW5nIiB0ZXh0TGVuZ3RoPSIxMjYiIHg9IjU1OSIgeT0iMTU3NS4xNzE5Ij4mIzE3MTtjcmVhdGUmIzE4NzsgRGVzc2VydCgpPC90ZXh0PjxlbGxpcHNlIGN4PSI1NTAiIGN5PSIxNTg1LjkxNDEiIGZpbGw9IiM4NEJFODQiIHJ4PSIzIiByeT0iMyIgc3R5bGU9InN0cm9rZTojMDM4MDQ4O3N0cm9rZS13aWR0aDoxOyIvPjx0ZXh0IGZpbGw9IiMwMDAwMDAiIGZvbnQtZmFtaWx5PSJzYW5zLXNlcmlmIiBmb250LXNpemU9IjE0IiBsZW5ndGhBZGp1c3Q9InNwYWNpbmciIHRleHRMZW5ndGg9IjQ0OCIgeD0iNTU5IiB5PSIxNTkwLjE1NjMiPiYjMTcxO2NyZWF0ZSYjMTg3OyBEZXNzZXJ0KGludCBpZCwgU3RyaW5nIG5hbWUsIFN0cmluZyBzaXplLCBkb3VibGUgcHJpY2UpPC90ZXh0PjxlbGxpcHNlIGN4PSI1NTAiIGN5PSIxNjAwLjg5ODQiIGZpbGw9IiM4NEJFODQiIHJ4PSIzIiByeT0iMyIgc3R5bGU9InN0cm9rZTojMDM4MDQ4O3N0cm9rZS13aWR0aDoxOyIvPjx0ZXh0IGZpbGw9IiMwMDAwMDAiIGZvbnQtZmFtaWx5PSJzYW5zLXNlcmlmIiBmb250LXNpemU9IjE0IiBsZW5ndGhBZGp1c3Q9InNwYWNpbmciIHRleHRMZW5ndGg9Ijg0IiB4PSI1NTkiIHk9IjE2MDUuMTQwNiI+Z2V0SWQoKTogaW50PC90ZXh0PjxlbGxpcHNlIGN4PSI1NTAiIGN5PSIxNjE1Ljg4MjgiIGZpbGw9IiM4NEJFODQiIHJ4PSIzIiByeT0iMyIgc3R5bGU9InN0cm9rZTojMDM4MDQ4O3N0cm9rZS13aWR0aDoxOyIvPjx0ZXh0IGZpbGw9IiMwMDAwMDAiIGZvbnQtZmFtaWx5PSJzYW5zLXNlcmlmIiBmb250LXNpemU9IjE0IiBsZW5ndGhBZGp1c3Q9InNwYWNpbmciIHRleHRMZW5ndGg9IjExOSIgeD0iNTU5IiB5PSIxNjIwLjEyNSI+Z2V0TmFtZSgpOiBTdHJpbmc8L3RleHQ+PGVsbGlwc2UgY3g9IjU1MCIgY3k9IjE2MzAuODY3MiIgZmlsbD0iIzg0QkU4NCIgcng9IjMiIHJ5PSIzIiBzdHlsZT0ic3Ryb2tlOiMwMzgwNDg7c3Ryb2tlLXdpZHRoOjE7Ii8+PHRleHQgZmlsbD0iIzAwMDAwMCIgZm9udC1mYW1pbHk9InNhbnMtc2VyaWYiIGZvbnQtc2l6ZT0iMTQiIGxlbmd0aEFkanVzdD0ic3BhY2luZyIgdGV4dExlbmd0aD0iMTA1IiB4PSI1NTkiIHk9IjE2MzUuMTA5NCI+c2V0TmFtZShTdHJpbmcpPC90ZXh0PjxlbGxpcHNlIGN4PSI1NTAiIGN5PSIxNjQ1Ljg1MTYiIGZpbGw9IiM4NEJFODQiIHJ4PSIzIiByeT0iMyIgc3R5bGU9InN0cm9rZTojMDM4MDQ4O3N0cm9rZS13aWR0aDoxOyIvPjx0ZXh0IGZpbGw9IiMwMDAwMDAiIGZvbnQtZmFtaWx5PSJzYW5zLXNlcmlmIiBmb250LXNpemU9IjE0IiBsZW5ndGhBZGp1c3Q9InNwYWNpbmciIHRleHRMZW5ndGg9IjExOSIgeD0iNTU5IiB5PSIxNjUwLjA5MzgiPmdldFNpemUoKTogU3RyaW5nPC90ZXh0PjxlbGxpcHNlIGN4PSI1NTAiIGN5PSIxNjYwLjgzNTkiIGZpbGw9IiM4NEJFODQiIHJ4PSIzIiByeT0iMyIgc3R5bGU9InN0cm9rZTojMDM4MDQ4O3N0cm9rZS13aWR0aDoxOyIvPjx0ZXh0IGZpbGw9IiMwMDAwMDAiIGZvbnQtZmFtaWx5PSJzYW5zLXNlcmlmIiBmb250LXNpemU9IjE0IiBsZW5ndGhBZGp1c3Q9InNwYWNpbmciIHRleHRMZW5ndGg9IjEwNSIgeD0iNTU5IiB5PSIxNjY1LjA3ODEiPnNldFNpemUoU3RyaW5nKTwvdGV4dD48ZWxsaXBzZSBjeD0iNTUwIiBjeT0iMTY3NS44MjAzIiBmaWxsPSIjODRCRTg0IiByeD0iMyIgcnk9IjMiIHN0eWxlPSJzdHJva2U6IzAzODA0ODtzdHJva2Utd2lkdGg6MTsiLz48dGV4dCBmaWxsPSIjMDAwMDAwIiBmb250LWZhbWlseT0ic2Fucy1zZXJpZiIgZm9udC1zaXplPSIxNCIgbGVuZ3RoQWRqdXN0PSJzcGFjaW5nIiB0ZXh0TGVuZ3RoPSIxMjYiIHg9IjU1OSIgeT0iMTY4MC4wNjI1Ij5nZXRQcmljZSgpOiBkb3VibGU8L3RleHQ+PGVsbGlwc2UgY3g9IjU1MCIgY3k9IjE2OTAuODA0NyIgZmlsbD0iIzg0QkU4NCIgcng9IjMiIHJ5PSIzIiBzdHlsZT0ic3Ryb2tlOiMwMzgwNDg7c3Ryb2tlLXdpZHRoOjE7Ii8+PHRleHQgZmlsbD0iIzAwMDAwMCIgZm9udC1mYW1pbHk9InNhbnMtc2VyaWYiIGZvbnQtc2l6ZT0iMTQiIGxlbmd0aEFkanVzdD0ic3BhY2luZyIgdGV4dExlbmd0aD0iMTEyIiB4PSI1NTkiIHk9IjE2OTUuMDQ2OSI+c2V0UHJpY2UoZG91YmxlKTwvdGV4dD48ZWxsaXBzZSBjeD0iNTUwIiBjeT0iMTcwNS43ODkxIiBmaWxsPSIjODRCRTg0IiByeD0iMyIgcnk9IjMiIHN0eWxlPSJzdHJva2U6IzAzODA0ODtzdHJva2Utd2lkdGg6MTsiLz48dGV4dCBmaWxsPSIjMDAwMDAwIiBmb250LWZhbWlseT0ic2Fucy1zZXJpZiIgZm9udC1zaXplPSIxNCIgbGVuZ3RoQWRqdXN0PSJzcGFjaW5nIiB0ZXh0TGVuZ3RoPSIxNDciIHg9IjU1OSIgeT0iMTcxMC4wMzEzIj5nZXRDYXRlZ29yeSgpOiBTdHJpbmc8L3RleHQ+PC9nPjwhLS1jbGFzcyBEaXNoLS0+PGcgY2xhc3M9ImVudGl0eSIgZGF0YS1lbnRpdHk9IkRpc2giIGRhdGEtc291cmNlLWxpbmU9IjEzNSIgZGF0YS11aWQ9ImVudDAwMjAiIGlkPSJlbnRpdHlfRGlzaCI+PHJlY3QgZmlsbD0iIzNDM0Y0MSIgaGVpZ2h0PSIyMTIuODI4MSIgcng9IjIuNSIgcnk9IjIuNSIgc3R5bGU9InN0cm9rZTojNjY5OUNDO3N0cm9rZS13aWR0aDowLjU7IiB3aWR0aD0iNDY3IiB4PSIxMDQ4LjUiIHk9IjE0ODAuNSIvPjxlbGxpcHNlIGN4PSIxMjYzLjc1IiBjeT0iMTQ5Ni41IiBmaWxsPSIjQUREMUIyIiByeD0iMTEiIHJ5PSIxMSIgc3R5bGU9InN0cm9rZTojMTgxODE4O3N0cm9rZS13aWR0aDoxOyIvPjxwYXRoIGQ9Ik0xMjYxLjM3NSwxNTAwLjc1IEwxMjYxLjM3NSwxNTAyLjUgTDEyNjYuMzEyNSwxNTAyLjUgTDEyNjYuMzEyNSwxNTAwLjc1IEwxMjYxLjM3NSwxNTAwLjc1IFogTTEyNjIuMDYyNSwxNTAxLjQzNzUgUTEyNjIuMDYyNSwxNTAxLjQzNzUgMTI2Mi4wNjI1LDE0OTIuMjUgTDEyNjAuMzEyNSwxNDkyLjI1IFExMjYwLjMxMjUsMTQ5Mi4yNSAxMjYwLjMxMjUsMTUwMS40Mzc1IEwxMjYyLjA2MjUsMTUwMS40Mzc1IFogTTEyNjUuNjI1LDE1MDEuNDM3NSBMMTI2Ny4zNzUsMTUwMS40Mzc1IFExMjY3LjM3NSwxNTAxLjQzNzUgMTI2Ny4zNzUsMTQ5OC42MjUgTDEyNjUuNjI1LDE0OTguNjI1IFExMjY1LjYyNSwxNDk4LjYyNSAxMjY1LjYyNSwxNTAxLjQzNzUgWiBNMTI2NS42MjUsMTQ5Mi4yNSBRMTI2NS42MjUsMTQ5Mi4yNSAxMjY1LjYyNSwxNDk1LjA2MjUgTDEyNjcuMzc1LDE0OTUuMDYyNSBRMTI2Ny4zNzUsMTQ5NS4wNjI1IDEyNjcuMzc1LDE0OTIuMjUgTDEyNjUuNjI1LDE0OTIuMjUgWiBNMTI2MS4zNzUsMTQ5Mi45Mzc1IEwxMjY2LjMxMjUsMTQ5Mi45Mzc1IEwxMjY2LjMxMjUsMTQ5MS4xODc1IEwxMjYxLjM3NSwxNDkxLjE4NzUgTDEyNjEuMzc1LDE0OTIuOTM3NSBaICIgZmlsbD0iIzAwMDAwMCIvPjx0ZXh0IGZpbGw9IiNGRkZGRkYiIGZvbnQtZmFtaWx5PSJzYW5zLXNlcmlmIiBmb250LXNpemU9IjE0IiBsZW5ndGhBZGp1c3Q9InNwYWNpbmciIHRleHRMZW5ndGg9IjI4IiB4PSIxMjg0LjI1IiB5PSIxNTAyLjI0MjIiPkRpc2g8L3RleHQ+PGxpbmUgc3R5bGU9InN0cm9rZTojNjY5OUNDO3N0cm9rZS13aWR0aDowLjU7IiB4MT0iMTA0OS41IiB4Mj0iMTUxNC41IiB5MT0iMTUxMi41IiB5Mj0iMTUxMi41Ii8+PHJlY3QgZmlsbD0ibm9uZSIgaGVpZ2h0PSI2IiBzdHlsZT0ic3Ryb2tlOiNDODI5MzA7c3Ryb2tlLXdpZHRoOjE7IiB3aWR0aD0iNiIgeD0iMTA1Ni41IiB5PSIxNTIyLjQ5MjIiLz48dGV4dCBmaWxsPSIjMDAwMDAwIiBmb250LWZhbWlseT0ic2Fucy1zZXJpZiIgZm9udC1zaXplPSIxNCIgbGVuZ3RoQWRqdXN0PSJzcGFjaW5nIiB0ZXh0TGVuZ3RoPSI0OSIgeD0iMTA2OC41IiB5PSIxNTI5LjczNDQiPmlkOiBpbnQ8L3RleHQ+PHJlY3QgZmlsbD0ibm9uZSIgaGVpZ2h0PSI2IiBzdHlsZT0ic3Ryb2tlOiNDODI5MzA7c3Ryb2tlLXdpZHRoOjE7IiB3aWR0aD0iNiIgeD0iMTA1Ni41IiB5PSIxNTM3LjQ3NjYiLz48dGV4dCBmaWxsPSIjMDAwMDAwIiBmb250LWZhbWlseT0ic2Fucy1zZXJpZiIgZm9udC1zaXplPSIxNCIgbGVuZ3RoQWRqdXN0PSJzcGFjaW5nIiB0ZXh0TGVuZ3RoPSI4NCIgeD0iMTA2OC41IiB5PSIxNTQ0LjcxODgiPm5hbWU6IFN0cmluZzwvdGV4dD48cmVjdCBmaWxsPSJub25lIiBoZWlnaHQ9IjYiIHN0eWxlPSJzdHJva2U6I0M4MjkzMDtzdHJva2Utd2lkdGg6MTsiIHdpZHRoPSI2IiB4PSIxMDU2LjUiIHk9IjE1NTIuNDYwOSIvPjx0ZXh0IGZpbGw9IiMwMDAwMDAiIGZvbnQtZmFtaWx5PSJzYW5zLXNlcmlmIiBmb250LXNpemU9IjE0IiBsZW5ndGhBZGp1c3Q9InNwYWNpbmciIHRleHRMZW5ndGg9IjkxIiB4PSIxMDY4LjUiIHk9IjE1NTkuNzAzMSI+cHJpY2U6IGRvdWJsZTwvdGV4dD48bGluZSBzdHlsZT0ic3Ryb2tlOiM2Njk5Q0M7c3Ryb2tlLXdpZHRoOjAuNTsiIHgxPSIxMDQ5LjUiIHgyPSIxNTE0LjUiIHkxPSIxNTY1LjQ1MzEiIHkyPSIxNTY1LjQ1MzEiLz48ZWxsaXBzZSBjeD0iMTA1OS41IiBjeT0iMTU3OC40NDUzIiBmaWxsPSIjODRCRTg0IiByeD0iMyIgcnk9IjMiIHN0eWxlPSJzdHJva2U6IzAzODA0ODtzdHJva2Utd2lkdGg6MTsiLz48dGV4dCBmaWxsPSIjMDAwMDAwIiBmb250LWZhbWlseT0ic2Fucy1zZXJpZiIgZm9udC1zaXplPSIxNCIgbGVuZ3RoQWRqdXN0PSJzcGFjaW5nIiB0ZXh0TGVuZ3RoPSIxMDUiIHg9IjEwNjguNSIgeT0iMTU4Mi42ODc1Ij4mIzE3MTtjcmVhdGUmIzE4NzsgRGlzaCgpPC90ZXh0PjxlbGxpcHNlIGN4PSIxMDU5LjUiIGN5PSIxNTkzLjQyOTciIGZpbGw9IiM4NEJFODQiIHJ4PSIzIiByeT0iMyIgc3R5bGU9InN0cm9rZTojMDM4MDQ4O3N0cm9rZS13aWR0aDoxOyIvPjx0ZXh0IGZpbGw9IiMwMDAwMDAiIGZvbnQtZmFtaWx5PSJzYW5zLXNlcmlmIiBmb250LXNpemU9IjE0IiBsZW5ndGhBZGp1c3Q9InNwYWNpbmciIHRleHRMZW5ndGg9IjQ0MSIgeD0iMTA2OC41IiB5PSIxNTk3LjY3MTkiPiYjMTcxO2NyZWF0ZSYjMTg3OyBEaXNoKGludCBpZCwgU3RyaW5nIG5hbWUsIFN0cmluZyBzdHJpbmcsIGRvdWJsZSBwcmljZSk8L3RleHQ+PGVsbGlwc2UgY3g9IjEwNTkuNSIgY3k9IjE2MDguNDE0MSIgZmlsbD0iIzg0QkU4NCIgcng9IjMiIHJ5PSIzIiBzdHlsZT0ic3Ryb2tlOiMwMzgwNDg7c3Ryb2tlLXdpZHRoOjE7Ii8+PHRleHQgZmlsbD0iIzAwMDAwMCIgZm9udC1mYW1pbHk9InNhbnMtc2VyaWYiIGZvbnQtc2l6ZT0iMTQiIGxlbmd0aEFkanVzdD0ic3BhY2luZyIgdGV4dExlbmd0aD0iODQiIHg9IjEwNjguNSIgeT0iMTYxMi42NTYzIj5nZXRJZCgpOiBpbnQ8L3RleHQ+PGVsbGlwc2UgY3g9IjEwNTkuNSIgY3k9IjE2MjMuMzk4NCIgZmlsbD0iIzg0QkU4NCIgcng9IjMiIHJ5PSIzIiBzdHlsZT0ic3Ryb2tlOiMwMzgwNDg7c3Ryb2tlLXdpZHRoOjE7Ii8+PHRleHQgZmlsbD0iIzAwMDAwMCIgZm9udC1mYW1pbHk9InNhbnMtc2VyaWYiIGZvbnQtc2l6ZT0iMTQiIGxlbmd0aEFkanVzdD0ic3BhY2luZyIgdGV4dExlbmd0aD0iMTE5IiB4PSIxMDY4LjUiIHk9IjE2MjcuNjQwNiI+Z2V0TmFtZSgpOiBTdHJpbmc8L3RleHQ+PGVsbGlwc2UgY3g9IjEwNTkuNSIgY3k9IjE2MzguMzgyOCIgZmlsbD0iIzg0QkU4NCIgcng9IjMiIHJ5PSIzIiBzdHlsZT0ic3Ryb2tlOiMwMzgwNDg7c3Ryb2tlLXdpZHRoOjE7Ii8+PHRleHQgZmlsbD0iIzAwMDAwMCIgZm9udC1mYW1pbHk9InNhbnMtc2VyaWYiIGZvbnQtc2l6ZT0iMTQiIGxlbmd0aEFkanVzdD0ic3BhY2luZyIgdGV4dExlbmd0aD0iMTA1IiB4PSIxMDY4LjUiIHk9IjE2NDIuNjI1Ij5zZXROYW1lKFN0cmluZyk8L3RleHQ+PGVsbGlwc2UgY3g9IjEwNTkuNSIgY3k9IjE2NTMuMzY3MiIgZmlsbD0iIzg0QkU4NCIgcng9IjMiIHJ5PSIzIiBzdHlsZT0ic3Ryb2tlOiMwMzgwNDg7c3Ryb2tlLXdpZHRoOjE7Ii8+PHRleHQgZmlsbD0iIzAwMDAwMCIgZm9udC1mYW1pbHk9InNhbnMtc2VyaWYiIGZvbnQtc2l6ZT0iMTQiIGxlbmd0aEFkanVzdD0ic3BhY2luZyIgdGV4dExlbmd0aD0iMTI2IiB4PSIxMDY4LjUiIHk9IjE2NTcuNjA5NCI+Z2V0UHJpY2UoKTogZG91YmxlPC90ZXh0PjxlbGxpcHNlIGN4PSIxMDU5LjUiIGN5PSIxNjY4LjM1MTYiIGZpbGw9IiM4NEJFODQiIHJ4PSIzIiByeT0iMyIgc3R5bGU9InN0cm9rZTojMDM4MDQ4O3N0cm9rZS13aWR0aDoxOyIvPjx0ZXh0IGZpbGw9IiMwMDAwMDAiIGZvbnQtZmFtaWx5PSJzYW5zLXNlcmlmIiBmb250LXNpemU9IjE0IiBsZW5ndGhBZGp1c3Q9InNwYWNpbmciIHRleHRMZW5ndGg9IjExMiIgeD0iMTA2OC41IiB5PSIxNjcyLjU5MzgiPnNldFByaWNlKGRvdWJsZSk8L3RleHQ+PGVsbGlwc2UgY3g9IjEwNTkuNSIgY3k9IjE2ODMuMzM1OSIgZmlsbD0iIzg0QkU4NCIgcng9IjMiIHJ5PSIzIiBzdHlsZT0ic3Ryb2tlOiMwMzgwNDg7c3Ryb2tlLXdpZHRoOjE7Ii8+PHRleHQgZmlsbD0iIzAwMDAwMCIgZm9udC1mYW1pbHk9InNhbnMtc2VyaWYiIGZvbnQtc2l6ZT0iMTQiIGxlbmd0aEFkanVzdD0ic3BhY2luZyIgdGV4dExlbmd0aD0iMTQ3IiB4PSIxMDY4LjUiIHk9IjE2ODcuNTc4MSI+Z2V0Q2F0ZWdvcnkoKTogU3RyaW5nPC90ZXh0PjwvZz48IS0tY2xhc3MgT3JkZXItLT48ZyBjbGFzcz0iZW50aXR5IiBkYXRhLWVudGl0eT0iT3JkZXIiIGRhdGEtc291cmNlLWxpbmU9IjE1NCIgZGF0YS11aWQ9ImVudDAwMjQiIGlkPSJlbnRpdHlfT3JkZXIiPjxyZWN0IGZpbGw9IiMzQzNGNDEiIGhlaWdodD0iNDIyLjYwOTQiIHJ4PSIyLjUiIHJ5PSIyLjUiIHN0eWxlPSJzdHJva2U6IzY2OTlDQztzdHJva2Utd2lkdGg6MC41OyIgd2lkdGg9Ijk0MyIgeD0iMTQyMS41IiB5PSI1MjIiLz48ZWxsaXBzZSBjeD0iMTg3MS4yNSIgY3k9IjUzOCIgZmlsbD0iI0FERDFCMiIgcng9IjExIiByeT0iMTEiIHN0eWxlPSJzdHJva2U6IzE4MTgxODtzdHJva2Utd2lkdGg6MTsiLz48cGF0aCBkPSJNMTg2OC44NzUsNTQyLjI1IEwxODY4Ljg3NSw1NDQgTDE4NzMuODEyNSw1NDQgTDE4NzMuODEyNSw1NDIuMjUgTDE4NjguODc1LDU0Mi4yNSBaIE0xODY5LjU2MjUsNTQyLjkzNzUgUTE4NjkuNTYyNSw1NDIuOTM3NSAxODY5LjU2MjUsNTMzLjc1IEwxODY3LjgxMjUsNTMzLjc1IFExODY3LjgxMjUsNTMzLjc1IDE4NjcuODEyNSw1NDIuOTM3NSBMMTg2OS41NjI1LDU0Mi45Mzc1IFogTTE4NzMuMTI1LDU0Mi45Mzc1IEwxODc0Ljg3NSw1NDIuOTM3NSBRMTg3NC44NzUsNTQyLjkzNzUgMTg3NC44NzUsNTQwLjEyNSBMMTg3My4xMjUsNTQwLjEyNSBRMTg3My4xMjUsNTQwLjEyNSAxODczLjEyNSw1NDIuOTM3NSBaIE0xODczLjEyNSw1MzMuNzUgUTE4NzMuMTI1LDUzMy43NSAxODczLjEyNSw1MzYuNTYyNSBMMTg3NC44NzUsNTM2LjU2MjUgUTE4NzQuODc1LDUzNi41NjI1IDE4NzQuODc1LDUzMy43NSBMMTg3My4xMjUsNTMzLjc1IFogTTE4NjguODc1LDUzNC40Mzc1IEwxODczLjgxMjUsNTM0LjQzNzUgTDE4NzMuODEyNSw1MzIuNjg3NSBMMTg2OC44NzUsNTMyLjY4NzUgTDE4NjguODc1LDUzNC40Mzc1IFogIiBmaWxsPSIjMDAwMDAwIi8+PHRleHQgZmlsbD0iI0ZGRkZGRiIgZm9udC1mYW1pbHk9InNhbnMtc2VyaWYiIGZvbnQtc2l6ZT0iMTQiIGxlbmd0aEFkanVzdD0ic3BhY2luZyIgdGV4dExlbmd0aD0iMzUiIHg9IjE4OTEuNzUiIHk9IjU0My43NDIyIj5PcmRlcjwvdGV4dD48bGluZSBzdHlsZT0ic3Ryb2tlOiM2Njk5Q0M7c3Ryb2tlLXdpZHRoOjAuNTsiIHgxPSIxNDIyLjUiIHgyPSIyMzYzLjUiIHkxPSI1NTQiIHkyPSI1NTQiLz48cmVjdCBmaWxsPSJub25lIiBoZWlnaHQ9IjYiIHN0eWxlPSJzdHJva2U6I0M4MjkzMDtzdHJva2Utd2lkdGg6MTsiIHdpZHRoPSI2IiB4PSIxNDI5LjUiIHk9IjU2My45OTIyIi8+PHRleHQgZmlsbD0iIzAwMDAwMCIgZm9udC1mYW1pbHk9InNhbnMtc2VyaWYiIGZvbnQtc2l6ZT0iMTQiIGxlbmd0aEFkanVzdD0ic3BhY2luZyIgdGV4dExlbmd0aD0iNDkiIHg9IjE0NDEuNSIgeT0iNTcxLjIzNDQiPmlkOiBpbnQ8L3RleHQ+PHJlY3QgZmlsbD0ibm9uZSIgaGVpZ2h0PSI2IiBzdHlsZT0ic3Ryb2tlOiNDODI5MzA7c3Ryb2tlLXdpZHRoOjE7IiB3aWR0aD0iNiIgeD0iMTQyOS41IiB5PSI1NzguOTc2NiIvPjx0ZXh0IGZpbGw9IiMwMDAwMDAiIGZvbnQtZmFtaWx5PSJzYW5zLXNlcmlmIiBmb250LXNpemU9IjE0IiBsZW5ndGhBZGp1c3Q9InNwYWNpbmciIHRleHRMZW5ndGg9Ijg0IiB4PSIxNDQxLjUiIHk9IjU4Ni4yMTg4Ij50YWJsZUlkOiBpbnQ8L3RleHQ+PHJlY3QgZmlsbD0ibm9uZSIgaGVpZ2h0PSI2IiBzdHlsZT0ic3Ryb2tlOiNDODI5MzA7c3Ryb2tlLXdpZHRoOjE7IiB3aWR0aD0iNiIgeD0iMTQyOS41IiB5PSI1OTMuOTYwOSIvPjx0ZXh0IGZpbGw9IiMwMDAwMDAiIGZvbnQtZmFtaWx5PSJzYW5zLXNlcmlmIiBmb250LXNpemU9IjE0IiBsZW5ndGhBZGp1c3Q9InNwYWNpbmciIHRleHRMZW5ndGg9IjEyNiIgeD0iMTQ0MS41IiB5PSI2MDEuMjAzMSI+Y3VzdG9tZXI6IEN1c3RvbWVyPC90ZXh0PjxyZWN0IGZpbGw9Im5vbmUiIGhlaWdodD0iNiIgc3R5bGU9InN0cm9rZTojQzgyOTMwO3N0cm9rZS13aWR0aDoxOyIgd2lkdGg9IjYiIHg9IjE0MjkuNSIgeT0iNjA4Ljk0NTMiLz48dGV4dCBmaWxsPSIjMDAwMDAwIiBmb250LWZhbWlseT0ic2Fucy1zZXJpZiIgZm9udC1zaXplPSIxNCIgbGVuZ3RoQWRqdXN0PSJzcGFjaW5nIiB0ZXh0TGVuZ3RoPSIyMjQiIHg9IjE0NDEuNSIgeT0iNjE2LjE4NzUiPm9yZGVySXRlbXM6IEFycmF5TGlzdCZsdDtJU2VsbGFibGUmZ3Q7PC90ZXh0PjxyZWN0IGZpbGw9Im5vbmUiIGhlaWdodD0iNiIgc3R5bGU9InN0cm9rZTojQzgyOTMwO3N0cm9rZS13aWR0aDoxOyIgd2lkdGg9IjYiIHg9IjE0MjkuNSIgeT0iNjIzLjkyOTciLz48dGV4dCBmaWxsPSIjMDAwMDAwIiBmb250LWZhbWlseT0ic2Fucy1zZXJpZiIgZm9udC1zaXplPSIxNCIgbGVuZ3RoQWRqdXN0PSJzcGFjaW5nIiB0ZXh0TGVuZ3RoPSIxMzMiIHg9IjE0NDEuNSIgeT0iNjMxLjE3MTkiPm9yZGVyU3RhdHVzOiBTdHJpbmc8L3RleHQ+PHJlY3QgZmlsbD0ibm9uZSIgaGVpZ2h0PSI2IiBzdHlsZT0ic3Ryb2tlOiNDODI5MzA7c3Ryb2tlLXdpZHRoOjE7IiB3aWR0aD0iNiIgeD0iMTQyOS41IiB5PSI2MzguOTE0MSIvPjx0ZXh0IGZpbGw9IiMwMDAwMDAiIGZvbnQtZmFtaWx5PSJzYW5zLXNlcmlmIiBmb250LXNpemU9IjE0IiBsZW5ndGhBZGp1c3Q9InNwYWNpbmciIHRleHRMZW5ndGg9IjE2OCIgeD0iMTQ0MS41IiB5PSI2NDYuMTU2MyI+b3JkZXJEYXRlOiBMb2NhbERhdGVUaW1lPC90ZXh0PjxsaW5lIHN0eWxlPSJzdHJva2U6IzY2OTlDQztzdHJva2Utd2lkdGg6MC41OyIgeDE9IjE0MjIuNSIgeDI9IjIzNjMuNSIgeTE9IjY1MS45MDYzIiB5Mj0iNjUxLjkwNjMiLz48ZWxsaXBzZSBjeD0iMTQzMi41IiBjeT0iNjY0Ljg5ODQiIGZpbGw9IiM4NEJFODQiIHJ4PSIzIiByeT0iMyIgc3R5bGU9InN0cm9rZTojMDM4MDQ4O3N0cm9rZS13aWR0aDoxOyIvPjx0ZXh0IGZpbGw9IiMwMDAwMDAiIGZvbnQtZmFtaWx5PSJzYW5zLXNlcmlmIiBmb250LXNpemU9IjE0IiBsZW5ndGhBZGp1c3Q9InNwYWNpbmciIHRleHRMZW5ndGg9IjkxNyIgeD0iMTQ0MS41IiB5PSI2NjkuMTQwNiI+JiMxNzE7Y3JlYXRlJiMxODc7IE9yZGVyKGludCBpZCwgaW50IHRhYmxlSWQsIEN1c3RvbWVyIGN1c3RvbWVyLCBBcnJheUxpc3QmbHQ7SVNlbGxhYmxlJmd0OyBvcmRlckl0ZW0sIFN0cmluZyBvcmRlclN0YXR1cywgTG9jYWxEYXRlVGltZSBvcmRlckRhdGUpPC90ZXh0PjxlbGxpcHNlIGN4PSIxNDMyLjUiIGN5PSI2NzkuODgyOCIgZmlsbD0iIzg0QkU4NCIgcng9IjMiIHJ5PSIzIiBzdHlsZT0ic3Ryb2tlOiMwMzgwNDg7c3Ryb2tlLXdpZHRoOjE7Ii8+PHRleHQgZmlsbD0iIzAwMDAwMCIgZm9udC1mYW1pbHk9InNhbnMtc2VyaWYiIGZvbnQtc2l6ZT0iMTQiIGxlbmd0aEFkanVzdD0ic3BhY2luZyIgdGV4dExlbmd0aD0iODQiIHg9IjE0NDEuNSIgeT0iNjg0LjEyNSI+Z2V0SWQoKTogaW50PC90ZXh0PjxlbGxpcHNlIGN4PSIxNDMyLjUiIGN5PSI2OTQuODY3MiIgZmlsbD0iIzg0QkU4NCIgcng9IjMiIHJ5PSIzIiBzdHlsZT0ic3Ryb2tlOiMwMzgwNDg7c3Ryb2tlLXdpZHRoOjE7Ii8+PHRleHQgZmlsbD0iIzAwMDAwMCIgZm9udC1mYW1pbHk9InNhbnMtc2VyaWYiIGZvbnQtc2l6ZT0iMTQiIGxlbmd0aEFkanVzdD0ic3BhY2luZyIgdGV4dExlbmd0aD0iMTE5IiB4PSIxNDQxLjUiIHk9IjY5OS4xMDk0Ij5nZXRUYWJsZUlkKCk6IGludDwvdGV4dD48ZWxsaXBzZSBjeD0iMTQzMi41IiBjeT0iNzA5Ljg1MTYiIGZpbGw9IiM4NEJFODQiIHJ4PSIzIiByeT0iMyIgc3R5bGU9InN0cm9rZTojMDM4MDQ4O3N0cm9rZS13aWR0aDoxOyIvPjx0ZXh0IGZpbGw9IiMwMDAwMDAiIGZvbnQtZmFtaWx5PSJzYW5zLXNlcmlmIiBmb250LXNpemU9IjE0IiBsZW5ndGhBZGp1c3Q9InNwYWNpbmciIHRleHRMZW5ndGg9IjE2MSIgeD0iMTQ0MS41IiB5PSI3MTQuMDkzOCI+Z2V0Q3VzdG9tZXIoKTogQ3VzdG9tZXI8L3RleHQ+PGVsbGlwc2UgY3g9IjE0MzIuNSIgY3k9IjcyNC44MzU5IiBmaWxsPSIjODRCRTg0IiByeD0iMyIgcnk9IjMiIHN0eWxlPSJzdHJva2U6IzAzODA0ODtzdHJva2Utd2lkdGg6MTsiLz48dGV4dCBmaWxsPSIjMDAwMDAwIiBmb250LWZhbWlseT0ic2Fucy1zZXJpZiIgZm9udC1zaXplPSIxNCIgbGVuZ3RoQWRqdXN0PSJzcGFjaW5nIiB0ZXh0TGVuZ3RoPSIyNTkiIHg9IjE0NDEuNSIgeT0iNzI5LjA3ODEiPmdldE9yZGVySXRlbXMoKTogQXJyYXlMaXN0Jmx0O0lTZWxsYWJsZSZndDs8L3RleHQ+PGVsbGlwc2UgY3g9IjE0MzIuNSIgY3k9IjczOS44MjAzIiBmaWxsPSIjODRCRTg0IiByeD0iMyIgcnk9IjMiIHN0eWxlPSJzdHJva2U6IzAzODA0ODtzdHJva2Utd2lkdGg6MTsiLz48dGV4dCBmaWxsPSIjMDAwMDAwIiBmb250LWZhbWlseT0ic2Fucy1zZXJpZiIgZm9udC1zaXplPSIxNCIgbGVuZ3RoQWRqdXN0PSJzcGFjaW5nIiB0ZXh0TGVuZ3RoPSIxNjgiIHg9IjE0NDEuNSIgeT0iNzQ0LjA2MjUiPmdldE9yZGVyU3RhdHVzKCk6IFN0cmluZzwvdGV4dD48ZWxsaXBzZSBjeD0iMTQzMi41IiBjeT0iNzU0LjgwNDciIGZpbGw9IiM4NEJFODQiIHJ4PSIzIiByeT0iMyIgc3R5bGU9InN0cm9rZTojMDM4MDQ4O3N0cm9rZS13aWR0aDoxOyIvPjx0ZXh0IGZpbGw9IiMwMDAwMDAiIGZvbnQtZmFtaWx5PSJzYW5zLXNlcmlmIiBmb250LXNpemU9IjE0IiBsZW5ndGhBZGp1c3Q9InNwYWNpbmciIHRleHRMZW5ndGg9IjIwMyIgeD0iMTQ0MS41IiB5PSI3NTkuMDQ2OSI+Z2V0T3JkZXJEYXRlKCk6IExvY2FsRGF0ZVRpbWU8L3RleHQ+PGVsbGlwc2UgY3g9IjE0MzIuNSIgY3k9Ijc2OS43ODkxIiBmaWxsPSIjODRCRTg0IiByeD0iMyIgcnk9IjMiIHN0eWxlPSJzdHJva2U6IzAzODA0ODtzdHJva2Utd2lkdGg6MTsiLz48dGV4dCBmaWxsPSIjMDAwMDAwIiBmb250LWZhbWlseT0ic2Fucy1zZXJpZiIgZm9udC1zaXplPSIxNCIgbGVuZ3RoQWRqdXN0PSJzcGFjaW5nIiB0ZXh0TGVuZ3RoPSI3MCIgeD0iMTQ0MS41IiB5PSI3NzQuMDMxMyI+c2V0SWQoaW50KTwvdGV4dD48ZWxsaXBzZSBjeD0iMTQzMi41IiBjeT0iNzg0Ljc3MzQiIGZpbGw9IiM4NEJFODQiIHJ4PSIzIiByeT0iMyIgc3R5bGU9InN0cm9rZTojMDM4MDQ4O3N0cm9rZS13aWR0aDoxOyIvPjx0ZXh0IGZpbGw9IiMwMDAwMDAiIGZvbnQtZmFtaWx5PSJzYW5zLXNlcmlmIiBmb250LXNpemU9IjE0IiBsZW5ndGhBZGp1c3Q9InNwYWNpbmciIHRleHRMZW5ndGg9IjEwNSIgeD0iMTQ0MS41IiB5PSI3ODkuMDE1NiI+c2V0VGFibGVJZChpbnQpPC90ZXh0PjxlbGxpcHNlIGN4PSIxNDMyLjUiIGN5PSI3OTkuNzU3OCIgZmlsbD0iIzg0QkU4NCIgcng9IjMiIHJ5PSIzIiBzdHlsZT0ic3Ryb2tlOiMwMzgwNDg7c3Ryb2tlLXdpZHRoOjE7Ii8+PHRleHQgZmlsbD0iIzAwMDAwMCIgZm9udC1mYW1pbHk9InNhbnMtc2VyaWYiIGZvbnQtc2l6ZT0iMTQiIGxlbmd0aEFkanVzdD0ic3BhY2luZyIgdGV4dExlbmd0aD0iMTQ3IiB4PSIxNDQxLjUiIHk9IjgwNCI+c2V0Q3VzdG9tZXIoQ3VzdG9tZXIpPC90ZXh0PjxlbGxpcHNlIGN4PSIxNDMyLjUiIGN5PSI4MTQuNzQyMiIgZmlsbD0iIzg0QkU4NCIgcng9IjMiIHJ5PSIzIiBzdHlsZT0ic3Ryb2tlOiMwMzgwNDg7c3Ryb2tlLXdpZHRoOjE7Ii8+PHRleHQgZmlsbD0iIzAwMDAwMCIgZm9udC1mYW1pbHk9InNhbnMtc2VyaWYiIGZvbnQtc2l6ZT0iMTQiIGxlbmd0aEFkanVzdD0ic3BhY2luZyIgdGV4dExlbmd0aD0iMjQ1IiB4PSIxNDQxLjUiIHk9IjgxOC45ODQ0Ij5zZXRPcmRlckl0ZW1zKEFycmF5TGlzdCZsdDtJU2VsbGFibGUmZ3Q7KTwvdGV4dD48ZWxsaXBzZSBjeD0iMTQzMi41IiBjeT0iODI5LjcyNjYiIGZpbGw9IiM4NEJFODQiIHJ4PSIzIiByeT0iMyIgc3R5bGU9InN0cm9rZTojMDM4MDQ4O3N0cm9rZS13aWR0aDoxOyIvPjx0ZXh0IGZpbGw9IiMwMDAwMDAiIGZvbnQtZmFtaWx5PSJzYW5zLXNlcmlmIiBmb250LXNpemU9IjE0IiBsZW5ndGhBZGp1c3Q9InNwYWNpbmciIHRleHRMZW5ndGg9IjE1NCIgeD0iMTQ0MS41IiB5PSI4MzMuOTY4OCI+c2V0T3JkZXJTdGF0dXMoU3RyaW5nKTwvdGV4dD48ZWxsaXBzZSBjeD0iMTQzMi41IiBjeT0iODQ0LjcxMDkiIGZpbGw9IiM4NEJFODQiIHJ4PSIzIiByeT0iMyIgc3R5bGU9InN0cm9rZTojMDM4MDQ4O3N0cm9rZS13aWR0aDoxOyIvPjx0ZXh0IGZpbGw9IiMwMDAwMDAiIGZvbnQtZmFtaWx5PSJzYW5zLXNlcmlmIiBmb250LXNpemU9IjE0IiBsZW5ndGhBZGp1c3Q9InNwYWNpbmciIHRleHRMZW5ndGg9IjE4OSIgeD0iMTQ0MS41IiB5PSI4NDguOTUzMSI+c2V0T3JkZXJEYXRlKExvY2FsRGF0ZVRpbWUpPC90ZXh0PjxlbGxpcHNlIGN4PSIxNDMyLjUiIGN5PSI4NTkuNjk1MyIgZmlsbD0iIzg0QkU4NCIgcng9IjMiIHJ5PSIzIiBzdHlsZT0ic3Ryb2tlOiMwMzgwNDg7c3Ryb2tlLXdpZHRoOjE7Ii8+PHRleHQgZmlsbD0iIzAwMDAwMCIgZm9udC1mYW1pbHk9InNhbnMtc2VyaWYiIGZvbnQtc2l6ZT0iMTQiIGxlbmd0aEFkanVzdD0ic3BhY2luZyIgdGV4dExlbmd0aD0iMTYxIiB4PSIxNDQxLjUiIHk9Ijg2My45Mzc1Ij5hZGRJdGVtKElTZWxsYWJsZSwgaW50KTwvdGV4dD48ZWxsaXBzZSBjeD0iMTQzMi41IiBjeT0iODc0LjY3OTciIGZpbGw9IiM4NEJFODQiIHJ4PSIzIiByeT0iMyIgc3R5bGU9InN0cm9rZTojMDM4MDQ4O3N0cm9rZS13aWR0aDoxOyIvPjx0ZXh0IGZpbGw9IiMwMDAwMDAiIGZvbnQtZmFtaWx5PSJzYW5zLXNlcmlmIiBmb250LXNpemU9IjE0IiBsZW5ndGhBZGp1c3Q9InNwYWNpbmciIHRleHRMZW5ndGg9IjE0NyIgeD0iMTQ0MS41IiB5PSI4NzguOTIxOSI+cmVtb3ZlSXRlbShJU2VsbGFibGUpPC90ZXh0PjxlbGxpcHNlIGN4PSIxNDMyLjUiIGN5PSI4ODkuNjY0MSIgZmlsbD0iIzg0QkU4NCIgcng9IjMiIHJ5PSIzIiBzdHlsZT0ic3Ryb2tlOiMwMzgwNDg7c3Ryb2tlLXdpZHRoOjE7Ii8+PHRleHQgZmlsbD0iIzAwMDAwMCIgZm9udC1mYW1pbHk9InNhbnMtc2VyaWYiIGZvbnQtc2l6ZT0iMTQiIGxlbmd0aEFkanVzdD0ic3BhY2luZyIgdGV4dExlbmd0aD0iMTg5IiB4PSIxNDQxLjUiIHk9Ijg5My45MDYzIj5jYWxjdWxhdGVTdWJ0b3RhbCgpOiBkb3VibGU8L3RleHQ+PGVsbGlwc2UgY3g9IjE0MzIuNSIgY3k9IjkwNC42NDg0IiBmaWxsPSIjODRCRTg0IiByeD0iMyIgcnk9IjMiIHN0eWxlPSJzdHJva2U6IzAzODA0ODtzdHJva2Utd2lkdGg6MTsiLz48dGV4dCBmaWxsPSIjMDAwMDAwIiBmb250LWZhbWlseT0ic2Fucy1zZXJpZiIgZm9udC1zaXplPSIxNCIgbGVuZ3RoQWRqdXN0PSJzcGFjaW5nIiB0ZXh0TGVuZ3RoPSIxNjgiIHg9IjE0NDEuNSIgeT0iOTA4Ljg5MDYiPmNhbGN1bGF0ZVRvdGFsKCk6IGRvdWJsZTwvdGV4dD48ZWxsaXBzZSBjeD0iMTQzMi41IiBjeT0iOTE5LjYzMjgiIGZpbGw9IiM4NEJFODQiIHJ4PSIzIiByeT0iMyIgc3R5bGU9InN0cm9rZTojMDM4MDQ4O3N0cm9rZS13aWR0aDoxOyIvPjx0ZXh0IGZpbGw9IiMwMDAwMDAiIGZvbnQtZmFtaWx5PSJzYW5zLXNlcmlmIiBmb250LXNpemU9IjE0IiBsZW5ndGhBZGp1c3Q9InNwYWNpbmciIHRleHRMZW5ndGg9IjE4OSIgeD0iMTQ0MS41IiB5PSI5MjMuODc1Ij5nZXREaXNjb3VudEFtb3VudCgpOiBkb3VibGU8L3RleHQ+PGVsbGlwc2UgY3g9IjE0MzIuNSIgY3k9IjkzNC42MTcyIiBmaWxsPSIjODRCRTg0IiByeD0iMyIgcnk9IjMiIHN0eWxlPSJzdHJva2U6IzAzODA0ODtzdHJva2Utd2lkdGg6MTsiLz48dGV4dCBmaWxsPSIjMDAwMDAwIiBmb250LWZhbWlseT0ic2Fucy1zZXJpZiIgZm9udC1zaXplPSIxNCIgbGVuZ3RoQWRqdXN0PSJzcGFjaW5nIiB0ZXh0TGVuZ3RoPSIxNzUiIHg9IjE0NDEuNSIgeT0iOTM4Ljg1OTQiPnVwZGF0ZU9yZGVyU3RhdHVzKFN0cmluZyk8L3RleHQ+PC9nPjwhLS1jbGFzcyBQYXltZW50LS0+PGcgY2xhc3M9ImVudGl0eSIgZGF0YS1lbnRpdHk9IlBheW1lbnQiIGRhdGEtc291cmNlLWxpbmU9IjE4NiIgZGF0YS11aWQ9ImVudDAwMjciIGlkPSJlbnRpdHlfUGF5bWVudCI+PHJlY3QgZmlsbD0iIzNDM0Y0MSIgaGVpZ2h0PSI0MDcuNjI1IiByeD0iMi41IiByeT0iMi41IiBzdHlsZT0ic3Ryb2tlOiM2Njk5Q0M7c3Ryb2tlLXdpZHRoOjAuNTsiIHdpZHRoPSIxMDQxIiB4PSIxMzcyLjUiIHk9IjQ2LjUiLz48ZWxsaXBzZSBjeD0iMTg2NC4yNSIgY3k9IjYyLjUiIGZpbGw9IiNBREQxQjIiIHJ4PSIxMSIgcnk9IjExIiBzdHlsZT0ic3Ryb2tlOiMxODE4MTg7c3Ryb2tlLXdpZHRoOjE7Ii8+PHBhdGggZD0iTTE4NjEuODc1LDY2Ljc1IEwxODYxLjg3NSw2OC41IEwxODY2LjgxMjUsNjguNSBMMTg2Ni44MTI1LDY2Ljc1IEwxODYxLjg3NSw2Ni43NSBaIE0xODYyLjU2MjUsNjcuNDM3NSBRMTg2Mi41NjI1LDY3LjQzNzUgMTg2Mi41NjI1LDU4LjI1IEwxODYwLjgxMjUsNTguMjUgUTE4NjAuODEyNSw1OC4yNSAxODYwLjgxMjUsNjcuNDM3NSBMMTg2Mi41NjI1LDY3LjQzNzUgWiBNMTg2Ni4xMjUsNjcuNDM3NSBMMTg2Ny44NzUsNjcuNDM3NSBRMTg2Ny44NzUsNjcuNDM3NSAxODY3Ljg3NSw2NC42MjUgTDE4NjYuMTI1LDY0LjYyNSBRMTg2Ni4xMjUsNjQuNjI1IDE4NjYuMTI1LDY3LjQzNzUgWiBNMTg2Ni4xMjUsNTguMjUgUTE4NjYuMTI1LDU4LjI1IDE4NjYuMTI1LDYxLjA2MjUgTDE4NjcuODc1LDYxLjA2MjUgUTE4NjcuODc1LDYxLjA2MjUgMTg2Ny44NzUsNTguMjUgTDE4NjYuMTI1LDU4LjI1IFogTTE4NjEuODc1LDU4LjkzNzUgTDE4NjYuODEyNSw1OC45Mzc1IEwxODY2LjgxMjUsNTcuMTg3NSBMMTg2MS44NzUsNTcuMTg3NSBMMTg2MS44NzUsNTguOTM3NSBaICIgZmlsbD0iIzAwMDAwMCIvPjx0ZXh0IGZpbGw9IiNGRkZGRkYiIGZvbnQtZmFtaWx5PSJzYW5zLXNlcmlmIiBmb250LXNpemU9IjE0IiBsZW5ndGhBZGp1c3Q9InNwYWNpbmciIHRleHRMZW5ndGg9IjQ5IiB4PSIxODg0Ljc1IiB5PSI2OC4yNDIyIj5QYXltZW50PC90ZXh0PjxsaW5lIHN0eWxlPSJzdHJva2U6IzY2OTlDQztzdHJva2Utd2lkdGg6MC41OyIgeDE9IjEzNzMuNSIgeDI9IjI0MTIuNSIgeTE9Ijc4LjUiIHkyPSI3OC41Ii8+PHJlY3QgZmlsbD0ibm9uZSIgaGVpZ2h0PSI2IiBzdHlsZT0ic3Ryb2tlOiNDODI5MzA7c3Ryb2tlLXdpZHRoOjE7IiB3aWR0aD0iNiIgeD0iMTM4MC41IiB5PSI4OC40OTIyIi8+PHRleHQgZmlsbD0iIzAwMDAwMCIgZm9udC1mYW1pbHk9InNhbnMtc2VyaWYiIGZvbnQtc2l6ZT0iMTQiIGxlbmd0aEFkanVzdD0ic3BhY2luZyIgdGV4dExlbmd0aD0iOTgiIHg9IjEzOTIuNSIgeT0iOTUuNzM0NCI+cGF5bWVudElkOiBpbnQ8L3RleHQ+PHJlY3QgZmlsbD0ibm9uZSIgaGVpZ2h0PSI2IiBzdHlsZT0ic3Ryb2tlOiNDODI5MzA7c3Ryb2tlLXdpZHRoOjE7IiB3aWR0aD0iNiIgeD0iMTM4MC41IiB5PSIxMDMuNDc2NiIvPjx0ZXh0IGZpbGw9IiMwMDAwMDAiIGZvbnQtZmFtaWx5PSJzYW5zLXNlcmlmIiBmb250LXNpemU9IjE0IiBsZW5ndGhBZGp1c3Q9InNwYWNpbmciIHRleHRMZW5ndGg9Ijk4IiB4PSIxMzkyLjUiIHk9IjExMC43MTg4Ij5hbW91bnQ6IGRvdWJsZTwvdGV4dD48cmVjdCBmaWxsPSJub25lIiBoZWlnaHQ9IjYiIHN0eWxlPSJzdHJva2U6I0M4MjkzMDtzdHJva2Utd2lkdGg6MTsiIHdpZHRoPSI2IiB4PSIxMzgwLjUiIHk9IjExOC40NjA5Ii8+PHRleHQgZmlsbD0iIzAwMDAwMCIgZm9udC1mYW1pbHk9InNhbnMtc2VyaWYiIGZvbnQtc2l6ZT0iMTQiIGxlbmd0aEFkanVzdD0ic3BhY2luZyIgdGV4dExlbmd0aD0iOTgiIHg9IjEzOTIuNSIgeT0iMTI1LjcwMzEiPnN0YXR1czogU3RhdHVzPC90ZXh0PjxyZWN0IGZpbGw9Im5vbmUiIGhlaWdodD0iNiIgc3R5bGU9InN0cm9rZTojQzgyOTMwO3N0cm9rZS13aWR0aDoxOyIgd2lkdGg9IjYiIHg9IjEzODAuNSIgeT0iMTMzLjQ0NTMiLz48dGV4dCBmaWxsPSIjMDAwMDAwIiBmb250LWZhbWlseT0ic2Fucy1zZXJpZiIgZm9udC1zaXplPSIxNCIgbGVuZ3RoQWRqdXN0PSJzcGFjaW5nIiB0ZXh0TGVuZ3RoPSI4NCIgeD0iMTM5Mi41IiB5PSIxNDAuNjg3NSI+b3JkZXI6IE9yZGVyPC90ZXh0PjxyZWN0IGZpbGw9Im5vbmUiIGhlaWdodD0iNiIgc3R5bGU9InN0cm9rZTojQzgyOTMwO3N0cm9rZS13aWR0aDoxOyIgd2lkdGg9IjYiIHg9IjEzODAuNSIgeT0iMTQ4LjQyOTciLz48dGV4dCBmaWxsPSIjMDAwMDAwIiBmb250LWZhbWlseT0ic2Fucy1zZXJpZiIgZm9udC1zaXplPSIxNCIgbGVuZ3RoQWRqdXN0PSJzcGFjaW5nIiB0ZXh0TGVuZ3RoPSIxNDciIHg9IjEzOTIuNSIgeT0iMTU1LjY3MTkiPnBheW1lbnRNZXRob2Q6IFN0cmluZzwvdGV4dD48cmVjdCBmaWxsPSJub25lIiBoZWlnaHQ9IjYiIHN0eWxlPSJzdHJva2U6I0M4MjkzMDtzdHJva2Utd2lkdGg6MTsiIHdpZHRoPSI2IiB4PSIxMzgwLjUiIHk9IjE2My40MTQxIi8+PHRleHQgZmlsbD0iIzAwMDAwMCIgZm9udC1mYW1pbHk9InNhbnMtc2VyaWYiIGZvbnQtc2l6ZT0iMTQiIGxlbmd0aEFkanVzdD0ic3BhY2luZyIgdGV4dExlbmd0aD0iMTQ3IiB4PSIxMzkyLjUiIHk9IjE3MC42NTYzIj50cmFuc2FjdGlvbklkOiBTdHJpbmc8L3RleHQ+PHJlY3QgZmlsbD0ibm9uZSIgaGVpZ2h0PSI2IiBzdHlsZT0ic3Ryb2tlOiNDODI5MzA7c3Ryb2tlLXdpZHRoOjE7IiB3aWR0aD0iNiIgeD0iMTM4MC41IiB5PSIxNzguMzk4NCIvPjx0ZXh0IGZpbGw9IiMwMDAwMDAiIGZvbnQtZmFtaWx5PSJzYW5zLXNlcmlmIiBmb250LXNpemU9IjE0IiBsZW5ndGhBZGp1c3Q9InNwYWNpbmciIHRleHRMZW5ndGg9IjE4MiIgeD0iMTM5Mi41IiB5PSIxODUuNjQwNiI+cGF5bWVudERhdGU6IExvY2FsRGF0ZVRpbWU8L3RleHQ+PGxpbmUgc3R5bGU9InN0cm9rZTojNjY5OUNDO3N0cm9rZS13aWR0aDowLjU7IiB4MT0iMTM3My41IiB4Mj0iMjQxMi41IiB5MT0iMTkxLjM5MDYiIHkyPSIxOTEuMzkwNiIvPjxlbGxpcHNlIGN4PSIxMzgzLjUiIGN5PSIyMDQuMzgyOCIgZmlsbD0iIzg0QkU4NCIgcng9IjMiIHJ5PSIzIiBzdHlsZT0ic3Ryb2tlOiMwMzgwNDg7c3Ryb2tlLXdpZHRoOjE7Ii8+PHRleHQgZmlsbD0iIzAwMDAwMCIgZm9udC1mYW1pbHk9InNhbnMtc2VyaWYiIGZvbnQtc2l6ZT0iMTQiIGxlbmd0aEFkanVzdD0ic3BhY2luZyIgdGV4dExlbmd0aD0iMTAxNSIgeD0iMTM5Mi41IiB5PSIyMDguNjI1Ij4mIzE3MTtjcmVhdGUmIzE4NzsgUGF5bWVudChpbnQgcGF5bWVudElkLCBPcmRlciBvcmRlciwgZG91YmxlIGFtb3VudCwgU3RyaW5nIHBheW1lbnRNZXRob2QsIFN0cmluZyB0cmFuc2FjdGlvbklkLCBTdGF0dXMgc3RhdHVzLCBMb2NhbERhdGVUaW1lIHBheW1lbnREYXRlKTwvdGV4dD48ZWxsaXBzZSBjeD0iMTM4My41IiBjeT0iMjE5LjM2NzIiIGZpbGw9IiM4NEJFODQiIHJ4PSIzIiByeT0iMyIgc3R5bGU9InN0cm9rZTojMDM4MDQ4O3N0cm9rZS13aWR0aDoxOyIvPjx0ZXh0IGZpbGw9IiMwMDAwMDAiIGZvbnQtZmFtaWx5PSJzYW5zLXNlcmlmIiBmb250LXNpemU9IjE0IiBsZW5ndGhBZGp1c3Q9InNwYWNpbmciIHRleHRMZW5ndGg9IjU2NyIgeD0iMTM5Mi41IiB5PSIyMjMuNjA5NCI+JiMxNzE7Y3JlYXRlJiMxODc7IFBheW1lbnQoaW50IHBheW1lbnRJZCwgT3JkZXIgb3JkZXIsIGRvdWJsZSBhbW91bnQsIFN0cmluZyBwYXltZW50TWV0aG9kKTwvdGV4dD48ZWxsaXBzZSBjeD0iMTM4My41IiBjeT0iMjM0LjM1MTYiIGZpbGw9IiM4NEJFODQiIHJ4PSIzIiByeT0iMyIgc3R5bGU9InN0cm9rZTojMDM4MDQ4O3N0cm9rZS13aWR0aDoxOyIvPjx0ZXh0IGZpbGw9IiMwMDAwMDAiIGZvbnQtZmFtaWx5PSJzYW5zLXNlcmlmIiBmb250LXNpemU9IjE0IiBsZW5ndGhBZGp1c3Q9InNwYWNpbmciIHRleHRMZW5ndGg9IjEzMyIgeD0iMTM5Mi41IiB5PSIyMzguNTkzOCI+Z2V0UGF5bWVudElkKCk6IGludDwvdGV4dD48ZWxsaXBzZSBjeD0iMTM4My41IiBjeT0iMjQ5LjMzNTkiIGZpbGw9IiM4NEJFODQiIHJ4PSIzIiByeT0iMyIgc3R5bGU9InN0cm9rZTojMDM4MDQ4O3N0cm9rZS13aWR0aDoxOyIvPjx0ZXh0IGZpbGw9IiMwMDAwMDAiIGZvbnQtZmFtaWx5PSJzYW5zLXNlcmlmIiBmb250LXNpemU9IjE0IiBsZW5ndGhBZGp1c3Q9InNwYWNpbmciIHRleHRMZW5ndGg9IjEzMyIgeD0iMTM5Mi41IiB5PSIyNTMuNTc4MSI+Z2V0QW1vdW50KCk6IGRvdWJsZTwvdGV4dD48ZWxsaXBzZSBjeD0iMTM4My41IiBjeT0iMjY0LjMyMDMiIGZpbGw9IiM4NEJFODQiIHJ4PSIzIiByeT0iMyIgc3R5bGU9InN0cm9rZTojMDM4MDQ4O3N0cm9rZS13aWR0aDoxOyIvPjx0ZXh0IGZpbGw9IiMwMDAwMDAiIGZvbnQtZmFtaWx5PSJzYW5zLXNlcmlmIiBmb250LXNpemU9IjE0IiBsZW5ndGhBZGp1c3Q9InNwYWNpbmciIHRleHRMZW5ndGg9IjE4MiIgeD0iMTM5Mi41IiB5PSIyNjguNTYyNSI+Z2V0UGF5bWVudE1ldGhvZCgpOiBTdHJpbmc8L3RleHQ+PGVsbGlwc2UgY3g9IjEzODMuNSIgY3k9IjI3OS4zMDQ3IiBmaWxsPSIjODRCRTg0IiByeD0iMyIgcnk9IjMiIHN0eWxlPSJzdHJva2U6IzAzODA0ODtzdHJva2Utd2lkdGg6MTsiLz48dGV4dCBmaWxsPSIjMDAwMDAwIiBmb250LWZhbWlseT0ic2Fucy1zZXJpZiIgZm9udC1zaXplPSIxNCIgbGVuZ3RoQWRqdXN0PSJzcGFjaW5nIiB0ZXh0TGVuZ3RoPSIxODIiIHg9IjEzOTIuNSIgeT0iMjgzLjU0NjkiPmdldFRyYW5zYWN0aW9uSWQoKTogU3RyaW5nPC90ZXh0PjxlbGxpcHNlIGN4PSIxMzgzLjUiIGN5PSIyOTQuMjg5MSIgZmlsbD0iIzg0QkU4NCIgcng9IjMiIHJ5PSIzIiBzdHlsZT0ic3Ryb2tlOiMwMzgwNDg7c3Ryb2tlLXdpZHRoOjE7Ii8+PHRleHQgZmlsbD0iIzAwMDAwMCIgZm9udC1mYW1pbHk9InNhbnMtc2VyaWYiIGZvbnQtc2l6ZT0iMTQiIGxlbmd0aEFkanVzdD0ic3BhY2luZyIgdGV4dExlbmd0aD0iMTMzIiB4PSIxMzkyLjUiIHk9IjI5OC41MzEzIj5nZXRTdGF0dXMoKTogU3RhdHVzPC90ZXh0PjxlbGxpcHNlIGN4PSIxMzgzLjUiIGN5PSIzMDkuMjczNCIgZmlsbD0iIzg0QkU4NCIgcng9IjMiIHJ5PSIzIiBzdHlsZT0ic3Ryb2tlOiMwMzgwNDg7c3Ryb2tlLXdpZHRoOjE7Ii8+PHRleHQgZmlsbD0iIzAwMDAwMCIgZm9udC1mYW1pbHk9InNhbnMtc2VyaWYiIGZvbnQtc2l6ZT0iMTQiIGxlbmd0aEFkanVzdD0ic3BhY2luZyIgdGV4dExlbmd0aD0iMjE3IiB4PSIxMzkyLjUiIHk9IjMxMy41MTU2Ij5nZXRQYXltZW50RGF0ZSgpOiBMb2NhbERhdGVUaW1lPC90ZXh0PjxlbGxpcHNlIGN4PSIxMzgzLjUiIGN5PSIzMjQuMjU3OCIgZmlsbD0iIzg0QkU4NCIgcng9IjMiIHJ5PSIzIiBzdHlsZT0ic3Ryb2tlOiMwMzgwNDg7c3Ryb2tlLXdpZHRoOjE7Ii8+PHRleHQgZmlsbD0iIzAwMDAwMCIgZm9udC1mYW1pbHk9InNhbnMtc2VyaWYiIGZvbnQtc2l6ZT0iMTQiIGxlbmd0aEFkanVzdD0ic3BhY2luZyIgdGV4dExlbmd0aD0iMTU0IiB4PSIxMzkyLjUiIHk9IjMyOC41Ij5nZXRQb2ludHNHYWluZWQoKTogaW50PC90ZXh0PjxlbGxpcHNlIGN4PSIxMzgzLjUiIGN5PSIzMzkuMjQyMiIgZmlsbD0iIzg0QkU4NCIgcng9IjMiIHJ5PSIzIiBzdHlsZT0ic3Ryb2tlOiMwMzgwNDg7c3Ryb2tlLXdpZHRoOjE7Ii8+PHRleHQgZmlsbD0iIzAwMDAwMCIgZm9udC1mYW1pbHk9InNhbnMtc2VyaWYiIGZvbnQtc2l6ZT0iMTQiIGxlbmd0aEFkanVzdD0ic3BhY2luZyIgdGV4dExlbmd0aD0iMTYxIiB4PSIxMzkyLjUiIHk9IjM0My40ODQ0Ij5nZXRDdXN0b21lcigpOiBDdXN0b21lcjwvdGV4dD48ZWxsaXBzZSBjeD0iMTM4My41IiBjeT0iMzU0LjIyNjYiIGZpbGw9IiM4NEJFODQiIHJ4PSIzIiByeT0iMyIgc3R5bGU9InN0cm9rZTojMDM4MDQ4O3N0cm9rZS13aWR0aDoxOyIvPjx0ZXh0IGZpbGw9IiMwMDAwMDAiIGZvbnQtZmFtaWx5PSJzYW5zLXNlcmlmIiBmb250LXNpemU9IjE0IiBsZW5ndGhBZGp1c3Q9InNwYWNpbmciIHRleHRMZW5ndGg9IjExOSIgeD0iMTM5Mi41IiB5PSIzNTguNDY4OCI+c2V0QW1vdW50KGRvdWJsZSk8L3RleHQ+PGVsbGlwc2UgY3g9IjEzODMuNSIgY3k9IjM2OS4yMTA5IiBmaWxsPSIjODRCRTg0IiByeD0iMyIgcnk9IjMiIHN0eWxlPSJzdHJva2U6IzAzODA0ODtzdHJva2Utd2lkdGg6MTsiLz48dGV4dCBmaWxsPSIjMDAwMDAwIiBmb250LWZhbWlseT0ic2Fucy1zZXJpZiIgZm9udC1zaXplPSIxNCIgbGVuZ3RoQWRqdXN0PSJzcGFjaW5nIiB0ZXh0TGVuZ3RoPSIxMTkiIHg9IjEzOTIuNSIgeT0iMzczLjQ1MzEiPnNldFN0YXR1cyhTdGF0dXMpPC90ZXh0PjxlbGxpcHNlIGN4PSIxMzgzLjUiIGN5PSIzODQuMTk1MyIgZmlsbD0iIzg0QkU4NCIgcng9IjMiIHJ5PSIzIiBzdHlsZT0ic3Ryb2tlOiMwMzgwNDg7c3Ryb2tlLXdpZHRoOjE7Ii8+PHRleHQgZmlsbD0iIzAwMDAwMCIgZm9udC1mYW1pbHk9InNhbnMtc2VyaWYiIGZvbnQtc2l6ZT0iMTQiIGxlbmd0aEFkanVzdD0ic3BhY2luZyIgdGV4dExlbmd0aD0iMTE5IiB4PSIxMzkyLjUiIHk9IjM4OC40Mzc1Ij5zZXRQYXltZW50SWQoaW50KTwvdGV4dD48ZWxsaXBzZSBjeD0iMTM4My41IiBjeT0iMzk5LjE3OTciIGZpbGw9IiM4NEJFODQiIHJ4PSIzIiByeT0iMyIgc3R5bGU9InN0cm9rZTojMDM4MDQ4O3N0cm9rZS13aWR0aDoxOyIvPjx0ZXh0IGZpbGw9IiMwMDAwMDAiIGZvbnQtZmFtaWx5PSJzYW5zLXNlcmlmIiBmb250LXNpemU9IjE0IiBsZW5ndGhBZGp1c3Q9InNwYWNpbmciIHRleHRMZW5ndGg9IjEwNSIgeD0iMTM5Mi41IiB5PSI0MDMuNDIxOSI+c2V0T3JkZXIoT3JkZXIpPC90ZXh0PjxlbGxpcHNlIGN4PSIxMzgzLjUiIGN5PSI0MTQuMTY0MSIgZmlsbD0iIzg0QkU4NCIgcng9IjMiIHJ5PSIzIiBzdHlsZT0ic3Ryb2tlOiMwMzgwNDg7c3Ryb2tlLXdpZHRoOjE7Ii8+PHRleHQgZmlsbD0iIzAwMDAwMCIgZm9udC1mYW1pbHk9InNhbnMtc2VyaWYiIGZvbnQtc2l6ZT0iMTQiIGxlbmd0aEFkanVzdD0ic3BhY2luZyIgdGV4dExlbmd0aD0iMTY4IiB4PSIxMzkyLjUiIHk9IjQxOC40MDYzIj5zZXRQYXltZW50TWV0aG9kKFN0cmluZyk8L3RleHQ+PGVsbGlwc2UgY3g9IjEzODMuNSIgY3k9IjQyOS4xNDg0IiBmaWxsPSIjODRCRTg0IiByeD0iMyIgcnk9IjMiIHN0eWxlPSJzdHJva2U6IzAzODA0ODtzdHJva2Utd2lkdGg6MTsiLz48dGV4dCBmaWxsPSIjMDAwMDAwIiBmb250LWZhbWlseT0ic2Fucy1zZXJpZiIgZm9udC1zaXplPSIxNCIgbGVuZ3RoQWRqdXN0PSJzcGFjaW5nIiB0ZXh0TGVuZ3RoPSIxNjgiIHg9IjEzOTIuNSIgeT0iNDMzLjM5MDYiPnNldFRyYW5zYWN0aW9uSWQoU3RyaW5nKTwvdGV4dD48ZWxsaXBzZSBjeD0iMTM4My41IiBjeT0iNDQ0LjEzMjgiIGZpbGw9IiM4NEJFODQiIHJ4PSIzIiByeT0iMyIgc3R5bGU9InN0cm9rZTojMDM4MDQ4O3N0cm9rZS13aWR0aDoxOyIvPjx0ZXh0IGZpbGw9IiMwMDAwMDAiIGZvbnQtZmFtaWx5PSJzYW5zLXNlcmlmIiBmb250LXNpemU9IjE0IiBsZW5ndGhBZGp1c3Q9InNwYWNpbmciIHRleHRMZW5ndGg9IjIwMyIgeD0iMTM5Mi41IiB5PSI0NDguMzc1Ij5zZXRQYXltZW50VGltZShMb2NhbERhdGVUaW1lKTwvdGV4dD48L2c+PCEtLWNsYXNzIFJlc2VydmF0aW9uLS0+PGcgY2xhc3M9ImVudGl0eSIgZGF0YS1lbnRpdHk9IlJlc2VydmF0aW9uIiBkYXRhLXNvdXJjZS1saW5lPSIyMTYiIGRhdGEtdWlkPSJlbnQwMDI5IiBpZD0iZW50aXR5X1Jlc2VydmF0aW9uIj48cmVjdCBmaWxsPSIjM0MzRjQxIiBoZWlnaHQ9IjM0Ny42ODc1IiByeD0iMi41IiByeT0iMi41IiBzdHlsZT0ic3Ryb2tlOiM2Njk5Q0M7c3Ryb2tlLXdpZHRoOjAuNTsiIHdpZHRoPSI5ODUiIHg9Ijg4LjUiIHk9Ijc2LjUiLz48ZWxsaXBzZSBjeD0iNTM4LjI1IiBjeT0iOTIuNSIgZmlsbD0iI0FERDFCMiIgcng9IjExIiByeT0iMTEiIHN0eWxlPSJzdHJva2U6IzE4MTgxODtzdHJva2Utd2lkdGg6MTsiLz48cGF0aCBkPSJNNTM1Ljg3NSw5Ni43NSBMNTM1Ljg3NSw5OC41IEw1NDAuODEyNSw5OC41IEw1NDAuODEyNSw5Ni43NSBMNTM1Ljg3NSw5Ni43NSBaIE01MzYuNTYyNSw5Ny40Mzc1IFE1MzYuNTYyNSw5Ny40Mzc1IDUzNi41NjI1LDg4LjI1IEw1MzQuODEyNSw4OC4yNSBRNTM0LjgxMjUsODguMjUgNTM0LjgxMjUsOTcuNDM3NSBMNTM2LjU2MjUsOTcuNDM3NSBaIE01NDAuMTI1LDk3LjQzNzUgTDU0MS44NzUsOTcuNDM3NSBRNTQxLjg3NSw5Ny40Mzc1IDU0MS44NzUsOTQuNjI1IEw1NDAuMTI1LDk0LjYyNSBRNTQwLjEyNSw5NC42MjUgNTQwLjEyNSw5Ny40Mzc1IFogTTU0MC4xMjUsODguMjUgUTU0MC4xMjUsODguMjUgNTQwLjEyNSw5MS4wNjI1IEw1NDEuODc1LDkxLjA2MjUgUTU0MS44NzUsOTEuMDYyNSA1NDEuODc1LDg4LjI1IEw1NDAuMTI1LDg4LjI1IFogTTUzNS44NzUsODguOTM3NSBMNTQwLjgxMjUsODguOTM3NSBMNTQwLjgxMjUsODcuMTg3NSBMNTM1Ljg3NSw4Ny4xODc1IEw1MzUuODc1LDg4LjkzNzUgWiAiIGZpbGw9IiMwMDAwMDAiLz48dGV4dCBmaWxsPSIjRkZGRkZGIiBmb250LWZhbWlseT0ic2Fucy1zZXJpZiIgZm9udC1zaXplPSIxNCIgbGVuZ3RoQWRqdXN0PSJzcGFjaW5nIiB0ZXh0TGVuZ3RoPSI3NyIgeD0iNTU4Ljc1IiB5PSI5OC4yNDIyIj5SZXNlcnZhdGlvbjwvdGV4dD48bGluZSBzdHlsZT0ic3Ryb2tlOiM2Njk5Q0M7c3Ryb2tlLXdpZHRoOjAuNTsiIHgxPSI4OS41IiB4Mj0iMTA3Mi41IiB5MT0iMTA4LjUiIHkyPSIxMDguNSIvPjxyZWN0IGZpbGw9Im5vbmUiIGhlaWdodD0iNiIgc3R5bGU9InN0cm9rZTojQzgyOTMwO3N0cm9rZS13aWR0aDoxOyIgd2lkdGg9IjYiIHg9Ijk2LjUiIHk9IjExOC40OTIyIi8+PHRleHQgZmlsbD0iIzAwMDAwMCIgZm9udC1mYW1pbHk9InNhbnMtc2VyaWYiIGZvbnQtc2l6ZT0iMTQiIGxlbmd0aEFkanVzdD0ic3BhY2luZyIgdGV4dExlbmd0aD0iMTI2IiB4PSIxMDguNSIgeT0iMTI1LjczNDQiPnJlc2VydmF0aW9uSWQ6IGludDwvdGV4dD48cmVjdCBmaWxsPSJub25lIiBoZWlnaHQ9IjYiIHN0eWxlPSJzdHJva2U6I0M4MjkzMDtzdHJva2Utd2lkdGg6MTsiIHdpZHRoPSI2IiB4PSI5Ni41IiB5PSIxMzMuNDc2NiIvPjx0ZXh0IGZpbGw9IiMwMDAwMDAiIGZvbnQtZmFtaWx5PSJzYW5zLXNlcmlmIiBmb250LXNpemU9IjE0IiBsZW5ndGhBZGp1c3Q9InNwYWNpbmciIHRleHRMZW5ndGg9IjEyNiIgeD0iMTA4LjUiIHk9IjE0MC43MTg4Ij5jdXN0b21lcklEOiBTdHJpbmc8L3RleHQ+PHJlY3QgZmlsbD0ibm9uZSIgaGVpZ2h0PSI2IiBzdHlsZT0ic3Ryb2tlOiNDODI5MzA7c3Ryb2tlLXdpZHRoOjE7IiB3aWR0aD0iNiIgeD0iOTYuNSIgeT0iMTQ4LjQ2MDkiLz48dGV4dCBmaWxsPSIjMDAwMDAwIiBmb250LWZhbWlseT0ic2Fucy1zZXJpZiIgZm9udC1zaXplPSIxNCIgbGVuZ3RoQWRqdXN0PSJzcGFjaW5nIiB0ZXh0TGVuZ3RoPSI4NCIgeD0iMTA4LjUiIHk9IjE1NS43MDMxIj50YWJsZUlEOiBpbnQ8L3RleHQ+PHJlY3QgZmlsbD0ibm9uZSIgaGVpZ2h0PSI2IiBzdHlsZT0ic3Ryb2tlOiNDODI5MzA7c3Ryb2tlLXdpZHRoOjE7IiB3aWR0aD0iNiIgeD0iOTYuNSIgeT0iMTYzLjQ0NTMiLz48dGV4dCBmaWxsPSIjMDAwMDAwIiBmb250LWZhbWlseT0ic2Fucy1zZXJpZiIgZm9udC1zaXplPSIxNCIgbGVuZ3RoQWRqdXN0PSJzcGFjaW5nIiB0ZXh0TGVuZ3RoPSIyMTAiIHg9IjEwOC41IiB5PSIxNzAuNjg3NSI+cmVzZXJ2YXRpb25EYXRlOiBMb2NhbERhdGVUaW1lPC90ZXh0PjxyZWN0IGZpbGw9Im5vbmUiIGhlaWdodD0iNiIgc3R5bGU9InN0cm9rZTojQzgyOTMwO3N0cm9rZS13aWR0aDoxOyIgd2lkdGg9IjYiIHg9Ijk2LjUiIHk9IjE3OC40Mjk3Ii8+PHRleHQgZmlsbD0iIzAwMDAwMCIgZm9udC1mYW1pbHk9InNhbnMtc2VyaWYiIGZvbnQtc2l6ZT0iMTQiIGxlbmd0aEFkanVzdD0ic3BhY2luZyIgdGV4dExlbmd0aD0iMTMzIiB4PSIxMDguNSIgeT0iMTg1LjY3MTkiPm51bWJlck9mR3Vlc3RzOiBpbnQ8L3RleHQ+PHJlY3QgZmlsbD0ibm9uZSIgaGVpZ2h0PSI2IiBzdHlsZT0ic3Ryb2tlOiNDODI5MzA7c3Ryb2tlLXdpZHRoOjE7IiB3aWR0aD0iNiIgeD0iOTYuNSIgeT0iMTkzLjQxNDEiLz48dGV4dCBmaWxsPSIjMDAwMDAwIiBmb250LWZhbWlseT0ic2Fucy1zZXJpZiIgZm9udC1zaXplPSIxNCIgbGVuZ3RoQWRqdXN0PSJzcGFjaW5nIiB0ZXh0TGVuZ3RoPSI5OCIgeD0iMTA4LjUiIHk9IjIwMC42NTYzIj5zdGF0dXM6IFN0cmluZzwvdGV4dD48bGluZSBzdHlsZT0ic3Ryb2tlOiM2Njk5Q0M7c3Ryb2tlLXdpZHRoOjAuNTsiIHgxPSI4OS41IiB4Mj0iMTA3Mi41IiB5MT0iMjA2LjQwNjMiIHkyPSIyMDYuNDA2MyIvPjxlbGxpcHNlIGN4PSI5OS41IiBjeT0iMjE5LjM5ODQiIGZpbGw9IiM4NEJFODQiIHJ4PSIzIiByeT0iMyIgc3R5bGU9InN0cm9rZTojMDM4MDQ4O3N0cm9rZS13aWR0aDoxOyIvPjx0ZXh0IGZpbGw9IiMwMDAwMDAiIGZvbnQtZmFtaWx5PSJzYW5zLXNlcmlmIiBmb250LXNpemU9IjE0IiBsZW5ndGhBZGp1c3Q9InNwYWNpbmciIHRleHRMZW5ndGg9Ijg1NCIgeD0iMTA4LjUiIHk9IjIyMy42NDA2Ij4mIzE3MTtjcmVhdGUmIzE4NzsgUmVzZXJ2YXRpb24oaW50IHJlc2VydmF0aW9uSWQsIGludCB0YWJsZUlELCBTdHJpbmcgY3VzdG9tZXJJRCwgTG9jYWxEYXRlVGltZSByZXNlcnZhdGlvbkRhdGUsIGludCBudW1iZXJPZkd1ZXN0cyk8L3RleHQ+PGVsbGlwc2UgY3g9Ijk5LjUiIGN5PSIyMzQuMzgyOCIgZmlsbD0iIzg0QkU4NCIgcng9IjMiIHJ5PSIzIiBzdHlsZT0ic3Ryb2tlOiMwMzgwNDg7c3Ryb2tlLXdpZHRoOjE7Ii8+PHRleHQgZmlsbD0iIzAwMDAwMCIgZm9udC1mYW1pbHk9InNhbnMtc2VyaWYiIGZvbnQtc2l6ZT0iMTQiIGxlbmd0aEFkanVzdD0ic3BhY2luZyIgdGV4dExlbmd0aD0iOTU5IiB4PSIxMDguNSIgeT0iMjM4LjYyNSI+JiMxNzE7Y3JlYXRlJiMxODc7IFJlc2VydmF0aW9uKGludCByZXNlcnZhdGlvbklkLCBTdHJpbmcgY3VzdG9tZXJJRCwgaW50IHRhYmxlSUQsIExvY2FsRGF0ZVRpbWUgcmVzZXJ2YXRpb25EYXRlLCBpbnQgbnVtYmVyT2ZHdWVzdHMsIFN0cmluZyBzdGF0dXMpPC90ZXh0PjxlbGxpcHNlIGN4PSI5OS41IiBjeT0iMjQ5LjM2NzIiIGZpbGw9IiM4NEJFODQiIHJ4PSIzIiByeT0iMyIgc3R5bGU9InN0cm9rZTojMDM4MDQ4O3N0cm9rZS13aWR0aDoxOyIvPjx0ZXh0IGZpbGw9IiMwMDAwMDAiIGZvbnQtZmFtaWx5PSJzYW5zLXNlcmlmIiBmb250LXNpemU9IjE0IiBsZW5ndGhBZGp1c3Q9InNwYWNpbmciIHRleHRMZW5ndGg9IjE2MSIgeD0iMTA4LjUiIHk9IjI1My42MDk0Ij5nZXRSZXNlcnZhdGlvbklkKCk6IGludDwvdGV4dD48ZWxsaXBzZSBjeD0iOTkuNSIgY3k9IjI2NC4zNTE2IiBmaWxsPSIjODRCRTg0IiByeD0iMyIgcnk9IjMiIHN0eWxlPSJzdHJva2U6IzAzODA0ODtzdHJva2Utd2lkdGg6MTsiLz48dGV4dCBmaWxsPSIjMDAwMDAwIiBmb250LWZhbWlseT0ic2Fucy1zZXJpZiIgZm9udC1zaXplPSIxNCIgbGVuZ3RoQWRqdXN0PSJzcGFjaW5nIiB0ZXh0TGVuZ3RoPSIxNjEiIHg9IjEwOC41IiB5PSIyNjguNTkzOCI+Z2V0Q3VzdG9tZXJJRCgpOiBTdHJpbmc8L3RleHQ+PGVsbGlwc2UgY3g9Ijk5LjUiIGN5PSIyNzkuMzM1OSIgZmlsbD0iIzg0QkU4NCIgcng9IjMiIHJ5PSIzIiBzdHlsZT0ic3Ryb2tlOiMwMzgwNDg7c3Ryb2tlLXdpZHRoOjE7Ii8+PHRleHQgZmlsbD0iIzAwMDAwMCIgZm9udC1mYW1pbHk9InNhbnMtc2VyaWYiIGZvbnQtc2l6ZT0iMTQiIGxlbmd0aEFkanVzdD0ic3BhY2luZyIgdGV4dExlbmd0aD0iMTE5IiB4PSIxMDguNSIgeT0iMjgzLjU3ODEiPmdldFRhYmxlSUQoKTogaW50PC90ZXh0PjxlbGxpcHNlIGN4PSI5OS41IiBjeT0iMjk0LjMyMDMiIGZpbGw9IiM4NEJFODQiIHJ4PSIzIiByeT0iMyIgc3R5bGU9InN0cm9rZTojMDM4MDQ4O3N0cm9rZS13aWR0aDoxOyIvPjx0ZXh0IGZpbGw9IiMwMDAwMDAiIGZvbnQtZmFtaWx5PSJzYW5zLXNlcmlmIiBmb250LXNpemU9IjE0IiBsZW5ndGhBZGp1c3Q9InNwYWNpbmciIHRleHRMZW5ndGg9IjI0NSIgeD0iMTA4LjUiIHk9IjI5OC41NjI1Ij5nZXRSZXNlcnZhdGlvbkRhdGUoKTogTG9jYWxEYXRlVGltZTwvdGV4dD48ZWxsaXBzZSBjeD0iOTkuNSIgY3k9IjMwOS4zMDQ3IiBmaWxsPSIjODRCRTg0IiByeD0iMyIgcnk9IjMiIHN0eWxlPSJzdHJva2U6IzAzODA0ODtzdHJva2Utd2lkdGg6MTsiLz48dGV4dCBmaWxsPSIjMDAwMDAwIiBmb250LWZhbWlseT0ic2Fucy1zZXJpZiIgZm9udC1zaXplPSIxNCIgbGVuZ3RoQWRqdXN0PSJzcGFjaW5nIiB0ZXh0TGVuZ3RoPSIxNjgiIHg9IjEwOC41IiB5PSIzMTMuNTQ2OSI+Z2V0TnVtYmVyT2ZHdWVzdHMoKTogaW50PC90ZXh0PjxlbGxpcHNlIGN4PSI5OS41IiBjeT0iMzI0LjI4OTEiIGZpbGw9IiM4NEJFODQiIHJ4PSIzIiByeT0iMyIgc3R5bGU9InN0cm9rZTojMDM4MDQ4O3N0cm9rZS13aWR0aDoxOyIvPjx0ZXh0IGZpbGw9IiMwMDAwMDAiIGZvbnQtZmFtaWx5PSJzYW5zLXNlcmlmIiBmb250LXNpemU9IjE0IiBsZW5ndGhBZGp1c3Q9InNwYWNpbmciIHRleHRMZW5ndGg9IjEzMyIgeD0iMTA4LjUiIHk9IjMyOC41MzEzIj5nZXRTdGF0dXMoKTogU3RyaW5nPC90ZXh0PjxlbGxpcHNlIGN4PSI5OS41IiBjeT0iMzM5LjI3MzQiIGZpbGw9IiM4NEJFODQiIHJ4PSIzIiByeT0iMyIgc3R5bGU9InN0cm9rZTojMDM4MDQ4O3N0cm9rZS13aWR0aDoxOyIvPjx0ZXh0IGZpbGw9IiMwMDAwMDAiIGZvbnQtZmFtaWx5PSJzYW5zLXNlcmlmIiBmb250LXNpemU9IjE0IiBsZW5ndGhBZGp1c3Q9InNwYWNpbmciIHRleHRMZW5ndGg9IjE0NyIgeD0iMTA4LjUiIHk9IjM0My41MTU2Ij5zZXRSZXNlcnZhdGlvbklkKGludCk8L3RleHQ+PGVsbGlwc2UgY3g9Ijk5LjUiIGN5PSIzNTQuMjU3OCIgZmlsbD0iIzg0QkU4NCIgcng9IjMiIHJ5PSIzIiBzdHlsZT0ic3Ryb2tlOiMwMzgwNDg7c3Ryb2tlLXdpZHRoOjE7Ii8+PHRleHQgZmlsbD0iIzAwMDAwMCIgZm9udC1mYW1pbHk9InNhbnMtc2VyaWYiIGZvbnQtc2l6ZT0iMTQiIGxlbmd0aEFkanVzdD0ic3BhY2luZyIgdGV4dExlbmd0aD0iMTQ3IiB4PSIxMDguNSIgeT0iMzU4LjUiPnNldEN1c3RvbWVySUQoU3RyaW5nKTwvdGV4dD48ZWxsaXBzZSBjeD0iOTkuNSIgY3k9IjM2OS4yNDIyIiBmaWxsPSIjODRCRTg0IiByeD0iMyIgcnk9IjMiIHN0eWxlPSJzdHJva2U6IzAzODA0ODtzdHJva2Utd2lkdGg6MTsiLz48dGV4dCBmaWxsPSIjMDAwMDAwIiBmb250LWZhbWlseT0ic2Fucy1zZXJpZiIgZm9udC1zaXplPSIxNCIgbGVuZ3RoQWRqdXN0PSJzcGFjaW5nIiB0ZXh0TGVuZ3RoPSIxMDUiIHg9IjEwOC41IiB5PSIzNzMuNDg0NCI+c2V0VGFibGVJRChpbnQpPC90ZXh0PjxlbGxpcHNlIGN4PSI5OS41IiBjeT0iMzg0LjIyNjYiIGZpbGw9IiM4NEJFODQiIHJ4PSIzIiByeT0iMyIgc3R5bGU9InN0cm9rZTojMDM4MDQ4O3N0cm9rZS13aWR0aDoxOyIvPjx0ZXh0IGZpbGw9IiMwMDAwMDAiIGZvbnQtZmFtaWx5PSJzYW5zLXNlcmlmIiBmb250LXNpemU9IjE0IiBsZW5ndGhBZGp1c3Q9InNwYWNpbmciIHRleHRMZW5ndGg9IjIzMSIgeD0iMTA4LjUiIHk9IjM4OC40Njg4Ij5zZXRSZXNlcnZhdGlvbkRhdGUoTG9jYWxEYXRlVGltZSk8L3RleHQ+PGVsbGlwc2UgY3g9Ijk5LjUiIGN5PSIzOTkuMjEwOSIgZmlsbD0iIzg0QkU4NCIgcng9IjMiIHJ5PSIzIiBzdHlsZT0ic3Ryb2tlOiMwMzgwNDg7c3Ryb2tlLXdpZHRoOjE7Ii8+PHRleHQgZmlsbD0iIzAwMDAwMCIgZm9udC1mYW1pbHk9InNhbnMtc2VyaWYiIGZvbnQtc2l6ZT0iMTQiIGxlbmd0aEFkanVzdD0ic3BhY2luZyIgdGV4dExlbmd0aD0iMTU0IiB4PSIxMDguNSIgeT0iNDAzLjQ1MzEiPnNldE51bWJlck9mR3Vlc3RzKGludCk8L3RleHQ+PGVsbGlwc2UgY3g9Ijk5LjUiIGN5PSI0MTQuMTk1MyIgZmlsbD0iIzg0QkU4NCIgcng9IjMiIHJ5PSIzIiBzdHlsZT0ic3Ryb2tlOiMwMzgwNDg7c3Ryb2tlLXdpZHRoOjE7Ii8+PHRleHQgZmlsbD0iIzAwMDAwMCIgZm9udC1mYW1pbHk9InNhbnMtc2VyaWYiIGZvbnQtc2l6ZT0iMTQiIGxlbmd0aEFkanVzdD0ic3BhY2luZyIgdGV4dExlbmd0aD0iMTE5IiB4PSIxMDguNSIgeT0iNDE4LjQzNzUiPnNldFN0YXR1cyhTdHJpbmcpPC90ZXh0PjwvZz48IS0tY2xhc3MgVGFibGUtLT48ZyBjbGFzcz0iZW50aXR5IiBkYXRhLWVudGl0eT0iVGFibGUiIGRhdGEtc291cmNlLWxpbmU9IjIzOSIgZGF0YS11aWQ9ImVudDAwMzAiIGlkPSJlbnRpdHlfVGFibGUiPjxyZWN0IGZpbGw9IiMzQzNGNDEiIGhlaWdodD0iMTY3Ljg3NSIgcng9IjIuNSIgcnk9IjIuNSIgc3R5bGU9InN0cm9rZTojNjY5OUNDO3N0cm9rZS13aWR0aDowLjU7IiB3aWR0aD0iMjU3IiB4PSI0NTIuNSIgeT0iNjQ5LjUiLz48ZWxsaXBzZSBjeD0iNTU5LjI1IiBjeT0iNjY1LjUiIGZpbGw9IiNBREQxQjIiIHJ4PSIxMSIgcnk9IjExIiBzdHlsZT0ic3Ryb2tlOiMxODE4MTg7c3Ryb2tlLXdpZHRoOjE7Ii8+PHBhdGggZD0iTTU1Ni44NzUsNjY5Ljc1IEw1NTYuODc1LDY3MS41IEw1NjEuODEyNSw2NzEuNSBMNTYxLjgxMjUsNjY5Ljc1IEw1NTYuODc1LDY2OS43NSBaIE01NTcuNTYyNSw2NzAuNDM3NSBRNTU3LjU2MjUsNjcwLjQzNzUgNTU3LjU2MjUsNjYxLjI1IEw1NTUuODEyNSw2NjEuMjUgUTU1NS44MTI1LDY2MS4yNSA1NTUuODEyNSw2NzAuNDM3NSBMNTU3LjU2MjUsNjcwLjQzNzUgWiBNNTYxLjEyNSw2NzAuNDM3NSBMNTYyLjg3NSw2NzAuNDM3NSBRNTYyLjg3NSw2NzAuNDM3NSA1NjIuODc1LDY2Ny42MjUgTDU2MS4xMjUsNjY3LjYyNSBRNTYxLjEyNSw2NjcuNjI1IDU2MS4xMjUsNjcwLjQzNzUgWiBNNTYxLjEyNSw2NjEuMjUgUTU2MS4xMjUsNjYxLjI1IDU2MS4xMjUsNjY0LjA2MjUgTDU2Mi44NzUsNjY0LjA2MjUgUTU2Mi44NzUsNjY0LjA2MjUgNTYyLjg3NSw2NjEuMjUgTDU2MS4xMjUsNjYxLjI1IFogTTU1Ni44NzUsNjYxLjkzNzUgTDU2MS44MTI1LDY2MS45Mzc1IEw1NjEuODEyNSw2NjAuMTg3NSBMNTU2Ljg3NSw2NjAuMTg3NSBMNTU2Ljg3NSw2NjEuOTM3NSBaICIgZmlsbD0iIzAwMDAwMCIvPjx0ZXh0IGZpbGw9IiNGRkZGRkYiIGZvbnQtZmFtaWx5PSJzYW5zLXNlcmlmIiBmb250LXNpemU9IjE0IiBsZW5ndGhBZGp1c3Q9InNwYWNpbmciIHRleHRMZW5ndGg9IjM1IiB4PSI1NzkuNzUiIHk9IjY3MS4yNDIyIj5UYWJsZTwvdGV4dD48bGluZSBzdHlsZT0ic3Ryb2tlOiM2Njk5Q0M7c3Ryb2tlLXdpZHRoOjAuNTsiIHgxPSI0NTMuNSIgeDI9IjcwOC41IiB5MT0iNjgxLjUiIHkyPSI2ODEuNSIvPjxyZWN0IGZpbGw9Im5vbmUiIGhlaWdodD0iNiIgc3R5bGU9InN0cm9rZTojQzgyOTMwO3N0cm9rZS13aWR0aDoxOyIgd2lkdGg9IjYiIHg9IjQ2MC41IiB5PSI2OTEuNDkyMiIvPjx0ZXh0IGZpbGw9IiMwMDAwMDAiIGZvbnQtZmFtaWx5PSJzYW5zLXNlcmlmIiBmb250LXNpemU9IjE0IiBsZW5ndGhBZGp1c3Q9InNwYWNpbmciIHRleHRMZW5ndGg9IjQ5IiB4PSI0NzIuNSIgeT0iNjk4LjczNDQiPmlkOiBpbnQ8L3RleHQ+PHJlY3QgZmlsbD0ibm9uZSIgaGVpZ2h0PSI2IiBzdHlsZT0ic3Ryb2tlOiNDODI5MzA7c3Ryb2tlLXdpZHRoOjE7IiB3aWR0aD0iNiIgeD0iNDYwLjUiIHk9IjcwNi40NzY2Ii8+PHRleHQgZmlsbD0iIzAwMDAwMCIgZm9udC1mYW1pbHk9InNhbnMtc2VyaWYiIGZvbnQtc2l6ZT0iMTQiIGxlbmd0aEFkanVzdD0ic3BhY2luZyIgdGV4dExlbmd0aD0iMTI2IiB4PSI0NzIuNSIgeT0iNzEzLjcxODgiPmF2YWlsYWJsZTogYm9vbGVhbjwvdGV4dD48bGluZSBzdHlsZT0ic3Ryb2tlOiM2Njk5Q0M7c3Ryb2tlLXdpZHRoOjAuNTsiIHgxPSI0NTMuNSIgeDI9IjcwOC41IiB5MT0iNzE5LjQ2ODgiIHkyPSI3MTkuNDY4OCIvPjxlbGxpcHNlIGN4PSI0NjMuNSIgY3k9IjczMi40NjA5IiBmaWxsPSIjODRCRTg0IiByeD0iMyIgcnk9IjMiIHN0eWxlPSJzdHJva2U6IzAzODA0ODtzdHJva2Utd2lkdGg6MTsiLz48dGV4dCBmaWxsPSIjMDAwMDAwIiBmb250LWZhbWlseT0ic2Fucy1zZXJpZiIgZm9udC1zaXplPSIxNCIgbGVuZ3RoQWRqdXN0PSJzcGFjaW5nIiB0ZXh0TGVuZ3RoPSIyMzEiIHg9IjQ3Mi41IiB5PSI3MzYuNzAzMSI+JiMxNzE7Y3JlYXRlJiMxODc7IFRhYmxlKGJvb2xlYW4gYXZhaWxhYmxlKTwvdGV4dD48ZWxsaXBzZSBjeD0iNDYzLjUiIGN5PSI3NDcuNDQ1MyIgZmlsbD0iIzg0QkU4NCIgcng9IjMiIHJ5PSIzIiBzdHlsZT0ic3Ryb2tlOiMwMzgwNDg7c3Ryb2tlLXdpZHRoOjE7Ii8+PHRleHQgZmlsbD0iIzAwMDAwMCIgZm9udC1mYW1pbHk9InNhbnMtc2VyaWYiIGZvbnQtc2l6ZT0iMTQiIGxlbmd0aEFkanVzdD0ic3BhY2luZyIgdGV4dExlbmd0aD0iODQiIHg9IjQ3Mi41IiB5PSI3NTEuNjg3NSI+Z2V0SWQoKTogaW50PC90ZXh0PjxlbGxpcHNlIGN4PSI0NjMuNSIgY3k9Ijc2Mi40Mjk3IiBmaWxsPSIjODRCRTg0IiByeD0iMyIgcnk9IjMiIHN0eWxlPSJzdHJva2U6IzAzODA0ODtzdHJva2Utd2lkdGg6MTsiLz48dGV4dCBmaWxsPSIjMDAwMDAwIiBmb250LWZhbWlseT0ic2Fucy1zZXJpZiIgZm9udC1zaXplPSIxNCIgbGVuZ3RoQWRqdXN0PSJzcGFjaW5nIiB0ZXh0TGVuZ3RoPSIxNTQiIHg9IjQ3Mi41IiB5PSI3NjYuNjcxOSI+aXNBdmFpbGFibGUoKTogYm9vbGVhbjwvdGV4dD48ZWxsaXBzZSBjeD0iNDYzLjUiIGN5PSI3NzcuNDE0MSIgZmlsbD0iIzg0QkU4NCIgcng9IjMiIHJ5PSIzIiBzdHlsZT0ic3Ryb2tlOiMwMzgwNDg7c3Ryb2tlLXdpZHRoOjE7Ii8+PHRleHQgZmlsbD0iIzAwMDAwMCIgZm9udC1mYW1pbHk9InNhbnMtc2VyaWYiIGZvbnQtc2l6ZT0iMTQiIGxlbmd0aEFkanVzdD0ic3BhY2luZyIgdGV4dExlbmd0aD0iNzAiIHg9IjQ3Mi41IiB5PSI3ODEuNjU2MyI+c2V0SWQoaW50KTwvdGV4dD48ZWxsaXBzZSBjeD0iNDYzLjUiIGN5PSI3OTIuMzk4NCIgZmlsbD0iIzg0QkU4NCIgcng9IjMiIHJ5PSIzIiBzdHlsZT0ic3Ryb2tlOiMwMzgwNDg7c3Ryb2tlLXdpZHRoOjE7Ii8+PHRleHQgZmlsbD0iIzAwMDAwMCIgZm9udC1mYW1pbHk9InNhbnMtc2VyaWYiIGZvbnQtc2l6ZT0iMTQiIGxlbmd0aEFkanVzdD0ic3BhY2luZyIgdGV4dExlbmd0aD0iMTA1IiB4PSI0NzIuNSIgeT0iNzk2LjY0MDYiPlJlc2VydmUoKTogdm9pZDwvdGV4dD48ZWxsaXBzZSBjeD0iNDYzLjUiIGN5PSI4MDcuMzgyOCIgZmlsbD0iIzg0QkU4NCIgcng9IjMiIHJ5PSIzIiBzdHlsZT0ic3Ryb2tlOiMwMzgwNDg7c3Ryb2tlLXdpZHRoOjE7Ii8+PHRleHQgZmlsbD0iIzAwMDAwMCIgZm9udC1mYW1pbHk9InNhbnMtc2VyaWYiIGZvbnQtc2l6ZT0iMTQiIGxlbmd0aEFkanVzdD0ic3BhY2luZyIgdGV4dExlbmd0aD0iMTE5IiB4PSI0NzIuNSIgeT0iODExLjYyNSI+VW5SZXNlcnZlKCk6IHZvaWQ8L3RleHQ+PC9nPjwhLS1jbGFzcyBEQU9DdXN0b21lci0tPjxnIGNsYXNzPSJlbnRpdHkiIGRhdGEtZW50aXR5PSJEQU9DdXN0b21lciIgZGF0YS1zb3VyY2UtbGluZT0iMjU1IiBkYXRhLXVpZD0iZW50MDAzMyIgaWQ9ImVudGl0eV9EQU9DdXN0b21lciI+PHJlY3QgZmlsbD0iIzNDM0Y0MSIgaGVpZ2h0PSIxMDcuOTM3NSIgcng9IjIuNSIgcnk9IjIuNSIgc3R5bGU9InN0cm9rZTojNjY5OUNDO3N0cm9rZS13aWR0aDowLjU7IiB3aWR0aD0iMjg1IiB4PSI2MTA2LjUiIHk9IjY3OS41Ii8+PGVsbGlwc2UgY3g9IjYyMDYuMjUiIGN5PSI2OTUuNSIgZmlsbD0iI0I0QTdFNSIgcng9IjExIiByeT0iMTEiIHN0eWxlPSJzdHJva2U6IzE4MTgxODtzdHJva2Utd2lkdGg6MTsiLz48cGF0aCBkPSJNNjIwOS4zNzUsNzAxLjUgTDYyMDkuMzc1LDY5OS43NSBMNjIwNy4yNSw2OTkuNzUgUTYyMDcuMjUsNjk5Ljc1IDYyMDcuMjUsNjkxLjkzNzUgTDYyMDkuMzc1LDY5MS45Mzc1IEw2MjA5LjM3NSw2OTAuMTg3NSBMNjIwMy4zNzUsNjkwLjE4NzUgTDYyMDMuMzc1LDY5MS45Mzc1IEw2MjA1LjUsNjkxLjkzNzUgUTYyMDUuNSw2OTEuOTM3NSA2MjA1LjUsNjk5Ljc1IEw2MjAzLjM3NSw2OTkuNzUgTDYyMDMuMzc1LDcwMS41IEw2MjA5LjM3NSw3MDEuNSBaICIgZmlsbD0iIzAwMDAwMCIvPjx0ZXh0IGZpbGw9IiNGRkZGRkYiIGZvbnQtZmFtaWx5PSJzYW5zLXNlcmlmIiBmb250LXNpemU9IjE0IiBmb250LXN0eWxlPSJpdGFsaWMiIGxlbmd0aEFkanVzdD0ic3BhY2luZyIgdGV4dExlbmd0aD0iNzciIHg9IjYyMjYuNzUiIHk9IjcwMS4yNDIyIj5EQU9DdXN0b21lcjwvdGV4dD48bGluZSBzdHlsZT0ic3Ryb2tlOiM2Njk5Q0M7c3Ryb2tlLXdpZHRoOjAuNTsiIHgxPSI2MTA3LjUiIHgyPSI2MzkwLjUiIHkxPSI3MTEuNSIgeTI9IjcxMS41Ii8+PGxpbmUgc3R5bGU9InN0cm9rZTojNjY5OUNDO3N0cm9rZS13aWR0aDowLjU7IiB4MT0iNjEwNy41IiB4Mj0iNjM5MC41IiB5MT0iNzE5LjUiIHkyPSI3MTkuNSIvPjxlbGxpcHNlIGN4PSI2MTE3LjUiIGN5PSI3MzIuNDkyMiIgZmlsbD0iIzg0QkU4NCIgcng9IjMiIHJ5PSIzIiBzdHlsZT0ic3Ryb2tlOiMwMzgwNDg7c3Ryb2tlLXdpZHRoOjE7Ii8+PHRleHQgZmlsbD0iIzAwMDAwMCIgZm9udC1mYW1pbHk9InNhbnMtc2VyaWYiIGZvbnQtc2l6ZT0iMTQiIGxlbmd0aEFkanVzdD0ic3BhY2luZyIgdGV4dExlbmd0aD0iMjU5IiB4PSI2MTI2LjUiIHk9IjczNi43MzQ0Ij5maW5kQ3VzdG9tZXJCeUlkKFN0cmluZyBpZCk6IEN1c3RvbWVyPC90ZXh0PjxlbGxpcHNlIGN4PSI2MTE3LjUiIGN5PSI3NDcuNDc2NiIgZmlsbD0iIzg0QkU4NCIgcng9IjMiIHJ5PSIzIiBzdHlsZT0ic3Ryb2tlOiMwMzgwNDg7c3Ryb2tlLXdpZHRoOjE7Ii8+PHRleHQgZmlsbD0iIzAwMDAwMCIgZm9udC1mYW1pbHk9InNhbnMtc2VyaWYiIGZvbnQtc2l6ZT0iMTQiIGxlbmd0aEFkanVzdD0ic3BhY2luZyIgdGV4dExlbmd0aD0iMjM4IiB4PSI2MTI2LjUiIHk9Ijc1MS43MTg4Ij5maW5kQWxsQ3VzdG9tZXJzKCk6IExpc3QmbHQ7Q3VzdG9tZXImZ3Q7PC90ZXh0PjxlbGxpcHNlIGN4PSI2MTE3LjUiIGN5PSI3NjIuNDYwOSIgZmlsbD0iIzg0QkU4NCIgcng9IjMiIHJ5PSIzIiBzdHlsZT0ic3Ryb2tlOiMwMzgwNDg7c3Ryb2tlLXdpZHRoOjE7Ii8+PHRleHQgZmlsbD0iIzAwMDAwMCIgZm9udC1mYW1pbHk9InNhbnMtc2VyaWYiIGZvbnQtc2l6ZT0iMTQiIGxlbmd0aEFkanVzdD0ic3BhY2luZyIgdGV4dExlbmd0aD0iMjE3IiB4PSI2MTI2LjUiIHk9Ijc2Ni43MDMxIj5zYXZlQ3VzdG9tZXIoQ3VzdG9tZXIpOiBib29sZWFuPC90ZXh0PjxlbGxpcHNlIGN4PSI2MTE3LjUiIGN5PSI3NzcuNDQ1MyIgZmlsbD0iIzg0QkU4NCIgcng9IjMiIHJ5PSIzIiBzdHlsZT0ic3Ryb2tlOiMwMzgwNDg7c3Ryb2tlLXdpZHRoOjE7Ii8+PHRleHQgZmlsbD0iIzAwMDAwMCIgZm9udC1mYW1pbHk9InNhbnMtc2VyaWYiIGZvbnQtc2l6ZT0iMTQiIGxlbmd0aEFkanVzdD0ic3BhY2luZyIgdGV4dExlbmd0aD0iMjM4IiB4PSI2MTI2LjUiIHk9Ijc4MS42ODc1Ij5kZWxldGVDdXN0b21lcihTdHJpbmcgaWQpOiBib29sZWFuPC90ZXh0PjwvZz48IS0tY2xhc3MgREFPT3JkZXJzLS0+PGcgY2xhc3M9ImVudGl0eSIgZGF0YS1lbnRpdHk9IkRBT09yZGVycyIgZGF0YS1zb3VyY2UtbGluZT0iMjYyIiBkYXRhLXVpZD0iZW50MDAzNCIgaWQ9ImVudGl0eV9EQU9PcmRlcnMiPjxyZWN0IGZpbGw9IiMzQzNGNDEiIGhlaWdodD0iMTA3LjkzNzUiIHJ4PSIyLjUiIHJ5PSIyLjUiIHN0eWxlPSJzdHJva2U6IzY2OTlDQztzdHJva2Utd2lkdGg6MC41OyIgd2lkdGg9IjIxNSIgeD0iNjc2MC41IiB5PSI2NzkuNSIvPjxlbGxpcHNlIGN4PSI2ODMyLjI1IiBjeT0iNjk1LjUiIGZpbGw9IiNCNEE3RTUiIHJ4PSIxMSIgcnk9IjExIiBzdHlsZT0ic3Ryb2tlOiMxODE4MTg7c3Ryb2tlLXdpZHRoOjE7Ii8+PHBhdGggZD0iTTY4MzUuMzc1LDcwMS41IEw2ODM1LjM3NSw2OTkuNzUgTDY4MzMuMjUsNjk5Ljc1IFE2ODMzLjI1LDY5OS43NSA2ODMzLjI1LDY5MS45Mzc1IEw2ODM1LjM3NSw2OTEuOTM3NSBMNjgzNS4zNzUsNjkwLjE4NzUgTDY4MjkuMzc1LDY5MC4xODc1IEw2ODI5LjM3NSw2OTEuOTM3NSBMNjgzMS41LDY5MS45Mzc1IFE2ODMxLjUsNjkxLjkzNzUgNjgzMS41LDY5OS43NSBMNjgyOS4zNzUsNjk5Ljc1IEw2ODI5LjM3NSw3MDEuNSBMNjgzNS4zNzUsNzAxLjUgWiAiIGZpbGw9IiMwMDAwMDAiLz48dGV4dCBmaWxsPSIjRkZGRkZGIiBmb250LWZhbWlseT0ic2Fucy1zZXJpZiIgZm9udC1zaXplPSIxNCIgZm9udC1zdHlsZT0iaXRhbGljIiBsZW5ndGhBZGp1c3Q9InNwYWNpbmciIHRleHRMZW5ndGg9IjYzIiB4PSI2ODUyLjc1IiB5PSI3MDEuMjQyMiI+REFPT3JkZXJzPC90ZXh0PjxsaW5lIHN0eWxlPSJzdHJva2U6IzY2OTlDQztzdHJva2Utd2lkdGg6MC41OyIgeDE9IjY3NjEuNSIgeDI9IjY5NzQuNSIgeTE9IjcxMS41IiB5Mj0iNzExLjUiLz48bGluZSBzdHlsZT0ic3Ryb2tlOiM2Njk5Q0M7c3Ryb2tlLXdpZHRoOjAuNTsiIHgxPSI2NzYxLjUiIHgyPSI2OTc0LjUiIHkxPSI3MTkuNSIgeTI9IjcxOS41Ii8+PGVsbGlwc2UgY3g9IjY3NzEuNSIgY3k9IjczMi40OTIyIiBmaWxsPSIjODRCRTg0IiByeD0iMyIgcnk9IjMiIHN0eWxlPSJzdHJva2U6IzAzODA0ODtzdHJva2Utd2lkdGg6MTsiLz48dGV4dCBmaWxsPSIjMDAwMDAwIiBmb250LWZhbWlseT0ic2Fucy1zZXJpZiIgZm9udC1zaXplPSIxNCIgbGVuZ3RoQWRqdXN0PSJzcGFjaW5nIiB0ZXh0TGVuZ3RoPSIxODkiIHg9IjY3ODAuNSIgeT0iNzM2LjczNDQiPmdldEFsbE9yZGVycygpOiBMaXN0Jmx0O09yZGVyJmd0OzwvdGV4dD48ZWxsaXBzZSBjeD0iNjc3MS41IiBjeT0iNzQ3LjQ3NjYiIGZpbGw9IiM4NEJFODQiIHJ4PSIzIiByeT0iMyIgc3R5bGU9InN0cm9rZTojMDM4MDQ4O3N0cm9rZS13aWR0aDoxOyIvPjx0ZXh0IGZpbGw9IiMwMDAwMDAiIGZvbnQtZmFtaWx5PSJzYW5zLXNlcmlmIiBmb250LXNpemU9IjE0IiBsZW5ndGhBZGp1c3Q9InNwYWNpbmciIHRleHRMZW5ndGg9IjE3NSIgeD0iNjc4MC41IiB5PSI3NTEuNzE4OCI+U2F2ZU9yZGVyKE9yZGVyKTogYm9vbGVhbjwvdGV4dD48ZWxsaXBzZSBjeD0iNjc3MS41IiBjeT0iNzYyLjQ2MDkiIGZpbGw9IiM4NEJFODQiIHJ4PSIzIiByeT0iMyIgc3R5bGU9InN0cm9rZTojMDM4MDQ4O3N0cm9rZS13aWR0aDoxOyIvPjx0ZXh0IGZpbGw9IiMwMDAwMDAiIGZvbnQtZmFtaWx5PSJzYW5zLXNlcmlmIiBmb250LXNpemU9IjE0IiBsZW5ndGhBZGp1c3Q9InNwYWNpbmciIHRleHRMZW5ndGg9IjE2OCIgeD0iNjc4MC41IiB5PSI3NjYuNzAzMSI+UmVtb3ZlT3JkZXIoT3JkZXIpOiB2b2lkPC90ZXh0PjxlbGxpcHNlIGN4PSI2NzcxLjUiIGN5PSI3NzcuNDQ1MyIgZmlsbD0iIzg0QkU4NCIgcng9IjMiIHJ5PSIzIiBzdHlsZT0ic3Ryb2tlOiMwMzgwNDg7c3Ryb2tlLXdpZHRoOjE7Ii8+PHRleHQgZmlsbD0iIzAwMDAwMCIgZm9udC1mYW1pbHk9InNhbnMtc2VyaWYiIGZvbnQtc2l6ZT0iMTQiIGxlbmd0aEFkanVzdD0ic3BhY2luZyIgdGV4dExlbmd0aD0iMTY4IiB4PSI2NzgwLjUiIHk9Ijc4MS42ODc1Ij5nZXRPcmRlckJ5SWQoaW50KTogT3JkZXI8L3RleHQ+PC9nPjwhLS1jbGFzcyBEQU9QYXltZW50cy0tPjxnIGNsYXNzPSJlbnRpdHkiIGRhdGEtZW50aXR5PSJEQU9QYXltZW50cyIgZGF0YS1zb3VyY2UtbGluZT0iMjY5IiBkYXRhLXVpZD0iZW50MDAzNSIgaWQ9ImVudGl0eV9EQU9QYXltZW50cyI+PHJlY3QgZmlsbD0iIzNDM0Y0MSIgaGVpZ2h0PSI5Mi45NTMxIiByeD0iMi41IiByeT0iMi41IiBzdHlsZT0ic3Ryb2tlOiM2Njk5Q0M7c3Ryb2tlLXdpZHRoOjAuNTsiIHdpZHRoPSIyNDMiIHg9IjcwMTAuNSIgeT0iNjg3Ii8+PGVsbGlwc2UgY3g9IjcwODkuMjUiIGN5PSI3MDMiIGZpbGw9IiNCNEE3RTUiIHJ4PSIxMSIgcnk9IjExIiBzdHlsZT0ic3Ryb2tlOiMxODE4MTg7c3Ryb2tlLXdpZHRoOjE7Ii8+PHBhdGggZD0iTTcwOTIuMzc1LDcwOSBMNzA5Mi4zNzUsNzA3LjI1IEw3MDkwLjI1LDcwNy4yNSBRNzA5MC4yNSw3MDcuMjUgNzA5MC4yNSw2OTkuNDM3NSBMNzA5Mi4zNzUsNjk5LjQzNzUgTDcwOTIuMzc1LDY5Ny42ODc1IEw3MDg2LjM3NSw2OTcuNjg3NSBMNzA4Ni4zNzUsNjk5LjQzNzUgTDcwODguNSw2OTkuNDM3NSBRNzA4OC41LDY5OS40Mzc1IDcwODguNSw3MDcuMjUgTDcwODYuMzc1LDcwNy4yNSBMNzA4Ni4zNzUsNzA5IEw3MDkyLjM3NSw3MDkgWiAiIGZpbGw9IiMwMDAwMDAiLz48dGV4dCBmaWxsPSIjRkZGRkZGIiBmb250LWZhbWlseT0ic2Fucy1zZXJpZiIgZm9udC1zaXplPSIxNCIgZm9udC1zdHlsZT0iaXRhbGljIiBsZW5ndGhBZGp1c3Q9InNwYWNpbmciIHRleHRMZW5ndGg9Ijc3IiB4PSI3MTA5Ljc1IiB5PSI3MDguNzQyMiI+REFPUGF5bWVudHM8L3RleHQ+PGxpbmUgc3R5bGU9InN0cm9rZTojNjY5OUNDO3N0cm9rZS13aWR0aDowLjU7IiB4MT0iNzAxMS41IiB4Mj0iNzI1Mi41IiB5MT0iNzE5IiB5Mj0iNzE5Ii8+PGxpbmUgc3R5bGU9InN0cm9rZTojNjY5OUNDO3N0cm9rZS13aWR0aDowLjU7IiB4MT0iNzAxMS41IiB4Mj0iNzI1Mi41IiB5MT0iNzI3IiB5Mj0iNzI3Ii8+PGVsbGlwc2UgY3g9IjcwMjEuNSIgY3k9IjczOS45OTIyIiBmaWxsPSIjODRCRTg0IiByeD0iMyIgcnk9IjMiIHN0eWxlPSJzdHJva2U6IzAzODA0ODtzdHJva2Utd2lkdGg6MTsiLz48dGV4dCBmaWxsPSIjMDAwMDAwIiBmb250LWZhbWlseT0ic2Fucy1zZXJpZiIgZm9udC1zaXplPSIxNCIgbGVuZ3RoQWRqdXN0PSJzcGFjaW5nIiB0ZXh0TGVuZ3RoPSIyMTciIHg9IjcwMzAuNSIgeT0iNzQ0LjIzNDQiPmNyZWF0ZVBheW1lbnQoUGF5bWVudCk6IFBheW1lbnQ8L3RleHQ+PGVsbGlwc2UgY3g9IjcwMjEuNSIgY3k9Ijc1NC45NzY2IiBmaWxsPSIjODRCRTg0IiByeD0iMyIgcnk9IjMiIHN0eWxlPSJzdHJva2U6IzAzODA0ODtzdHJva2Utd2lkdGg6MTsiLz48dGV4dCBmaWxsPSIjMDAwMDAwIiBmb250LWZhbWlseT0ic2Fucy1zZXJpZiIgZm9udC1zaXplPSIxNCIgbGVuZ3RoQWRqdXN0PSJzcGFjaW5nIiB0ZXh0TGVuZ3RoPSIxNzUiIHg9IjcwMzAuNSIgeT0iNzU5LjIxODgiPnJlYWRQYXltZW50KGludCk6IFBheW1lbnQ8L3RleHQ+PGVsbGlwc2UgY3g9IjcwMjEuNSIgY3k9Ijc2OS45NjA5IiBmaWxsPSIjODRCRTg0IiByeD0iMyIgcnk9IjMiIHN0eWxlPSJzdHJva2U6IzAzODA0ODtzdHJva2Utd2lkdGg6MTsiLz48dGV4dCBmaWxsPSIjMDAwMDAwIiBmb250LWZhbWlseT0ic2Fucy1zZXJpZiIgZm9udC1zaXplPSIxNCIgbGVuZ3RoQWRqdXN0PSJzcGFjaW5nIiB0ZXh0TGVuZ3RoPSIxNjgiIHg9IjcwMzAuNSIgeT0iNzc0LjIwMzEiPmRlbGV0ZVBheW1lbnQoaW50KTogdm9pZDwvdGV4dD48L2c+PCEtLWNsYXNzIERBT1Jlc2VydmF0aW9ucy0tPjxnIGNsYXNzPSJlbnRpdHkiIGRhdGEtZW50aXR5PSJEQU9SZXNlcnZhdGlvbnMiIGRhdGEtc291cmNlLWxpbmU9IjI3NSIgZGF0YS11aWQ9ImVudDAwMzYiIGlkPSJlbnRpdHlfREFPUmVzZXJ2YXRpb25zIj48cmVjdCBmaWxsPSIjM0MzRjQxIiBoZWlnaHQ9IjkyLjk1MzEiIHJ4PSIyLjUiIHJ5PSIyLjUiIHN0eWxlPSJzdHJva2U6IzY2OTlDQztzdHJva2Utd2lkdGg6MC41OyIgd2lkdGg9IjI5OSIgeD0iNjQyNi41IiB5PSI2ODciLz48ZWxsaXBzZSBjeD0iNjUxOS4yNSIgY3k9IjcwMyIgZmlsbD0iI0I0QTdFNSIgcng9IjExIiByeT0iMTEiIHN0eWxlPSJzdHJva2U6IzE4MTgxODtzdHJva2Utd2lkdGg6MTsiLz48cGF0aCBkPSJNNjUyMi4zNzUsNzA5IEw2NTIyLjM3NSw3MDcuMjUgTDY1MjAuMjUsNzA3LjI1IFE2NTIwLjI1LDcwNy4yNSA2NTIwLjI1LDY5OS40Mzc1IEw2NTIyLjM3NSw2OTkuNDM3NSBMNjUyMi4zNzUsNjk3LjY4NzUgTDY1MTYuMzc1LDY5Ny42ODc1IEw2NTE2LjM3NSw2OTkuNDM3NSBMNjUxOC41LDY5OS40Mzc1IFE2NTE4LjUsNjk5LjQzNzUgNjUxOC41LDcwNy4yNSBMNjUxNi4zNzUsNzA3LjI1IEw2NTE2LjM3NSw3MDkgTDY1MjIuMzc1LDcwOSBaICIgZmlsbD0iIzAwMDAwMCIvPjx0ZXh0IGZpbGw9IiNGRkZGRkYiIGZvbnQtZmFtaWx5PSJzYW5zLXNlcmlmIiBmb250LXNpemU9IjE0IiBmb250LXN0eWxlPSJpdGFsaWMiIGxlbmd0aEFkanVzdD0ic3BhY2luZyIgdGV4dExlbmd0aD0iMTA1IiB4PSI2NTM5Ljc1IiB5PSI3MDguNzQyMiI+REFPUmVzZXJ2YXRpb25zPC90ZXh0PjxsaW5lIHN0eWxlPSJzdHJva2U6IzY2OTlDQztzdHJva2Utd2lkdGg6MC41OyIgeDE9IjY0MjcuNSIgeDI9IjY3MjQuNSIgeTE9IjcxOSIgeTI9IjcxOSIvPjxsaW5lIHN0eWxlPSJzdHJva2U6IzY2OTlDQztzdHJva2Utd2lkdGg6MC41OyIgeDE9IjY0MjcuNSIgeDI9IjY3MjQuNSIgeTE9IjcyNyIgeTI9IjcyNyIvPjxlbGxpcHNlIGN4PSI2NDM3LjUiIGN5PSI3MzkuOTkyMiIgZmlsbD0iIzg0QkU4NCIgcng9IjMiIHJ5PSIzIiBzdHlsZT0ic3Ryb2tlOiMwMzgwNDg7c3Ryb2tlLXdpZHRoOjE7Ii8+PHRleHQgZmlsbD0iIzAwMDAwMCIgZm9udC1mYW1pbHk9InNhbnMtc2VyaWYiIGZvbnQtc2l6ZT0iMTQiIGxlbmd0aEFkanVzdD0ic3BhY2luZyIgdGV4dExlbmd0aD0iMjM4IiB4PSI2NDQ2LjUiIHk9Ijc0NC4yMzQ0Ij5TYXZlUmVzZXJ2YXRpb24oUmVzZXJ2YXRpb24pOiB2b2lkPC90ZXh0PjxlbGxpcHNlIGN4PSI2NDM3LjUiIGN5PSI3NTQuOTc2NiIgZmlsbD0iIzg0QkU4NCIgcng9IjMiIHJ5PSIzIiBzdHlsZT0ic3Ryb2tlOiMwMzgwNDg7c3Ryb2tlLXdpZHRoOjE7Ii8+PHRleHQgZmlsbD0iIzAwMDAwMCIgZm9udC1mYW1pbHk9InNhbnMtc2VyaWYiIGZvbnQtc2l6ZT0iMTQiIGxlbmd0aEFkanVzdD0ic3BhY2luZyIgdGV4dExlbmd0aD0iMjUyIiB4PSI2NDQ2LjUiIHk9Ijc1OS4yMTg4Ij5SZW1vdmVSZXNlcnZhdGlvbihSZXNlcnZhdGlvbik6IHZvaWQ8L3RleHQ+PGVsbGlwc2UgY3g9IjY0MzcuNSIgY3k9Ijc2OS45NjA5IiBmaWxsPSIjODRCRTg0IiByeD0iMyIgcnk9IjMiIHN0eWxlPSJzdHJva2U6IzAzODA0ODtzdHJva2Utd2lkdGg6MTsiLz48dGV4dCBmaWxsPSIjMDAwMDAwIiBmb250LWZhbWlseT0ic2Fucy1zZXJpZiIgZm9udC1zaXplPSIxNCIgbGVuZ3RoQWRqdXN0PSJzcGFjaW5nIiB0ZXh0TGVuZ3RoPSIyNzMiIHg9IjY0NDYuNSIgeT0iNzc0LjIwMzEiPmdldEFsbFJlc2VydmF0aW9ucygpOiBMaXN0Jmx0O1Jlc2VydmF0aW9uJmd0OzwvdGV4dD48L2c+PCEtLWNsYXNzIERBT1RhYmxlLS0+PGcgY2xhc3M9ImVudGl0eSIgZGF0YS1lbnRpdHk9IkRBT1RhYmxlIiBkYXRhLXNvdXJjZS1saW5lPSIyODEiIGRhdGEtdWlkPSJlbnQwMDM3IiBpZD0iZW50aXR5X0RBT1RhYmxlIj48cmVjdCBmaWxsPSIjM0MzRjQxIiBoZWlnaHQ9Ijc3Ljk2ODgiIHJ4PSIyLjUiIHJ5PSIyLjUiIHN0eWxlPSJzdHJva2U6IzY2OTlDQztzdHJva2Utd2lkdGg6MC41OyIgd2lkdGg9IjIzNiIgeD0iNzI4OSIgeT0iNjk0LjUiLz48ZWxsaXBzZSBjeD0iNzM3NC43NSIgY3k9IjcxMC41IiBmaWxsPSIjQjRBN0U1IiByeD0iMTEiIHJ5PSIxMSIgc3R5bGU9InN0cm9rZTojMTgxODE4O3N0cm9rZS13aWR0aDoxOyIvPjxwYXRoIGQ9Ik03Mzc3Ljg3NSw3MTYuNSBMNzM3Ny44NzUsNzE0Ljc1IEw3Mzc1Ljc1LDcxNC43NSBRNzM3NS43NSw3MTQuNzUgNzM3NS43NSw3MDYuOTM3NSBMNzM3Ny44NzUsNzA2LjkzNzUgTDczNzcuODc1LDcwNS4xODc1IEw3MzcxLjg3NSw3MDUuMTg3NSBMNzM3MS44NzUsNzA2LjkzNzUgTDczNzQsNzA2LjkzNzUgUTczNzQsNzA2LjkzNzUgNzM3NCw3MTQuNzUgTDczNzEuODc1LDcxNC43NSBMNzM3MS44NzUsNzE2LjUgTDczNzcuODc1LDcxNi41IFogIiBmaWxsPSIjMDAwMDAwIi8+PHRleHQgZmlsbD0iI0ZGRkZGRiIgZm9udC1mYW1pbHk9InNhbnMtc2VyaWYiIGZvbnQtc2l6ZT0iMTQiIGZvbnQtc3R5bGU9Iml0YWxpYyIgbGVuZ3RoQWRqdXN0PSJzcGFjaW5nIiB0ZXh0TGVuZ3RoPSI1NiIgeD0iNzM5NS4yNSIgeT0iNzE2LjI0MjIiPkRBT1RhYmxlPC90ZXh0PjxsaW5lIHN0eWxlPSJzdHJva2U6IzY2OTlDQztzdHJva2Utd2lkdGg6MC41OyIgeDE9IjcyOTAiIHgyPSI3NTI0IiB5MT0iNzI2LjUiIHkyPSI3MjYuNSIvPjxsaW5lIHN0eWxlPSJzdHJva2U6IzY2OTlDQztzdHJva2Utd2lkdGg6MC41OyIgeDE9IjcyOTAiIHgyPSI3NTI0IiB5MT0iNzM0LjUiIHkyPSI3MzQuNSIvPjxlbGxpcHNlIGN4PSI3MzAwIiBjeT0iNzQ3LjQ5MjIiIGZpbGw9IiM4NEJFODQiIHJ4PSIzIiByeT0iMyIgc3R5bGU9InN0cm9rZTojMDM4MDQ4O3N0cm9rZS13aWR0aDoxOyIvPjx0ZXh0IGZpbGw9IiMwMDAwMDAiIGZvbnQtZmFtaWx5PSJzYW5zLXNlcmlmIiBmb250LXNpemU9IjE0IiBsZW5ndGhBZGp1c3Q9InNwYWNpbmciIHRleHRMZW5ndGg9IjE0NyIgeD0iNzMwOSIgeT0iNzUxLjczNDQiPmFkZFRhYmxlKFRhYmxlKTogdm9pZDwvdGV4dD48ZWxsaXBzZSBjeD0iNzMwMCIgY3k9Ijc2Mi40NzY2IiBmaWxsPSIjODRCRTg0IiByeD0iMyIgcnk9IjMiIHN0eWxlPSJzdHJva2U6IzAzODA0ODtzdHJva2Utd2lkdGg6MTsiLz48dGV4dCBmaWxsPSIjMDAwMDAwIiBmb250LWZhbWlseT0ic2Fucy1zZXJpZiIgZm9udC1zaXplPSIxNCIgbGVuZ3RoQWRqdXN0PSJzcGFjaW5nIiB0ZXh0TGVuZ3RoPSIyMTAiIHg9IjczMDkiIHk9Ijc2Ni43MTg4Ij51cGRhdGVUYWJsZVN0YXR1cyhUYWJsZSk6IHZvaWQ8L3RleHQ+PC9nPjwhLS1jbGFzcyBEQU9DUlVETWFuYWdlci0tPjxnIGNsYXNzPSJlbnRpdHkiIGRhdGEtZW50aXR5PSJEQU9DUlVETWFuYWdlciIgZGF0YS1zb3VyY2UtbGluZT0iMjg2IiBkYXRhLXVpZD0iZW50MDAzOCIgaWQ9ImVudGl0eV9EQU9DUlVETWFuYWdlciI+PHJlY3QgZmlsbD0iIzNDM0Y0MSIgaGVpZ2h0PSI0MjIuNjA5NCIgcng9IjIuNSIgcnk9IjIuNSIgc3R5bGU9InN0cm9rZTojNjY5OUNDO3N0cm9rZS13aWR0aDowLjU7IiB3aWR0aD0iNjU2IiB4PSI2NjcyIiB5PSIzOSIvPjxlbGxpcHNlIGN4PSI2OTQ2Ljc1IiBjeT0iNTUiIGZpbGw9IiNBREQxQjIiIHJ4PSIxMSIgcnk9IjExIiBzdHlsZT0ic3Ryb2tlOiMxODE4MTg7c3Ryb2tlLXdpZHRoOjE7Ii8+PHBhdGggZD0iTTY5NDQuMzc1LDU5LjI1IEw2OTQ0LjM3NSw2MSBMNjk0OS4zMTI1LDYxIEw2OTQ5LjMxMjUsNTkuMjUgTDY5NDQuMzc1LDU5LjI1IFogTTY5NDUuMDYyNSw1OS45Mzc1IFE2OTQ1LjA2MjUsNTkuOTM3NSA2OTQ1LjA2MjUsNTAuNzUgTDY5NDMuMzEyNSw1MC43NSBRNjk0My4zMTI1LDUwLjc1IDY5NDMuMzEyNSw1OS45Mzc1IEw2OTQ1LjA2MjUsNTkuOTM3NSBaIE02OTQ4LjYyNSw1OS45Mzc1IEw2OTUwLjM3NSw1OS45Mzc1IFE2OTUwLjM3NSw1OS45Mzc1IDY5NTAuMzc1LDU3LjEyNSBMNjk0OC42MjUsNTcuMTI1IFE2OTQ4LjYyNSw1Ny4xMjUgNjk0OC42MjUsNTkuOTM3NSBaIE02OTQ4LjYyNSw1MC43NSBRNjk0OC42MjUsNTAuNzUgNjk0OC42MjUsNTMuNTYyNSBMNjk1MC4zNzUsNTMuNTYyNSBRNjk1MC4zNzUsNTMuNTYyNSA2OTUwLjM3NSw1MC43NSBMNjk0OC42MjUsNTAuNzUgWiBNNjk0NC4zNzUsNTEuNDM3NSBMNjk0OS4zMTI1LDUxLjQzNzUgTDY5NDkuMzEyNSw0OS42ODc1IEw2OTQ0LjM3NSw0OS42ODc1IEw2OTQ0LjM3NSw1MS40Mzc1IFogIiBmaWxsPSIjMDAwMDAwIi8+PHRleHQgZmlsbD0iI0ZGRkZGRiIgZm9udC1mYW1pbHk9InNhbnMtc2VyaWYiIGZvbnQtc2l6ZT0iMTQiIGxlbmd0aEFkanVzdD0ic3BhY2luZyIgdGV4dExlbmd0aD0iOTgiIHg9IjY5NjcuMjUiIHk9IjYwLjc0MjIiPkRBT0NSVURNYW5hZ2VyPC90ZXh0PjxsaW5lIHN0eWxlPSJzdHJva2U6IzY2OTlDQztzdHJva2Utd2lkdGg6MC41OyIgeDE9IjY2NzMiIHgyPSI3MzI3IiB5MT0iNzEiIHkyPSI3MSIvPjxsaW5lIHN0eWxlPSJzdHJva2U6IzY2OTlDQztzdHJva2Utd2lkdGg6MC41OyIgeDE9IjY2NzMiIHgyPSI3MzI3IiB5MT0iNzkiIHkyPSI3OSIvPjxlbGxpcHNlIGN4PSI2NjgzIiBjeT0iOTEuOTkyMiIgZmlsbD0iIzg0QkU4NCIgcng9IjMiIHJ5PSIzIiBzdHlsZT0ic3Ryb2tlOiMwMzgwNDg7c3Ryb2tlLXdpZHRoOjE7Ii8+PHRleHQgZmlsbD0iIzAwMDAwMCIgZm9udC1mYW1pbHk9InNhbnMtc2VyaWYiIGZvbnQtc2l6ZT0iMTQiIGxlbmd0aEFkanVzdD0ic3BhY2luZyIgdGV4dExlbmd0aD0iMTY4IiB4PSI2NjkyIiB5PSI5Ni4yMzQ0Ij5nZXRPcmRlckJ5SWQoaW50KTogT3JkZXI8L3RleHQ+PGVsbGlwc2UgY3g9IjY2ODMiIGN5PSIxMDYuOTc2NiIgZmlsbD0iIzg0QkU4NCIgcng9IjMiIHJ5PSIzIiBzdHlsZT0ic3Ryb2tlOiMwMzgwNDg7c3Ryb2tlLXdpZHRoOjE7Ii8+PHRleHQgZmlsbD0iIzAwMDAwMCIgZm9udC1mYW1pbHk9InNhbnMtc2VyaWYiIGZvbnQtc2l6ZT0iMTQiIGxlbmd0aEFkanVzdD0ic3BhY2luZyIgdGV4dExlbmd0aD0iMTg5IiB4PSI2NjkyIiB5PSIxMTEuMjE4OCI+Z2V0QWxsT3JkZXJzKCk6IExpc3QmbHQ7T3JkZXImZ3Q7PC90ZXh0PjxlbGxpcHNlIGN4PSI2NjgzIiBjeT0iMTIxLjk2MDkiIGZpbGw9IiM4NEJFODQiIHJ4PSIzIiByeT0iMyIgc3R5bGU9InN0cm9rZTojMDM4MDQ4O3N0cm9rZS13aWR0aDoxOyIvPjx0ZXh0IGZpbGw9IiMwMDAwMDAiIGZvbnQtZmFtaWx5PSJzYW5zLXNlcmlmIiBmb250LXNpemU9IjE0IiBsZW5ndGhBZGp1c3Q9InNwYWNpbmciIHRleHRMZW5ndGg9IjE3NSIgeD0iNjY5MiIgeT0iMTI2LjIwMzEiPlNhdmVPcmRlcihPcmRlcik6IGJvb2xlYW48L3RleHQ+PGVsbGlwc2UgY3g9IjY2ODMiIGN5PSIxMzYuOTQ1MyIgZmlsbD0iIzg0QkU4NCIgcng9IjMiIHJ5PSIzIiBzdHlsZT0ic3Ryb2tlOiMwMzgwNDg7c3Ryb2tlLXdpZHRoOjE7Ii8+PHRleHQgZmlsbD0iIzAwMDAwMCIgZm9udC1mYW1pbHk9InNhbnMtc2VyaWYiIGZvbnQtc2l6ZT0iMTQiIGxlbmd0aEFkanVzdD0ic3BhY2luZyIgdGV4dExlbmd0aD0iMTY4IiB4PSI2NjkyIiB5PSIxNDEuMTg3NSI+UmVtb3ZlT3JkZXIoT3JkZXIpOiB2b2lkPC90ZXh0Pjx0ZXh0IGZpbGw9IiMwMDAwMDAiIGZvbnQtZmFtaWx5PSJzYW5zLXNlcmlmIiBmb250LXNpemU9IjE0IiBsZW5ndGhBZGp1c3Q9InNwYWNpbmciIHRleHRMZW5ndGg9IjciIHg9IjY2OTIiIHk9IjE1Ni4xNzE5Ij4mIzE2MDs8L3RleHQ+PGVsbGlwc2UgY3g9IjY2ODMiIGN5PSIxNjYuOTE0MSIgZmlsbD0iIzg0QkU4NCIgcng9IjMiIHJ5PSIzIiBzdHlsZT0ic3Ryb2tlOiMwMzgwNDg7c3Ryb2tlLXdpZHRoOjE7Ii8+PHRleHQgZmlsbD0iIzAwMDAwMCIgZm9udC1mYW1pbHk9InNhbnMtc2VyaWYiIGZvbnQtc2l6ZT0iMTQiIGxlbmd0aEFkanVzdD0ic3BhY2luZyIgdGV4dExlbmd0aD0iMjM4IiB4PSI2NjkyIiB5PSIxNzEuMTU2MyI+U2F2ZVJlc2VydmF0aW9uKFJlc2VydmF0aW9uKTogdm9pZDwvdGV4dD48ZWxsaXBzZSBjeD0iNjY4MyIgY3k9IjE4MS44OTg0IiBmaWxsPSIjODRCRTg0IiByeD0iMyIgcnk9IjMiIHN0eWxlPSJzdHJva2U6IzAzODA0ODtzdHJva2Utd2lkdGg6MTsiLz48dGV4dCBmaWxsPSIjMDAwMDAwIiBmb250LWZhbWlseT0ic2Fucy1zZXJpZiIgZm9udC1zaXplPSIxNCIgbGVuZ3RoQWRqdXN0PSJzcGFjaW5nIiB0ZXh0TGVuZ3RoPSIyNTIiIHg9IjY2OTIiIHk9IjE4Ni4xNDA2Ij5SZW1vdmVSZXNlcnZhdGlvbihSZXNlcnZhdGlvbik6IHZvaWQ8L3RleHQ+PGVsbGlwc2UgY3g9IjY2ODMiIGN5PSIxOTYuODgyOCIgZmlsbD0iIzg0QkU4NCIgcng9IjMiIHJ5PSIzIiBzdHlsZT0ic3Ryb2tlOiMwMzgwNDg7c3Ryb2tlLXdpZHRoOjE7Ii8+PHRleHQgZmlsbD0iIzAwMDAwMCIgZm9udC1mYW1pbHk9InNhbnMtc2VyaWYiIGZvbnQtc2l6ZT0iMTQiIGxlbmd0aEFkanVzdD0ic3BhY2luZyIgdGV4dExlbmd0aD0iMjczIiB4PSI2NjkyIiB5PSIyMDEuMTI1Ij5nZXRBbGxSZXNlcnZhdGlvbnMoKTogTGlzdCZsdDtSZXNlcnZhdGlvbiZndDs8L3RleHQ+PHRleHQgZmlsbD0iIzAwMDAwMCIgZm9udC1mYW1pbHk9InNhbnMtc2VyaWYiIGZvbnQtc2l6ZT0iMTQiIGxlbmd0aEFkanVzdD0ic3BhY2luZyIgdGV4dExlbmd0aD0iNyIgeD0iNjY5MiIgeT0iMjE2LjEwOTQiPiYjMTYwOzwvdGV4dD48ZWxsaXBzZSBjeD0iNjY4MyIgY3k9IjIyNi44NTE2IiBmaWxsPSIjODRCRTg0IiByeD0iMyIgcnk9IjMiIHN0eWxlPSJzdHJva2U6IzAzODA0ODtzdHJva2Utd2lkdGg6MTsiLz48dGV4dCBmaWxsPSIjMDAwMDAwIiBmb250LWZhbWlseT0ic2Fucy1zZXJpZiIgZm9udC1zaXplPSIxNCIgbGVuZ3RoQWRqdXN0PSJzcGFjaW5nIiB0ZXh0TGVuZ3RoPSIyMTciIHg9IjY2OTIiIHk9IjIzMS4wOTM4Ij5jcmVhdGVQYXltZW50KFBheW1lbnQpOiBQYXltZW50PC90ZXh0PjxlbGxpcHNlIGN4PSI2NjgzIiBjeT0iMjQxLjgzNTkiIGZpbGw9IiM4NEJFODQiIHJ4PSIzIiByeT0iMyIgc3R5bGU9InN0cm9rZTojMDM4MDQ4O3N0cm9rZS13aWR0aDoxOyIvPjx0ZXh0IGZpbGw9IiMwMDAwMDAiIGZvbnQtZmFtaWx5PSJzYW5zLXNlcmlmIiBmb250LXNpemU9IjE0IiBsZW5ndGhBZGp1c3Q9InNwYWNpbmciIHRleHRMZW5ndGg9IjE3NSIgeD0iNjY5MiIgeT0iMjQ2LjA3ODEiPnJlYWRQYXltZW50KGludCk6IFBheW1lbnQ8L3RleHQ+PGVsbGlwc2UgY3g9IjY2ODMiIGN5PSIyNTYuODIwMyIgZmlsbD0iIzg0QkU4NCIgcng9IjMiIHJ5PSIzIiBzdHlsZT0ic3Ryb2tlOiMwMzgwNDg7c3Ryb2tlLXdpZHRoOjE7Ii8+PHRleHQgZmlsbD0iIzAwMDAwMCIgZm9udC1mYW1pbHk9InNhbnMtc2VyaWYiIGZvbnQtc2l6ZT0iMTQiIGxlbmd0aEFkanVzdD0ic3BhY2luZyIgdGV4dExlbmd0aD0iMTY4IiB4PSI2NjkyIiB5PSIyNjEuMDYyNSI+ZGVsZXRlUGF5bWVudChpbnQpOiB2b2lkPC90ZXh0PjxlbGxpcHNlIGN4PSI2NjgzIiBjeT0iMjcxLjgwNDciIGZpbGw9IiM4NEJFODQiIHJ4PSIzIiByeT0iMyIgc3R5bGU9InN0cm9rZTojMDM4MDQ4O3N0cm9rZS13aWR0aDoxOyIvPjx0ZXh0IGZpbGw9IiMwMDAwMDAiIGZvbnQtZmFtaWx5PSJzYW5zLXNlcmlmIiBmb250LXNpemU9IjE0IiBsZW5ndGhBZGp1c3Q9InNwYWNpbmciIHRleHRMZW5ndGg9IjIxNyIgeD0iNjY5MiIgeT0iMjc2LjA0NjkiPmdldEFsbFBheW1lbnRzKCk6IExpc3QmbHQ7UGF5bWVudCZndDs8L3RleHQ+PHRleHQgZmlsbD0iIzAwMDAwMCIgZm9udC1mYW1pbHk9InNhbnMtc2VyaWYiIGZvbnQtc2l6ZT0iMTQiIGxlbmd0aEFkanVzdD0ic3BhY2luZyIgdGV4dExlbmd0aD0iNyIgeD0iNjY5MiIgeT0iMjkxLjAzMTMiPiYjMTYwOzwvdGV4dD48ZWxsaXBzZSBjeD0iNjY4MyIgY3k9IjMwMS43NzM0IiBmaWxsPSIjODRCRTg0IiByeD0iMyIgcnk9IjMiIHN0eWxlPSJzdHJva2U6IzAzODA0ODtzdHJva2Utd2lkdGg6MTsiLz48dGV4dCBmaWxsPSIjMDAwMDAwIiBmb250LWZhbWlseT0ic2Fucy1zZXJpZiIgZm9udC1zaXplPSIxNCIgbGVuZ3RoQWRqdXN0PSJzcGFjaW5nIiB0ZXh0TGVuZ3RoPSIxNDciIHg9IjY2OTIiIHk9IjMwNi4wMTU2Ij5hZGRUYWJsZShUYWJsZSk6IHZvaWQ8L3RleHQ+PGVsbGlwc2UgY3g9IjY2ODMiIGN5PSIzMTYuNzU3OCIgZmlsbD0iIzg0QkU4NCIgcng9IjMiIHJ5PSIzIiBzdHlsZT0ic3Ryb2tlOiMwMzgwNDg7c3Ryb2tlLXdpZHRoOjE7Ii8+PHRleHQgZmlsbD0iIzAwMDAwMCIgZm9udC1mYW1pbHk9InNhbnMtc2VyaWYiIGZvbnQtc2l6ZT0iMTQiIGxlbmd0aEFkanVzdD0ic3BhY2luZyIgdGV4dExlbmd0aD0iMjEwIiB4PSI2NjkyIiB5PSIzMjEiPnVwZGF0ZVRhYmxlU3RhdHVzKFRhYmxlKTogdm9pZDwvdGV4dD48dGV4dCBmaWxsPSIjMDAwMDAwIiBmb250LWZhbWlseT0ic2Fucy1zZXJpZiIgZm9udC1zaXplPSIxNCIgbGVuZ3RoQWRqdXN0PSJzcGFjaW5nIiB0ZXh0TGVuZ3RoPSI3IiB4PSI2NjkyIiB5PSIzMzUuOTg0NCI+JiMxNjA7PC90ZXh0PjxlbGxpcHNlIGN4PSI2NjgzIiBjeT0iMzQ2LjcyNjYiIGZpbGw9IiM4NEJFODQiIHJ4PSIzIiByeT0iMyIgc3R5bGU9InN0cm9rZTojMDM4MDQ4O3N0cm9rZS13aWR0aDoxOyIvPjx0ZXh0IGZpbGw9IiMwMDAwMDAiIGZvbnQtZmFtaWx5PSJzYW5zLXNlcmlmIiBmb250LXNpemU9IjE0IiBsZW5ndGhBZGp1c3Q9InNwYWNpbmciIHRleHRMZW5ndGg9IjIzOCIgeD0iNjY5MiIgeT0iMzUwLjk2ODgiPmZpbmRDdXN0b21lckJ5SWQoU3RyaW5nKTogQ3VzdG9tZXI8L3RleHQ+PGVsbGlwc2UgY3g9IjY2ODMiIGN5PSIzNjEuNzEwOSIgZmlsbD0iIzg0QkU4NCIgcng9IjMiIHJ5PSIzIiBzdHlsZT0ic3Ryb2tlOiMwMzgwNDg7c3Ryb2tlLXdpZHRoOjE7Ii8+PHRleHQgZmlsbD0iIzAwMDAwMCIgZm9udC1mYW1pbHk9InNhbnMtc2VyaWYiIGZvbnQtc2l6ZT0iMTQiIGxlbmd0aEFkanVzdD0ic3BhY2luZyIgdGV4dExlbmd0aD0iMjM4IiB4PSI2NjkyIiB5PSIzNjUuOTUzMSI+ZmluZEFsbEN1c3RvbWVycygpOiBMaXN0Jmx0O0N1c3RvbWVyJmd0OzwvdGV4dD48ZWxsaXBzZSBjeD0iNjY4MyIgY3k9IjM3Ni42OTUzIiBmaWxsPSIjODRCRTg0IiByeD0iMyIgcnk9IjMiIHN0eWxlPSJzdHJva2U6IzAzODA0ODtzdHJva2Utd2lkdGg6MTsiLz48dGV4dCBmaWxsPSIjMDAwMDAwIiBmb250LWZhbWlseT0ic2Fucy1zZXJpZiIgZm9udC1zaXplPSIxNCIgbGVuZ3RoQWRqdXN0PSJzcGFjaW5nIiB0ZXh0TGVuZ3RoPSIyMTciIHg9IjY2OTIiIHk9IjM4MC45Mzc1Ij5zYXZlQ3VzdG9tZXIoQ3VzdG9tZXIpOiBib29sZWFuPC90ZXh0PjxlbGxpcHNlIGN4PSI2NjgzIiBjeT0iMzkxLjY3OTciIGZpbGw9IiM4NEJFODQiIHJ4PSIzIiByeT0iMyIgc3R5bGU9InN0cm9rZTojMDM4MDQ4O3N0cm9rZS13aWR0aDoxOyIvPjx0ZXh0IGZpbGw9IiMwMDAwMDAiIGZvbnQtZmFtaWx5PSJzYW5zLXNlcmlmIiBmb250LXNpemU9IjE0IiBsZW5ndGhBZGp1c3Q9InNwYWNpbmciIHRleHRMZW5ndGg9IjIxNyIgeD0iNjY5MiIgeT0iMzk1LjkyMTkiPmRlbGV0ZUN1c3RvbWVyKFN0cmluZyk6IGJvb2xlYW48L3RleHQ+PHRleHQgZmlsbD0iIzAwMDAwMCIgZm9udC1mYW1pbHk9InNhbnMtc2VyaWYiIGZvbnQtc2l6ZT0iMTQiIGxlbmd0aEFkanVzdD0ic3BhY2luZyIgdGV4dExlbmd0aD0iNyIgeD0iNjY5MiIgeT0iNDEwLjkwNjMiPiYjMTYwOzwvdGV4dD48ZWxsaXBzZSBjeD0iNjY4MyIgY3k9IjQyMS42NDg0IiBmaWxsPSIjODRCRTg0IiByeD0iMyIgcnk9IjMiIHN0eWxlPSJzdHJva2U6IzAzODA0ODtzdHJva2Utd2lkdGg6MTsiLz48dGV4dCBmaWxsPSIjMDAwMDAwIiBmb250LWZhbWlseT0ic2Fucy1zZXJpZiIgZm9udC1zaXplPSIxNCIgbGVuZ3RoQWRqdXN0PSJzcGFjaW5nIiB0ZXh0TGVuZ3RoPSI0MDYiIHg9IjY2OTIiIHk9IjQyNS44OTA2Ij5jcmVhdGVTZWxsYWJsZUl0ZW0oaW50LCBTdHJpbmcsIGRvdWJsZSwgU3RyaW5nKTogSVNlbGxhYmxlPC90ZXh0PjxlbGxpcHNlIGN4PSI2NjgzIiBjeT0iNDM2LjYzMjgiIGZpbGw9IiM4NEJFODQiIHJ4PSIzIiByeT0iMyIgc3R5bGU9InN0cm9rZTojMDM4MDQ4O3N0cm9rZS13aWR0aDoxOyIvPjx0ZXh0IGZpbGw9IiMwMDAwMDAiIGZvbnQtZmFtaWx5PSJzYW5zLXNlcmlmIiBmb250LXNpemU9IjE0IiBsZW5ndGhBZGp1c3Q9InNwYWNpbmciIHRleHRMZW5ndGg9IjI5NCIgeD0iNjY5MiIgeT0iNDQwLjg3NSI+dXBkYXRlQ3VzdG9tZXJMb3lhbHR5UG9pbnRzKFBheW1lbnQpOiB2b2lkPC90ZXh0PjxlbGxpcHNlIGN4PSI2NjgzIiBjeT0iNDUxLjYxNzIiIGZpbGw9IiM4NEJFODQiIHJ4PSIzIiByeT0iMyIgc3R5bGU9InN0cm9rZTojMDM4MDQ4O3N0cm9rZS13aWR0aDoxOyIvPjx0ZXh0IGZpbGw9IiMwMDAwMDAiIGZvbnQtZmFtaWx5PSJzYW5zLXNlcmlmIiBmb250LXNpemU9IjE0IiBsZW5ndGhBZGp1c3Q9InNwYWNpbmciIHRleHRMZW5ndGg9IjYzMCIgeD0iNjY5MiIgeT0iNDU1Ljg1OTQiPmNyZWF0ZUN1c3RvbWVySW5zdGFuY2UoU3RyaW5nLCBTdHJpbmcsIElSZXdhcmRhYmxlLlR5cGUsIFN0cmluZywgU3RyaW5nLCBkb3VibGUpOiBDdXN0b21lcjwvdGV4dD48L2c+PCEtLWNsYXNzIEN1c3RvbWVyU2VydmxldC0tPjxnIGNsYXNzPSJlbnRpdHkiIGRhdGEtZW50aXR5PSJDdXN0b21lclNlcnZsZXQiIGRhdGEtc291cmNlLWxpbmU9IjMyMiIgZGF0YS11aWQ9ImVudDAwNDUiIGlkPSJlbnRpdHlfQ3VzdG9tZXJTZXJ2bGV0Ij48cmVjdCBmaWxsPSIjM0MzRjQxIiBoZWlnaHQ9IjEyMi45MjE5IiByeD0iMi41IiByeT0iMi41IiBzdHlsZT0ic3Ryb2tlOiM2Njk5Q0M7c3Ryb2tlLXdpZHRoOjAuNTsiIHdpZHRoPSI0NTMiIHg9IjQwOTcuNSIgeT0iMTg5Ii8+PGVsbGlwc2UgY3g9IjQyNjcuMjUiIGN5PSIyMDUiIGZpbGw9IiNBREQxQjIiIHJ4PSIxMSIgcnk9IjExIiBzdHlsZT0ic3Ryb2tlOiMxODE4MTg7c3Ryb2tlLXdpZHRoOjE7Ii8+PHBhdGggZD0iTTQyNjQuODc1LDIwOS4yNSBMNDI2NC44NzUsMjExIEw0MjY5LjgxMjUsMjExIEw0MjY5LjgxMjUsMjA5LjI1IEw0MjY0Ljg3NSwyMDkuMjUgWiBNNDI2NS41NjI1LDIwOS45Mzc1IFE0MjY1LjU2MjUsMjA5LjkzNzUgNDI2NS41NjI1LDIwMC43NSBMNDI2My44MTI1LDIwMC43NSBRNDI2My44MTI1LDIwMC43NSA0MjYzLjgxMjUsMjA5LjkzNzUgTDQyNjUuNTYyNSwyMDkuOTM3NSBaIE00MjY5LjEyNSwyMDkuOTM3NSBMNDI3MC44NzUsMjA5LjkzNzUgUTQyNzAuODc1LDIwOS45Mzc1IDQyNzAuODc1LDIwNy4xMjUgTDQyNjkuMTI1LDIwNy4xMjUgUTQyNjkuMTI1LDIwNy4xMjUgNDI2OS4xMjUsMjA5LjkzNzUgWiBNNDI2OS4xMjUsMjAwLjc1IFE0MjY5LjEyNSwyMDAuNzUgNDI2OS4xMjUsMjAzLjU2MjUgTDQyNzAuODc1LDIwMy41NjI1IFE0MjcwLjg3NSwyMDMuNTYyNSA0MjcwLjg3NSwyMDAuNzUgTDQyNjkuMTI1LDIwMC43NSBaIE00MjY0Ljg3NSwyMDEuNDM3NSBMNDI2OS44MTI1LDIwMS40Mzc1IEw0MjY5LjgxMjUsMTk5LjY4NzUgTDQyNjQuODc1LDE5OS42ODc1IEw0MjY0Ljg3NSwyMDEuNDM3NSBaICIgZmlsbD0iIzAwMDAwMCIvPjx0ZXh0IGZpbGw9IiNGRkZGRkYiIGZvbnQtZmFtaWx5PSJzYW5zLXNlcmlmIiBmb250LXNpemU9IjE0IiBsZW5ndGhBZGp1c3Q9InNwYWNpbmciIHRleHRMZW5ndGg9IjEwNSIgeD0iNDI4Ny43NSIgeT0iMjEwLjc0MjIiPkN1c3RvbWVyU2VydmxldDwvdGV4dD48bGluZSBzdHlsZT0ic3Ryb2tlOiM2Njk5Q0M7c3Ryb2tlLXdpZHRoOjAuNTsiIHgxPSI0MDk4LjUiIHgyPSI0NTQ5LjUiIHkxPSIyMjEiIHkyPSIyMjEiLz48bGluZSBzdHlsZT0ic3Ryb2tlOiM2Njk5Q0M7c3Ryb2tlLXdpZHRoOjAuNTsiIHgxPSI0MDk4LjUiIHgyPSI0NTQ5LjUiIHkxPSIyMjkiIHkyPSIyMjkiLz48ZWxsaXBzZSBjeD0iNDEwOC41IiBjeT0iMjQxLjk5MjIiIGZpbGw9IiM4NEJFODQiIHJ4PSIzIiByeT0iMyIgc3R5bGU9InN0cm9rZTojMDM4MDQ4O3N0cm9rZS13aWR0aDoxOyIvPjx0ZXh0IGZpbGw9IiMwMDAwMDAiIGZvbnQtZmFtaWx5PSJzYW5zLXNlcmlmIiBmb250LXNpemU9IjE0IiBsZW5ndGhBZGp1c3Q9InNwYWNpbmciIHRleHRMZW5ndGg9IjM2NCIgeD0iNDExNy41IiB5PSIyNDYuMjM0NCI+ZG9HZXQoSHR0cFNlcnZsZXRSZXF1ZXN0LCBIdHRwU2VydmxldFJlc3BvbnNlKTogdm9pZDwvdGV4dD48ZWxsaXBzZSBjeD0iNDEwOC41IiBjeT0iMjU2Ljk3NjYiIGZpbGw9IiM4NEJFODQiIHJ4PSIzIiByeT0iMyIgc3R5bGU9InN0cm9rZTojMDM4MDQ4O3N0cm9rZS13aWR0aDoxOyIvPjx0ZXh0IGZpbGw9IiMwMDAwMDAiIGZvbnQtZmFtaWx5PSJzYW5zLXNlcmlmIiBmb250LXNpemU9IjE0IiBsZW5ndGhBZGp1c3Q9InNwYWNpbmciIHRleHRMZW5ndGg9IjM3MSIgeD0iNDExNy41IiB5PSIyNjEuMjE4OCI+ZG9Qb3N0KEh0dHBTZXJ2bGV0UmVxdWVzdCwgSHR0cFNlcnZsZXRSZXNwb25zZSk6IHZvaWQ8L3RleHQ+PGVsbGlwc2UgY3g9IjQxMDguNSIgY3k9IjI3MS45NjA5IiBmaWxsPSIjODRCRTg0IiByeD0iMyIgcnk9IjMiIHN0eWxlPSJzdHJva2U6IzAzODA0ODtzdHJva2Utd2lkdGg6MTsiLz48dGV4dCBmaWxsPSIjMDAwMDAwIiBmb250LWZhbWlseT0ic2Fucy1zZXJpZiIgZm9udC1zaXplPSIxNCIgbGVuZ3RoQWRqdXN0PSJzcGFjaW5nIiB0ZXh0TGVuZ3RoPSI0MjciIHg9IjQxMTcuNSIgeT0iMjc2LjIwMzEiPmNyZWF0ZUN1c3RvbWVyKEh0dHBTZXJ2bGV0UmVxdWVzdCwgSHR0cFNlcnZsZXRSZXNwb25zZSk6IHZvaWQ8L3RleHQ+PGVsbGlwc2UgY3g9IjQxMDguNSIgY3k9IjI4Ni45NDUzIiBmaWxsPSIjODRCRTg0IiByeD0iMyIgcnk9IjMiIHN0eWxlPSJzdHJva2U6IzAzODA0ODtzdHJva2Utd2lkdGg6MTsiLz48dGV4dCBmaWxsPSIjMDAwMDAwIiBmb250LWZhbWlseT0ic2Fucy1zZXJpZiIgZm9udC1zaXplPSIxNCIgbGVuZ3RoQWRqdXN0PSJzcGFjaW5nIiB0ZXh0TGVuZ3RoPSI0MjciIHg9IjQxMTcuNSIgeT0iMjkxLjE4NzUiPnVwZGF0ZUN1c3RvbWVyKEh0dHBTZXJ2bGV0UmVxdWVzdCwgSHR0cFNlcnZsZXRSZXNwb25zZSk6IHZvaWQ8L3RleHQ+PGVsbGlwc2UgY3g9IjQxMDguNSIgY3k9IjMwMS45Mjk3IiBmaWxsPSIjODRCRTg0IiByeD0iMyIgcnk9IjMiIHN0eWxlPSJzdHJva2U6IzAzODA0ODtzdHJva2Utd2lkdGg6MTsiLz48dGV4dCBmaWxsPSIjMDAwMDAwIiBmb250LWZhbWlseT0ic2Fucy1zZXJpZiIgZm9udC1zaXplPSIxNCIgbGVuZ3RoQWRqdXN0PSJzcGFjaW5nIiB0ZXh0TGVuZ3RoPSI0MjciIHg9IjQxMTcuNSIgeT0iMzA2LjE3MTkiPmRlbGV0ZUN1c3RvbWVyKEh0dHBTZXJ2bGV0UmVxdWVzdCwgSHR0cFNlcnZsZXRSZXNwb25zZSk6IHZvaWQ8L3RleHQ+PC9nPjwhLS1jbGFzcyBPcmRlclNlcnZsZXQtLT48ZyBjbGFzcz0iZW50aXR5IiBkYXRhLWVudGl0eT0iT3JkZXJTZXJ2bGV0IiBkYXRhLXNvdXJjZS1saW5lPSIzMzAiIGRhdGEtdWlkPSJlbnQwMDQ2IiBpZD0iZW50aXR5X09yZGVyU2VydmxldCI+PHJlY3QgZmlsbD0iIzNDM0Y0MSIgaGVpZ2h0PSIxMzcuOTA2MyIgcng9IjIuNSIgcnk9IjIuNSIgc3R5bGU9InN0cm9rZTojNjY5OUNDO3N0cm9rZS13aWR0aDowLjU7IiB3aWR0aD0iNDMyIiB4PSI1MTM3IiB5PSIxODEuNSIvPjxlbGxpcHNlIGN4PSI1MzA2Ljc1IiBjeT0iMTk3LjUiIGZpbGw9IiNBREQxQjIiIHJ4PSIxMSIgcnk9IjExIiBzdHlsZT0ic3Ryb2tlOiMxODE4MTg7c3Ryb2tlLXdpZHRoOjE7Ii8+PHBhdGggZD0iTTUzMDQuMzc1LDIwMS43NSBMNTMwNC4zNzUsMjAzLjUgTDUzMDkuMzEyNSwyMDMuNSBMNTMwOS4zMTI1LDIwMS43NSBMNTMwNC4zNzUsMjAxLjc1IFogTTUzMDUuMDYyNSwyMDIuNDM3NSBRNTMwNS4wNjI1LDIwMi40Mzc1IDUzMDUuMDYyNSwxOTMuMjUgTDUzMDMuMzEyNSwxOTMuMjUgUTUzMDMuMzEyNSwxOTMuMjUgNTMwMy4zMTI1LDIwMi40Mzc1IEw1MzA1LjA2MjUsMjAyLjQzNzUgWiBNNTMwOC42MjUsMjAyLjQzNzUgTDUzMTAuMzc1LDIwMi40Mzc1IFE1MzEwLjM3NSwyMDIuNDM3NSA1MzEwLjM3NSwxOTkuNjI1IEw1MzA4LjYyNSwxOTkuNjI1IFE1MzA4LjYyNSwxOTkuNjI1IDUzMDguNjI1LDIwMi40Mzc1IFogTTUzMDguNjI1LDE5My4yNSBRNTMwOC42MjUsMTkzLjI1IDUzMDguNjI1LDE5Ni4wNjI1IEw1MzEwLjM3NSwxOTYuMDYyNSBRNTMxMC4zNzUsMTk2LjA2MjUgNTMxMC4zNzUsMTkzLjI1IEw1MzA4LjYyNSwxOTMuMjUgWiBNNTMwNC4zNzUsMTkzLjkzNzUgTDUzMDkuMzEyNSwxOTMuOTM3NSBMNTMwOS4zMTI1LDE5Mi4xODc1IEw1MzA0LjM3NSwxOTIuMTg3NSBMNTMwNC4zNzUsMTkzLjkzNzUgWiAiIGZpbGw9IiMwMDAwMDAiLz48dGV4dCBmaWxsPSIjRkZGRkZGIiBmb250LWZhbWlseT0ic2Fucy1zZXJpZiIgZm9udC1zaXplPSIxNCIgbGVuZ3RoQWRqdXN0PSJzcGFjaW5nIiB0ZXh0TGVuZ3RoPSI4NCIgeD0iNTMyNy4yNSIgeT0iMjAzLjI0MjIiPk9yZGVyU2VydmxldDwvdGV4dD48bGluZSBzdHlsZT0ic3Ryb2tlOiM2Njk5Q0M7c3Ryb2tlLXdpZHRoOjAuNTsiIHgxPSI1MTM4IiB4Mj0iNTU2OCIgeTE9IjIxMy41IiB5Mj0iMjEzLjUiLz48bGluZSBzdHlsZT0ic3Ryb2tlOiM2Njk5Q0M7c3Ryb2tlLXdpZHRoOjAuNTsiIHgxPSI1MTM4IiB4Mj0iNTU2OCIgeTE9IjIyMS41IiB5Mj0iMjIxLjUiLz48ZWxsaXBzZSBjeD0iNTE0OCIgY3k9IjIzNC40OTIyIiBmaWxsPSIjODRCRTg0IiByeD0iMyIgcnk9IjMiIHN0eWxlPSJzdHJva2U6IzAzODA0ODtzdHJva2Utd2lkdGg6MTsiLz48dGV4dCBmaWxsPSIjMDAwMDAwIiBmb250LWZhbWlseT0ic2Fucy1zZXJpZiIgZm9udC1zaXplPSIxNCIgbGVuZ3RoQWRqdXN0PSJzcGFjaW5nIiB0ZXh0TGVuZ3RoPSIzNjQiIHg9IjUxNTciIHk9IjIzOC43MzQ0Ij5kb0dldChIdHRwU2VydmxldFJlcXVlc3QsIEh0dHBTZXJ2bGV0UmVzcG9uc2UpOiB2b2lkPC90ZXh0PjxlbGxpcHNlIGN4PSI1MTQ4IiBjeT0iMjQ5LjQ3NjYiIGZpbGw9IiM4NEJFODQiIHJ4PSIzIiByeT0iMyIgc3R5bGU9InN0cm9rZTojMDM4MDQ4O3N0cm9rZS13aWR0aDoxOyIvPjx0ZXh0IGZpbGw9IiMwMDAwMDAiIGZvbnQtZmFtaWx5PSJzYW5zLXNlcmlmIiBmb250LXNpemU9IjE0IiBsZW5ndGhBZGp1c3Q9InNwYWNpbmciIHRleHRMZW5ndGg9IjM3MSIgeD0iNTE1NyIgeT0iMjUzLjcxODgiPmRvUG9zdChIdHRwU2VydmxldFJlcXVlc3QsIEh0dHBTZXJ2bGV0UmVzcG9uc2UpOiB2b2lkPC90ZXh0PjxlbGxpcHNlIGN4PSI1MTQ4IiBjeT0iMjY0LjQ2MDkiIGZpbGw9IiM4NEJFODQiIHJ4PSIzIiByeT0iMyIgc3R5bGU9InN0cm9rZTojMDM4MDQ4O3N0cm9rZS13aWR0aDoxOyIvPjx0ZXh0IGZpbGw9IiMwMDAwMDAiIGZvbnQtZmFtaWx5PSJzYW5zLXNlcmlmIiBmb250LXNpemU9IjE0IiBsZW5ndGhBZGp1c3Q9InNwYWNpbmciIHRleHRMZW5ndGg9IjQwNiIgeD0iNTE1NyIgeT0iMjY4LjcwMzEiPmNyZWF0ZU9yZGVyKEh0dHBTZXJ2bGV0UmVxdWVzdCwgSHR0cFNlcnZsZXRSZXNwb25zZSk6IHZvaWQ8L3RleHQ+PGVsbGlwc2UgY3g9IjUxNDgiIGN5PSIyNzkuNDQ1MyIgZmlsbD0iIzg0QkU4NCIgcng9IjMiIHJ5PSIzIiBzdHlsZT0ic3Ryb2tlOiMwMzgwNDg7c3Ryb2tlLXdpZHRoOjE7Ii8+PHRleHQgZmlsbD0iIzAwMDAwMCIgZm9udC1mYW1pbHk9InNhbnMtc2VyaWYiIGZvbnQtc2l6ZT0iMTQiIGxlbmd0aEFkanVzdD0ic3BhY2luZyIgdGV4dExlbmd0aD0iNDA2IiB4PSI1MTU3IiB5PSIyODMuNjg3NSI+dXBkYXRlT3JkZXIoSHR0cFNlcnZsZXRSZXF1ZXN0LCBIdHRwU2VydmxldFJlc3BvbnNlKTogdm9pZDwvdGV4dD48ZWxsaXBzZSBjeD0iNTE0OCIgY3k9IjI5NC40Mjk3IiBmaWxsPSIjODRCRTg0IiByeD0iMyIgcnk9IjMiIHN0eWxlPSJzdHJva2U6IzAzODA0ODtzdHJva2Utd2lkdGg6MTsiLz48dGV4dCBmaWxsPSIjMDAwMDAwIiBmb250LWZhbWlseT0ic2Fucy1zZXJpZiIgZm9udC1zaXplPSIxNCIgbGVuZ3RoQWRqdXN0PSJzcGFjaW5nIiB0ZXh0TGVuZ3RoPSI0MDYiIHg9IjUxNTciIHk9IjI5OC42NzE5Ij5kZWxldGVPcmRlcihIdHRwU2VydmxldFJlcXVlc3QsIEh0dHBTZXJ2bGV0UmVzcG9uc2UpOiB2b2lkPC90ZXh0PjxlbGxpcHNlIGN4PSI1MTQ4IiBjeT0iMzA5LjQxNDEiIGZpbGw9IiM4NEJFODQiIHJ4PSIzIiByeT0iMyIgc3R5bGU9InN0cm9rZTojMDM4MDQ4O3N0cm9rZS13aWR0aDoxOyIvPjx0ZXh0IGZpbGw9IiMwMDAwMDAiIGZvbnQtZmFtaWx5PSJzYW5zLXNlcmlmIiBmb250LXNpemU9IjE0IiBsZW5ndGhBZGp1c3Q9InNwYWNpbmciIHRleHRMZW5ndGg9IjIyNCIgeD0iNTE1NyIgeT0iMzEzLjY1NjMiPmNyZWF0ZUl0ZW1Gcm9tSWQoaW50KTogSVNlbGxhYmxlPC90ZXh0PjwvZz48IS0tY2xhc3MgUGF5bWVudFNlcnZsZXQtLT48ZyBjbGFzcz0iZW50aXR5IiBkYXRhLWVudGl0eT0iUGF5bWVudFNlcnZsZXQiIGRhdGEtc291cmNlLWxpbmU9IjMzOSIgZGF0YS11aWQ9ImVudDAwNDciIGlkPSJlbnRpdHlfUGF5bWVudFNlcnZsZXQiPjxyZWN0IGZpbGw9IiMzQzNGNDEiIGhlaWdodD0iMTIyLjkyMTkiIHJ4PSIyLjUiIHJ5PSIyLjUiIHN0eWxlPSJzdHJva2U6IzY2OTlDQztzdHJva2Utd2lkdGg6MC41OyIgd2lkdGg9IjQ0NiIgeD0iNTYwNCIgeT0iMTg5Ii8+PGVsbGlwc2UgY3g9IjU3NzMuNzUiIGN5PSIyMDUiIGZpbGw9IiNBREQxQjIiIHJ4PSIxMSIgcnk9IjExIiBzdHlsZT0ic3Ryb2tlOiMxODE4MTg7c3Ryb2tlLXdpZHRoOjE7Ii8+PHBhdGggZD0iTTU3NzEuMzc1LDIwOS4yNSBMNTc3MS4zNzUsMjExIEw1Nzc2LjMxMjUsMjExIEw1Nzc2LjMxMjUsMjA5LjI1IEw1NzcxLjM3NSwyMDkuMjUgWiBNNTc3Mi4wNjI1LDIwOS45Mzc1IFE1NzcyLjA2MjUsMjA5LjkzNzUgNTc3Mi4wNjI1LDIwMC43NSBMNTc3MC4zMTI1LDIwMC43NSBRNTc3MC4zMTI1LDIwMC43NSA1NzcwLjMxMjUsMjA5LjkzNzUgTDU3NzIuMDYyNSwyMDkuOTM3NSBaIE01Nzc1LjYyNSwyMDkuOTM3NSBMNTc3Ny4zNzUsMjA5LjkzNzUgUTU3NzcuMzc1LDIwOS45Mzc1IDU3NzcuMzc1LDIwNy4xMjUgTDU3NzUuNjI1LDIwNy4xMjUgUTU3NzUuNjI1LDIwNy4xMjUgNTc3NS42MjUsMjA5LjkzNzUgWiBNNTc3NS42MjUsMjAwLjc1IFE1Nzc1LjYyNSwyMDAuNzUgNTc3NS42MjUsMjAzLjU2MjUgTDU3NzcuMzc1LDIwMy41NjI1IFE1Nzc3LjM3NSwyMDMuNTYyNSA1Nzc3LjM3NSwyMDAuNzUgTDU3NzUuNjI1LDIwMC43NSBaIE01NzcxLjM3NSwyMDEuNDM3NSBMNTc3Ni4zMTI1LDIwMS40Mzc1IEw1Nzc2LjMxMjUsMTk5LjY4NzUgTDU3NzEuMzc1LDE5OS42ODc1IEw1NzcxLjM3NSwyMDEuNDM3NSBaICIgZmlsbD0iIzAwMDAwMCIvPjx0ZXh0IGZpbGw9IiNGRkZGRkYiIGZvbnQtZmFtaWx5PSJzYW5zLXNlcmlmIiBmb250LXNpemU9IjE0IiBsZW5ndGhBZGp1c3Q9InNwYWNpbmciIHRleHRMZW5ndGg9Ijk4IiB4PSI1Nzk0LjI1IiB5PSIyMTAuNzQyMiI+UGF5bWVudFNlcnZsZXQ8L3RleHQ+PGxpbmUgc3R5bGU9InN0cm9rZTojNjY5OUNDO3N0cm9rZS13aWR0aDowLjU7IiB4MT0iNTYwNSIgeDI9IjYwNDkiIHkxPSIyMjEiIHkyPSIyMjEiLz48bGluZSBzdHlsZT0ic3Ryb2tlOiM2Njk5Q0M7c3Ryb2tlLXdpZHRoOjAuNTsiIHgxPSI1NjA1IiB4Mj0iNjA0OSIgeTE9IjIyOSIgeTI9IjIyOSIvPjxlbGxpcHNlIGN4PSI1NjE1IiBjeT0iMjQxLjk5MjIiIGZpbGw9IiM4NEJFODQiIHJ4PSIzIiByeT0iMyIgc3R5bGU9InN0cm9rZTojMDM4MDQ4O3N0cm9rZS13aWR0aDoxOyIvPjx0ZXh0IGZpbGw9IiMwMDAwMDAiIGZvbnQtZmFtaWx5PSJzYW5zLXNlcmlmIiBmb250LXNpemU9IjE0IiBsZW5ndGhBZGp1c3Q9InNwYWNpbmciIHRleHRMZW5ndGg9IjM2NCIgeD0iNTYyNCIgeT0iMjQ2LjIzNDQiPmRvR2V0KEh0dHBTZXJ2bGV0UmVxdWVzdCwgSHR0cFNlcnZsZXRSZXNwb25zZSk6IHZvaWQ8L3RleHQ+PGVsbGlwc2UgY3g9IjU2MTUiIGN5PSIyNTYuOTc2NiIgZmlsbD0iIzg0QkU4NCIgcng9IjMiIHJ5PSIzIiBzdHlsZT0ic3Ryb2tlOiMwMzgwNDg7c3Ryb2tlLXdpZHRoOjE7Ii8+PHRleHQgZmlsbD0iIzAwMDAwMCIgZm9udC1mYW1pbHk9InNhbnMtc2VyaWYiIGZvbnQtc2l6ZT0iMTQiIGxlbmd0aEFkanVzdD0ic3BhY2luZyIgdGV4dExlbmd0aD0iMzcxIiB4PSI1NjI0IiB5PSIyNjEuMjE4OCI+ZG9Qb3N0KEh0dHBTZXJ2bGV0UmVxdWVzdCwgSHR0cFNlcnZsZXRSZXNwb25zZSk6IHZvaWQ8L3RleHQ+PGVsbGlwc2UgY3g9IjU2MTUiIGN5PSIyNzEuOTYwOSIgZmlsbD0iIzg0QkU4NCIgcng9IjMiIHJ5PSIzIiBzdHlsZT0ic3Ryb2tlOiMwMzgwNDg7c3Ryb2tlLXdpZHRoOjE7Ii8+PHRleHQgZmlsbD0iIzAwMDAwMCIgZm9udC1mYW1pbHk9InNhbnMtc2VyaWYiIGZvbnQtc2l6ZT0iMTQiIGxlbmd0aEFkanVzdD0ic3BhY2luZyIgdGV4dExlbmd0aD0iNDIwIiB4PSI1NjI0IiB5PSIyNzYuMjAzMSI+Y3JlYXRlUGF5bWVudChIdHRwU2VydmxldFJlcXVlc3QsIEh0dHBTZXJ2bGV0UmVzcG9uc2UpOiB2b2lkPC90ZXh0PjxlbGxpcHNlIGN4PSI1NjE1IiBjeT0iMjg2Ljk0NTMiIGZpbGw9IiM4NEJFODQiIHJ4PSIzIiByeT0iMyIgc3R5bGU9InN0cm9rZTojMDM4MDQ4O3N0cm9rZS13aWR0aDoxOyIvPjx0ZXh0IGZpbGw9IiMwMDAwMDAiIGZvbnQtZmFtaWx5PSJzYW5zLXNlcmlmIiBmb250LXNpemU9IjE0IiBsZW5ndGhBZGp1c3Q9InNwYWNpbmciIHRleHRMZW5ndGg9IjQyMCIgeD0iNTYyNCIgeT0iMjkxLjE4NzUiPnVwZGF0ZVBheW1lbnQoSHR0cFNlcnZsZXRSZXF1ZXN0LCBIdHRwU2VydmxldFJlc3BvbnNlKTogdm9pZDwvdGV4dD48ZWxsaXBzZSBjeD0iNTYxNSIgY3k9IjMwMS45Mjk3IiBmaWxsPSIjODRCRTg0IiByeD0iMyIgcnk9IjMiIHN0eWxlPSJzdHJva2U6IzAzODA0ODtzdHJva2Utd2lkdGg6MTsiLz48dGV4dCBmaWxsPSIjMDAwMDAwIiBmb250LWZhbWlseT0ic2Fucy1zZXJpZiIgZm9udC1zaXplPSIxNCIgbGVuZ3RoQWRqdXN0PSJzcGFjaW5nIiB0ZXh0TGVuZ3RoPSI0MjAiIHg9IjU2MjQiIHk9IjMwNi4xNzE5Ij5kZWxldGVQYXltZW50KEh0dHBTZXJ2bGV0UmVxdWVzdCwgSHR0cFNlcnZsZXRSZXNwb25zZSk6IHZvaWQ8L3RleHQ+PC9nPjwhLS1jbGFzcyBSZXNlcnZhdGlvblNlcnZsZXQtLT48ZyBjbGFzcz0iZW50aXR5IiBkYXRhLWVudGl0eT0iUmVzZXJ2YXRpb25TZXJ2bGV0IiBkYXRhLXNvdXJjZS1saW5lPSIzNDciIGRhdGEtdWlkPSJlbnQwMDQ4IiBpZD0iZW50aXR5X1Jlc2VydmF0aW9uU2VydmxldCI+PHJlY3QgZmlsbD0iIzNDM0Y0MSIgaGVpZ2h0PSIxMDcuOTM3NSIgcng9IjIuNSIgcnk9IjIuNSIgc3R5bGU9InN0cm9rZTojNjY5OUNDO3N0cm9rZS13aWR0aDowLjU7IiB3aWR0aD0iNTE2IiB4PSI0NTg2IiB5PSIxOTYuNSIvPjxlbGxpcHNlIGN4PSI0Nzc2Ljc1IiBjeT0iMjEyLjUiIGZpbGw9IiNBREQxQjIiIHJ4PSIxMSIgcnk9IjExIiBzdHlsZT0ic3Ryb2tlOiMxODE4MTg7c3Ryb2tlLXdpZHRoOjE7Ii8+PHBhdGggZD0iTTQ3NzQuMzc1LDIxNi43NSBMNDc3NC4zNzUsMjE4LjUgTDQ3NzkuMzEyNSwyMTguNSBMNDc3OS4zMTI1LDIxNi43NSBMNDc3NC4zNzUsMjE2Ljc1IFogTTQ3NzUuMDYyNSwyMTcuNDM3NSBRNDc3NS4wNjI1LDIxNy40Mzc1IDQ3NzUuMDYyNSwyMDguMjUgTDQ3NzMuMzEyNSwyMDguMjUgUTQ3NzMuMzEyNSwyMDguMjUgNDc3My4zMTI1LDIxNy40Mzc1IEw0Nzc1LjA2MjUsMjE3LjQzNzUgWiBNNDc3OC42MjUsMjE3LjQzNzUgTDQ3ODAuMzc1LDIxNy40Mzc1IFE0NzgwLjM3NSwyMTcuNDM3NSA0NzgwLjM3NSwyMTQuNjI1IEw0Nzc4LjYyNSwyMTQuNjI1IFE0Nzc4LjYyNSwyMTQuNjI1IDQ3NzguNjI1LDIxNy40Mzc1IFogTTQ3NzguNjI1LDIwOC4yNSBRNDc3OC42MjUsMjA4LjI1IDQ3NzguNjI1LDIxMS4wNjI1IEw0NzgwLjM3NSwyMTEuMDYyNSBRNDc4MC4zNzUsMjExLjA2MjUgNDc4MC4zNzUsMjA4LjI1IEw0Nzc4LjYyNSwyMDguMjUgWiBNNDc3NC4zNzUsMjA4LjkzNzUgTDQ3NzkuMzEyNSwyMDguOTM3NSBMNDc3OS4zMTI1LDIwNy4xODc1IEw0Nzc0LjM3NSwyMDcuMTg3NSBMNDc3NC4zNzUsMjA4LjkzNzUgWiAiIGZpbGw9IiMwMDAwMDAiLz48dGV4dCBmaWxsPSIjRkZGRkZGIiBmb250LWZhbWlseT0ic2Fucy1zZXJpZiIgZm9udC1zaXplPSIxNCIgbGVuZ3RoQWRqdXN0PSJzcGFjaW5nIiB0ZXh0TGVuZ3RoPSIxMjYiIHg9IjQ3OTcuMjUiIHk9IjIxOC4yNDIyIj5SZXNlcnZhdGlvblNlcnZsZXQ8L3RleHQ+PGxpbmUgc3R5bGU9InN0cm9rZTojNjY5OUNDO3N0cm9rZS13aWR0aDowLjU7IiB4MT0iNDU4NyIgeDI9IjUxMDEiIHkxPSIyMjguNSIgeTI9IjIyOC41Ii8+PGxpbmUgc3R5bGU9InN0cm9rZTojNjY5OUNDO3N0cm9rZS13aWR0aDowLjU7IiB4MT0iNDU4NyIgeDI9IjUxMDEiIHkxPSIyMzYuNSIgeTI9IjIzNi41Ii8+PGVsbGlwc2UgY3g9IjQ1OTciIGN5PSIyNDkuNDkyMiIgZmlsbD0iIzg0QkU4NCIgcng9IjMiIHJ5PSIzIiBzdHlsZT0ic3Ryb2tlOiMwMzgwNDg7c3Ryb2tlLXdpZHRoOjE7Ii8+PHRleHQgZmlsbD0iIzAwMDAwMCIgZm9udC1mYW1pbHk9InNhbnMtc2VyaWYiIGZvbnQtc2l6ZT0iMTQiIGxlbmd0aEFkanVzdD0ic3BhY2luZyIgdGV4dExlbmd0aD0iMzY0IiB4PSI0NjA2IiB5PSIyNTMuNzM0NCI+ZG9HZXQoSHR0cFNlcnZsZXRSZXF1ZXN0LCBIdHRwU2VydmxldFJlc3BvbnNlKTogdm9pZDwvdGV4dD48ZWxsaXBzZSBjeD0iNDU5NyIgY3k9IjI2NC40NzY2IiBmaWxsPSIjODRCRTg0IiByeD0iMyIgcnk9IjMiIHN0eWxlPSJzdHJva2U6IzAzODA0ODtzdHJva2Utd2lkdGg6MTsiLz48dGV4dCBmaWxsPSIjMDAwMDAwIiBmb250LWZhbWlseT0ic2Fucy1zZXJpZiIgZm9udC1zaXplPSIxNCIgbGVuZ3RoQWRqdXN0PSJzcGFjaW5nIiB0ZXh0TGVuZ3RoPSIzNzEiIHg9IjQ2MDYiIHk9IjI2OC43MTg4Ij5kb1Bvc3QoSHR0cFNlcnZsZXRSZXF1ZXN0LCBIdHRwU2VydmxldFJlc3BvbnNlKTogdm9pZDwvdGV4dD48ZWxsaXBzZSBjeD0iNDU5NyIgY3k9IjI3OS40NjA5IiBmaWxsPSIjODRCRTg0IiByeD0iMyIgcnk9IjMiIHN0eWxlPSJzdHJva2U6IzAzODA0ODtzdHJva2Utd2lkdGg6MTsiLz48dGV4dCBmaWxsPSIjMDAwMDAwIiBmb250LWZhbWlseT0ic2Fucy1zZXJpZiIgZm9udC1zaXplPSIxNCIgbGVuZ3RoQWRqdXN0PSJzcGFjaW5nIiB0ZXh0TGVuZ3RoPSI0NDgiIHg9IjQ2MDYiIHk9IjI4My43MDMxIj5jcmVhdGVSZXNlcnZhdGlvbihIdHRwU2VydmxldFJlcXVlc3QsIEh0dHBTZXJ2bGV0UmVzcG9uc2UpOiB2b2lkPC90ZXh0PjxlbGxpcHNlIGN4PSI0NTk3IiBjeT0iMjk0LjQ0NTMiIGZpbGw9IiM4NEJFODQiIHJ4PSIzIiByeT0iMyIgc3R5bGU9InN0cm9rZTojMDM4MDQ4O3N0cm9rZS13aWR0aDoxOyIvPjx0ZXh0IGZpbGw9IiMwMDAwMDAiIGZvbnQtZmFtaWx5PSJzYW5zLXNlcmlmIiBmb250LXNpemU9IjE0IiBsZW5ndGhBZGp1c3Q9InNwYWNpbmciIHRleHRMZW5ndGg9IjQ5MCIgeD0iNDYwNiIgeT0iMjk4LjY4NzUiPnVwZGF0ZVJlc2VydmF0aW9uU3RhdHVzKEh0dHBTZXJ2bGV0UmVxdWVzdCwgSHR0cFNlcnZsZXRSZXNwb25zZSk6IHZvaWQ8L3RleHQ+PC9nPjwhLS1jbGFzcyBIZWxsb1NlcnZsZXQtLT48ZyBjbGFzcz0iZW50aXR5IiBkYXRhLWVudGl0eT0iSGVsbG9TZXJ2bGV0IiBkYXRhLXNvdXJjZS1saW5lPSIzNTQiIGRhdGEtdWlkPSJlbnQwMDQ5IiBpZD0iZW50aXR5X0hlbGxvU2VydmxldCI+PHJlY3QgZmlsbD0iIzNDM0Y0MSIgaGVpZ2h0PSI5Mi45NTMxIiByeD0iMi41IiByeT0iMi41IiBzdHlsZT0ic3Ryb2tlOiM2Njk5Q0M7c3Ryb2tlLXdpZHRoOjAuNTsiIHdpZHRoPSIzOTAiIHg9IjM2NzMiIHk9IjIwNCIvPjxlbGxpcHNlIGN4PSIzODIxLjc1IiBjeT0iMjIwIiBmaWxsPSIjQUREMUIyIiByeD0iMTEiIHJ5PSIxMSIgc3R5bGU9InN0cm9rZTojMTgxODE4O3N0cm9rZS13aWR0aDoxOyIvPjxwYXRoIGQ9Ik0zODE5LjM3NSwyMjQuMjUgTDM4MTkuMzc1LDIyNiBMMzgyNC4zMTI1LDIyNiBMMzgyNC4zMTI1LDIyNC4yNSBMMzgxOS4zNzUsMjI0LjI1IFogTTM4MjAuMDYyNSwyMjQuOTM3NSBRMzgyMC4wNjI1LDIyNC45Mzc1IDM4MjAuMDYyNSwyMTUuNzUgTDM4MTguMzEyNSwyMTUuNzUgUTM4MTguMzEyNSwyMTUuNzUgMzgxOC4zMTI1LDIyNC45Mzc1IEwzODIwLjA2MjUsMjI0LjkzNzUgWiBNMzgyMy42MjUsMjI0LjkzNzUgTDM4MjUuMzc1LDIyNC45Mzc1IFEzODI1LjM3NSwyMjQuOTM3NSAzODI1LjM3NSwyMjIuMTI1IEwzODIzLjYyNSwyMjIuMTI1IFEzODIzLjYyNSwyMjIuMTI1IDM4MjMuNjI1LDIyNC45Mzc1IFogTTM4MjMuNjI1LDIxNS43NSBRMzgyMy42MjUsMjE1Ljc1IDM4MjMuNjI1LDIxOC41NjI1IEwzODI1LjM3NSwyMTguNTYyNSBRMzgyNS4zNzUsMjE4LjU2MjUgMzgyNS4zNzUsMjE1Ljc1IEwzODIzLjYyNSwyMTUuNzUgWiBNMzgxOS4zNzUsMjE2LjQzNzUgTDM4MjQuMzEyNSwyMTYuNDM3NSBMMzgyNC4zMTI1LDIxNC42ODc1IEwzODE5LjM3NSwyMTQuNjg3NSBMMzgxOS4zNzUsMjE2LjQzNzUgWiAiIGZpbGw9IiMwMDAwMDAiLz48dGV4dCBmaWxsPSIjRkZGRkZGIiBmb250LWZhbWlseT0ic2Fucy1zZXJpZiIgZm9udC1zaXplPSIxNCIgbGVuZ3RoQWRqdXN0PSJzcGFjaW5nIiB0ZXh0TGVuZ3RoPSI4NCIgeD0iMzg0Mi4yNSIgeT0iMjI1Ljc0MjIiPkhlbGxvU2VydmxldDwvdGV4dD48bGluZSBzdHlsZT0ic3Ryb2tlOiM2Njk5Q0M7c3Ryb2tlLXdpZHRoOjAuNTsiIHgxPSIzNjc0IiB4Mj0iNDA2MiIgeTE9IjIzNiIgeTI9IjIzNiIvPjxsaW5lIHN0eWxlPSJzdHJva2U6IzY2OTlDQztzdHJva2Utd2lkdGg6MC41OyIgeDE9IjM2NzQiIHgyPSI0MDYyIiB5MT0iMjQ0IiB5Mj0iMjQ0Ii8+PGVsbGlwc2UgY3g9IjM2ODQiIGN5PSIyNTYuOTkyMiIgZmlsbD0iIzg0QkU4NCIgcng9IjMiIHJ5PSIzIiBzdHlsZT0ic3Ryb2tlOiMwMzgwNDg7c3Ryb2tlLXdpZHRoOjE7Ii8+PHRleHQgZmlsbD0iIzAwMDAwMCIgZm9udC1mYW1pbHk9InNhbnMtc2VyaWYiIGZvbnQtc2l6ZT0iMTQiIGxlbmd0aEFkanVzdD0ic3BhY2luZyIgdGV4dExlbmd0aD0iODQiIHg9IjM2OTMiIHk9IjI2MS4yMzQ0Ij5pbml0KCk6IHZvaWQ8L3RleHQ+PGVsbGlwc2UgY3g9IjM2ODQiIGN5PSIyNzEuOTc2NiIgZmlsbD0iIzg0QkU4NCIgcng9IjMiIHJ5PSIzIiBzdHlsZT0ic3Ryb2tlOiMwMzgwNDg7c3Ryb2tlLXdpZHRoOjE7Ii8+PHRleHQgZmlsbD0iIzAwMDAwMCIgZm9udC1mYW1pbHk9InNhbnMtc2VyaWYiIGZvbnQtc2l6ZT0iMTQiIGxlbmd0aEFkanVzdD0ic3BhY2luZyIgdGV4dExlbmd0aD0iMzY0IiB4PSIzNjkzIiB5PSIyNzYuMjE4OCI+ZG9HZXQoSHR0cFNlcnZsZXRSZXF1ZXN0LCBIdHRwU2VydmxldFJlc3BvbnNlKTogdm9pZDwvdGV4dD48ZWxsaXBzZSBjeD0iMzY4NCIgY3k9IjI4Ni45NjA5IiBmaWxsPSIjODRCRTg0IiByeD0iMyIgcnk9IjMiIHN0eWxlPSJzdHJva2U6IzAzODA0ODtzdHJva2Utd2lkdGg6MTsiLz48dGV4dCBmaWxsPSIjMDAwMDAwIiBmb250LWZhbWlseT0ic2Fucy1zZXJpZiIgZm9udC1zaXplPSIxNCIgbGVuZ3RoQWRqdXN0PSJzcGFjaW5nIiB0ZXh0TGVuZ3RoPSIxMDUiIHg9IjM2OTMiIHk9IjI5MS4yMDMxIj5kZXN0cm95KCk6IHZvaWQ8L3RleHQ+PC9nPjwhLS1jbGFzcyBEYlV0aWwtLT48ZyBjbGFzcz0iZW50aXR5IiBkYXRhLWVudGl0eT0iRGJVdGlsIiBkYXRhLXNvdXJjZS1saW5lPSIzNjkiIGRhdGEtdWlkPSJlbnQwMDU3IiBpZD0iZW50aXR5X0RiVXRpbCI+PHJlY3QgZmlsbD0iIzNDM0Y0MSIgaGVpZ2h0PSIxMDcuOTM3NSIgcng9IjIuNSIgcnk9IjIuNSIgc3R5bGU9InN0cm9rZTojNjY5OUNDO3N0cm9rZS13aWR0aDowLjU7IiB3aWR0aD0iMjM2IiB4PSI3NTgxIiB5PSI2NzkuNSIvPjxlbGxpcHNlIGN4PSI3NjczLjc1IiBjeT0iNjk1LjUiIGZpbGw9IiNBREQxQjIiIHJ4PSIxMSIgcnk9IjExIiBzdHlsZT0ic3Ryb2tlOiMxODE4MTg7c3Ryb2tlLXdpZHRoOjE7Ii8+PHBhdGggZD0iTTc2NzEuMzc1LDY5OS43NSBMNzY3MS4zNzUsNzAxLjUgTDc2NzYuMzEyNSw3MDEuNSBMNzY3Ni4zMTI1LDY5OS43NSBMNzY3MS4zNzUsNjk5Ljc1IFogTTc2NzIuMDYyNSw3MDAuNDM3NSBRNzY3Mi4wNjI1LDcwMC40Mzc1IDc2NzIuMDYyNSw2OTEuMjUgTDc2NzAuMzEyNSw2OTEuMjUgUTc2NzAuMzEyNSw2OTEuMjUgNzY3MC4zMTI1LDcwMC40Mzc1IEw3NjcyLjA2MjUsNzAwLjQzNzUgWiBNNzY3NS42MjUsNzAwLjQzNzUgTDc2NzcuMzc1LDcwMC40Mzc1IFE3Njc3LjM3NSw3MDAuNDM3NSA3Njc3LjM3NSw2OTcuNjI1IEw3Njc1LjYyNSw2OTcuNjI1IFE3Njc1LjYyNSw2OTcuNjI1IDc2NzUuNjI1LDcwMC40Mzc1IFogTTc2NzUuNjI1LDY5MS4yNSBRNzY3NS42MjUsNjkxLjI1IDc2NzUuNjI1LDY5NC4wNjI1IEw3Njc3LjM3NSw2OTQuMDYyNSBRNzY3Ny4zNzUsNjk0LjA2MjUgNzY3Ny4zNzUsNjkxLjI1IEw3Njc1LjYyNSw2OTEuMjUgWiBNNzY3MS4zNzUsNjkxLjkzNzUgTDc2NzYuMzEyNSw2OTEuOTM3NSBMNzY3Ni4zMTI1LDY5MC4xODc1IEw3NjcxLjM3NSw2OTAuMTg3NSBMNzY3MS4zNzUsNjkxLjkzNzUgWiAiIGZpbGw9IiMwMDAwMDAiLz48dGV4dCBmaWxsPSIjRkZGRkZGIiBmb250LWZhbWlseT0ic2Fucy1zZXJpZiIgZm9udC1zaXplPSIxNCIgbGVuZ3RoQWRqdXN0PSJzcGFjaW5nIiB0ZXh0TGVuZ3RoPSI0MiIgeD0iNzY5NC4yNSIgeT0iNzAxLjI0MjIiPkRiVXRpbDwvdGV4dD48bGluZSBzdHlsZT0ic3Ryb2tlOiM2Njk5Q0M7c3Ryb2tlLXdpZHRoOjAuNTsiIHgxPSI3NTgyIiB4Mj0iNzgxNiIgeTE9IjcxMS41IiB5Mj0iNzExLjUiLz48bGluZSBzdHlsZT0ic3Ryb2tlOiM2Njk5Q0M7c3Ryb2tlLXdpZHRoOjAuNTsiIHgxPSI3NTgyIiB4Mj0iNzgxNiIgeTE9IjcxOS41IiB5Mj0iNzE5LjUiLz48ZWxsaXBzZSBjeD0iNzU5MiIgY3k9IjczMi40OTIyIiBmaWxsPSIjODRCRTg0IiByeD0iMyIgcnk9IjMiIHN0eWxlPSJzdHJva2U6IzAzODA0ODtzdHJva2Utd2lkdGg6MTsiLz48dGV4dCBmaWxsPSIjMDAwMDAwIiBmb250LWZhbWlseT0ic2Fucy1zZXJpZiIgZm9udC1zaXplPSIxNCIgbGVuZ3RoQWRqdXN0PSJzcGFjaW5nIiB0ZXh0TGVuZ3RoPSIxODkiIHg9Ijc2MDEiIHk9IjczNi43MzQ0Ij5nZXRDb25uZWN0aW9uKCk6IENvbm5lY3Rpb248L3RleHQ+PGVsbGlwc2UgY3g9Ijc1OTIiIGN5PSI3NDcuNDc2NiIgZmlsbD0iIzg0QkU4NCIgcng9IjMiIHJ5PSIzIiBzdHlsZT0ic3Ryb2tlOiMwMzgwNDg7c3Ryb2tlLXdpZHRoOjE7Ii8+PHRleHQgZmlsbD0iIzAwMDAwMCIgZm9udC1mYW1pbHk9InNhbnMtc2VyaWYiIGZvbnQtc2l6ZT0iMTQiIGxlbmd0aEFkanVzdD0ic3BhY2luZyIgdGV4dExlbmd0aD0iMjEwIiB4PSI3NjAxIiB5PSI3NTEuNzE4OCI+Y2xvc2VRdWlldGx5KENvbm5lY3Rpb24pOiB2b2lkPC90ZXh0PjxlbGxpcHNlIGN4PSI3NTkyIiBjeT0iNzYyLjQ2MDkiIGZpbGw9IiM4NEJFODQiIHJ4PSIzIiByeT0iMyIgc3R5bGU9InN0cm9rZTojMDM4MDQ4O3N0cm9rZS13aWR0aDoxOyIvPjx0ZXh0IGZpbGw9IiMwMDAwMDAiIGZvbnQtZmFtaWx5PSJzYW5zLXNlcmlmIiBmb250LXNpemU9IjE0IiBsZW5ndGhBZGp1c3Q9InNwYWNpbmciIHRleHRMZW5ndGg9IjIwMyIgeD0iNzYwMSIgeT0iNzY2LjcwMzEiPmNsb3NlUXVpZXRseShTdGF0ZW1lbnQpOiB2b2lkPC90ZXh0PjxlbGxpcHNlIGN4PSI3NTkyIiBjeT0iNzc3LjQ0NTMiIGZpbGw9IiM4NEJFODQiIHJ4PSIzIiByeT0iMyIgc3R5bGU9InN0cm9rZTojMDM4MDQ4O3N0cm9rZS13aWR0aDoxOyIvPjx0ZXh0IGZpbGw9IiMwMDAwMDAiIGZvbnQtZmFtaWx5PSJzYW5zLXNlcmlmIiBmb250LXNpemU9IjE0IiBsZW5ndGhBZGp1c3Q9InNwYWNpbmciIHRleHRMZW5ndGg9IjIwMyIgeD0iNzYwMSIgeT0iNzgxLjY4NzUiPmNsb3NlUXVpZXRseShSZXN1bHRTZXQpOiB2b2lkPC90ZXh0PjwvZz48IS0tcmV2ZXJzZSBsaW5rIEN1c3RvbWVyIHRvIENURmlyc3RUaW1lLS0+PGcgY2xhc3M9ImxpbmsiIGRhdGEtZW50aXR5LTE9IkN1c3RvbWVyIiBkYXRhLWVudGl0eS0yPSJDVEZpcnN0VGltZSIgZGF0YS1zb3VyY2UtbGluZT0iOTEiIGRhdGEtdWlkPSJsbmsxMSIgaWQ9ImxpbmtfQ3VzdG9tZXJfQ1RGaXJzdFRpbWUiPjxwYXRoIGNvZGVMaW5lPSI5MSIgZD0iTTIwNzguNzU1MywxNDEwLjU0MDggQzIwMzMuMjA1MywxNDUzLjU3MDggMjAwMS4wMiwxNDgzLjk3IDE5NjUuMiwxNTE3LjgiIGZpbGw9Im5vbmUiIGlkPSJDdXN0b21lci1iYWNrdG8tQ1RGaXJzdFRpbWUiIHN0eWxlPSJzdHJva2U6IzY2OTlDQztzdHJva2Utd2lkdGg6MTsiLz48cG9seWdvbiBmaWxsPSJub25lIiBwb2ludHM9IjIwOTEuODQsMTM5OC4xOCwyMDc0LjYzNSwxNDA2LjE3OTMsMjA4Mi44NzU2LDE0MTQuOTAyNCwyMDkxLjg0LDEzOTguMTgiIHN0eWxlPSJzdHJva2U6IzY2OTlDQztzdHJva2Utd2lkdGg6MTsiLz48L2c+PCEtLXJldmVyc2UgbGluayBDdXN0b21lciB0byBDVFJlZ3VsYXItLT48ZyBjbGFzcz0ibGluayIgZGF0YS1lbnRpdHktMT0iQ3VzdG9tZXIiIGRhdGEtZW50aXR5LTI9IkNUUmVndWxhciIgZGF0YS1zb3VyY2UtbGluZT0iOTIiIGRhdGEtdWlkPSJsbmsxMiIgaWQ9ImxpbmtfQ3VzdG9tZXJfQ1RSZWd1bGFyIj48cGF0aCBjb2RlTGluZT0iOTIiIGQ9Ik0yNDY2LjM2NTgsMTQxMi4yNTA2IEMyNTAwLjY5NTgsMTQ1NS4yODA2IDI1MjMuNTksMTQ4My45NyAyNTUwLjU4LDE1MTcuOCIgZmlsbD0ibm9uZSIgaWQ9IkN1c3RvbWVyLWJhY2t0by1DVFJlZ3VsYXIiIHN0eWxlPSJzdHJva2U6IzY2OTlDQztzdHJva2Utd2lkdGg6MTsiLz48cG9seWdvbiBmaWxsPSJub25lIiBwb2ludHM9IjI0NTUuMTQsMTM5OC4xOCwyNDYxLjY3NTYsMTQxNS45OTI1LDI0NzEuMDU2LDE0MDguNTA4NywyNDU1LjE0LDEzOTguMTgiIHN0eWxlPSJzdHJva2U6IzY2OTlDQztzdHJva2Utd2lkdGg6MTsiLz48L2c+PCEtLXJldmVyc2UgbGluayBDdXN0b21lciB0byBDVFZJUC0tPjxnIGNsYXNzPSJsaW5rIiBkYXRhLWVudGl0eS0xPSJDdXN0b21lciIgZGF0YS1lbnRpdHktMj0iQ1RWSVAiIGRhdGEtc291cmNlLWxpbmU9IjkzIiBkYXRhLXVpZD0ibG5rMTMiIGlkPSJsaW5rX0N1c3RvbWVyX0NUVklQIj48cGF0aCBjb2RlTGluZT0iOTMiIGQ9Ik0yNjg1Ljk4MDIsMTM1MS4zNTE4IEMyODM5Ljg3MDIsMTQxMC41NDE4IDI5OTQuNDYsMTQ3MC4wMSAzMTE5LjA3LDE1MTcuOTQiIGZpbGw9Im5vbmUiIGlkPSJDdXN0b21lci1iYWNrdG8tQ1RWSVAiIHN0eWxlPSJzdHJva2U6IzY2OTlDQztzdHJva2Utd2lkdGg6MTsiLz48cG9seWdvbiBmaWxsPSJub25lIiBwb2ludHM9IjI2NjkuMTgsMTM0NC44OSwyNjgzLjgyNjIsMTM1Ni45NTE4LDI2ODguMTM0MSwxMzQ1Ljc1MTcsMjY2OS4xOCwxMzQ0Ljg5IiBzdHlsZT0ic3Ryb2tlOiM2Njk5Q0M7c3Ryb2tlLXdpZHRoOjE7Ii8+PC9nPjwhLS1yZXZlcnNlIGxpbmsgSVJld2FyZGFibGUgdG8gQ3VzdG9tZXItLT48ZyBjbGFzcz0ibGluayIgZGF0YS1lbnRpdHktMT0iSVJld2FyZGFibGUiIGRhdGEtZW50aXR5LTI9IkN1c3RvbWVyIiBkYXRhLXNvdXJjZS1saW5lPSI5NSIgZGF0YS11aWQ9ImxuazE0IiBpZD0ibGlua19JUmV3YXJkYWJsZV9DdXN0b21lciI+PHBhdGggY29kZUxpbmU9Ijk1IiBkPSJNMjU5NS4xNzE1LDc5NC41NzE2IEMyNTU2Ljk1MTUsODQ2Ljk2MTYgMjUwMi4yNSw5MjEuOTIgMjQ0MS42OSwxMDA0LjkzIiBmaWxsPSJub25lIiBpZD0iSVJld2FyZGFibGUtYmFja3RvLUN1c3RvbWVyIiBzdHlsZT0ic3Ryb2tlOiM2Njk5Q0M7c3Ryb2tlLXdpZHRoOjE7c3Ryb2tlLWRhc2hhcnJheTo3LjAsNy4wOyIvPjxwb2x5Z29uIGZpbGw9Im5vbmUiIHBvaW50cz0iMjYwNS43OCw3ODAuMDMsMjU5MC4zMjQzLDc5MS4wMzU1LDI2MDAuMDE4Nyw3OTguMTA3OCwyNjA1Ljc4LDc4MC4wMyIgc3R5bGU9InN0cm9rZTojNjY5OUNDO3N0cm9rZS13aWR0aDoxOyIvPjwvZz48IS0tcmV2ZXJzZSBsaW5rIElSZXdhcmRhYmxlIHRvIENURmlyc3RUaW1lLS0+PGcgY2xhc3M9ImxpbmsiIGRhdGEtZW50aXR5LTE9IklSZXdhcmRhYmxlIiBkYXRhLWVudGl0eS0yPSJDVEZpcnN0VGltZSIgZGF0YS1zb3VyY2UtbGluZT0iOTYiIGRhdGEtdWlkPSJsbmsxNSIgaWQ9ImxpbmtfSVJld2FyZGFibGVfQ1RGaXJzdFRpbWUiPjxwYXRoIGNvZGVMaW5lPSI5NiIgZD0iTTI1ODYuMzA5Miw3OTMuMzIzNiBDMjUzOS41NDkyLDg0Mi45NzM2IDI0NjkuOTMsOTA3LjEzIDIzODIsOTQ1IEMyMjg1LjI5LDk4Ni42NCAxOTgyLjg2LDkyNy4xMiAxOTEyLDEwMDUgQzE3ODMuMTIsMTE0Ni42NCAxODM0Ljg2LDEzOTcuNTEgMTg3MC4yNywxNTE3Ljg3IiBmaWxsPSJub25lIiBpZD0iSVJld2FyZGFibGUtYmFja3RvLUNURmlyc3RUaW1lIiBzdHlsZT0ic3Ryb2tlOiM2Njk5Q0M7c3Ryb2tlLXdpZHRoOjE7c3Ryb2tlLWRhc2hhcnJheTo3LjAsNy4wOyIvPjxwb2x5Z29uIGZpbGw9Im5vbmUiIHBvaW50cz0iMjU5OC42NSw3ODAuMjIsMjU4MS45NDEzLDc4OS4yMSwyNTkwLjY3Nyw3OTcuNDM3MiwyNTk4LjY1LDc4MC4yMiIgc3R5bGU9InN0cm9rZTojNjY5OUNDO3N0cm9rZS13aWR0aDoxOyIvPjwvZz48IS0tcmV2ZXJzZSBsaW5rIElSZXdhcmRhYmxlIHRvIENUUmVndWxhci0tPjxnIGNsYXNzPSJsaW5rIiBkYXRhLWVudGl0eS0xPSJJUmV3YXJkYWJsZSIgZGF0YS1lbnRpdHktMj0iQ1RSZWd1bGFyIiBkYXRhLXNvdXJjZS1saW5lPSI5NyIgZGF0YS11aWQ9ImxuazE2IiBpZD0ibGlua19JUmV3YXJkYWJsZV9DVFJlZ3VsYXIiPjxwYXRoIGNvZGVMaW5lPSI5NyIgZD0iTTI2NTUuMTE5OCw3OTcuNjIxMSBDMjY4MS40NTk4LDkwNi4wMzExIDI3MzQuNjQsMTE2OS42MiAyNjg3LDEzOTggQzI2NzguMzUsMTQzOS40OCAyNjYwLjAyLDE0ODMuMDIgMjY0Mi44OCwxNTE3Ljc0IiBmaWxsPSJub25lIiBpZD0iSVJld2FyZGFibGUtYmFja3RvLUNUUmVndWxhciIgc3R5bGU9InN0cm9rZTojNjY5OUNDO3N0cm9rZS13aWR0aDoxO3N0cm9rZS1kYXNoYXJyYXk6Ny4wLDcuMDsiLz48cG9seWdvbiBmaWxsPSJub25lIiBwb2ludHM9IjI2NTAuODcsNzgwLjEzLDI2NDkuMjg5NCw3OTkuMDM3NywyNjYwLjk1MDEsNzk2LjIwNDUsMjY1MC44Nyw3ODAuMTMiIHN0eWxlPSJzdHJva2U6IzY2OTlDQztzdHJva2Utd2lkdGg6MTsiLz48L2c+PCEtLXJldmVyc2UgbGluayBJUmV3YXJkYWJsZSB0byBDVFZJUC0tPjxnIGNsYXNzPSJsaW5rIiBkYXRhLWVudGl0eS0xPSJJUmV3YXJkYWJsZSIgZGF0YS1lbnRpdHktMj0iQ1RWSVAiIGRhdGEtc291cmNlLWxpbmU9Ijk4IiBkYXRhLXVpZD0ibG5rMTciIGlkPSJsaW5rX0lSZXdhcmRhYmxlX0NUVklQIj48cGF0aCBjb2RlTGluZT0iOTgiIGQ9Ik0yNjg1LjMxNiw3OTQuNTMwOSBDMjc5NC4xOTYsOTM1LjY0MDkgMzExNC4wOCwxMzUwLjIzIDMyNDMuNDEsMTUxNy44NCIgZmlsbD0ibm9uZSIgaWQ9IklSZXdhcmRhYmxlLWJhY2t0by1DVFZJUCIgc3R5bGU9InN0cm9rZTojNjY5OUNDO3N0cm9rZS13aWR0aDoxO3N0cm9rZS1kYXNoYXJyYXk6Ny4wLDcuMDsiLz48cG9seWdvbiBmaWxsPSJub25lIiBwb2ludHM9IjI2NzQuMzIsNzgwLjI4LDI2ODAuNTY1Nyw3OTguMTk2MiwyNjkwLjA2NjMsNzkwLjg2NTYsMjY3NC4zMiw3ODAuMjgiIHN0eWxlPSJzdHJva2U6IzY2OTlDQztzdHJva2Utd2lkdGg6MTsiLz48L2c+PCEtLXJldmVyc2UgbGluayBJU2VsbGFibGUgdG8gQmV2ZXJhZ2UtLT48ZyBjbGFzcz0ibGluayIgZGF0YS1lbnRpdHktMT0iSVNlbGxhYmxlIiBkYXRhLWVudGl0eS0yPSJCZXZlcmFnZSIgZGF0YS1zb3VyY2UtbGluZT0iMTQ5IiBkYXRhLXVpZD0ibG5rMjEiIGlkPSJsaW5rX0lTZWxsYWJsZV9CZXZlcmFnZSI+PHBhdGggY29kZUxpbmU9IjE0OSIgZD0iTTkyNi4xNTQ2LDEyNTMuOTg4NCBDODIwLjM5NDYsMTMwNi45Mzg0IDY1My4zOCwxMzkwLjU2IDUwMy45MSwxNDY1LjM5IiBmaWxsPSJub25lIiBpZD0iSVNlbGxhYmxlLWJhY2t0by1CZXZlcmFnZSIgc3R5bGU9InN0cm9rZTojNjY5OUNDO3N0cm9rZS13aWR0aDoxO3N0cm9rZS1kYXNoYXJyYXk6Ny4wLDcuMDsiLz48cG9seWdvbiBmaWxsPSJub25lIiBwb2ludHM9Ijk0Mi4yNSwxMjQ1LjkzLDkyMy40Njg1LDEyNDguNjIzMiw5MjguODQwNywxMjU5LjM1MzUsOTQyLjI1LDEyNDUuOTMiIHN0eWxlPSJzdHJva2U6IzY2OTlDQztzdHJva2Utd2lkdGg6MTsiLz48L2c+PCEtLXJldmVyc2UgbGluayBJU2VsbGFibGUgdG8gRGVzc2VydC0tPjxnIGNsYXNzPSJsaW5rIiBkYXRhLWVudGl0eS0xPSJJU2VsbGFibGUiIGRhdGEtZW50aXR5LTI9IkRlc3NlcnQiIGRhdGEtc291cmNlLWxpbmU9IjE1MCIgZGF0YS11aWQ9ImxuazIyIiBpZD0ibGlua19JU2VsbGFibGVfRGVzc2VydCI+PHBhdGggY29kZUxpbmU9IjE1MCIgZD0iTTk4My45MDgxLDEyNzAuODQ1MSBDOTQ5LjU1ODEsMTMyMi45MTUxIDkwNS44OCwxMzg5LjEzIDg2MC40NSwxNDU3Ljk4IiBmaWxsPSJub25lIiBpZD0iSVNlbGxhYmxlLWJhY2t0by1EZXNzZXJ0IiBzdHlsZT0ic3Ryb2tlOiM2Njk5Q0M7c3Ryb2tlLXdpZHRoOjE7c3Ryb2tlLWRhc2hhcnJheTo3LjAsNy4wOyIvPjxwb2x5Z29uIGZpbGw9Im5vbmUiIHBvaW50cz0iOTkzLjgyLDEyNTUuODIsOTc4Ljg5OTcsMTI2Ny41NDEyLDk4OC45MTY1LDEyNzQuMTQ5MSw5OTMuODIsMTI1NS44MiIgc3R5bGU9InN0cm9rZTojNjY5OUNDO3N0cm9rZS13aWR0aDoxOyIvPjwvZz48IS0tcmV2ZXJzZSBsaW5rIElTZWxsYWJsZSB0byBEaXNoLS0+PGcgY2xhc3M9ImxpbmsiIGRhdGEtZW50aXR5LTE9IklTZWxsYWJsZSIgZGF0YS1lbnRpdHktMj0iRGlzaCIgZGF0YS1zb3VyY2UtbGluZT0iMTUxIiBkYXRhLXVpZD0ibG5rMjMiIGlkPSJsaW5rX0lTZWxsYWJsZV9EaXNoIj48cGF0aCBjb2RlTGluZT0iMTUxIiBkPSJNMTA3NC4wOTA3LDEyNzAuODQ1OSBDMTExMi4yNDA3LDEzMjguNjg1OSAxMTY0LjIyLDE0MDcuNDYgMTIxMi4yOSwxNDgwLjMzIiBmaWxsPSJub25lIiBpZD0iSVNlbGxhYmxlLWJhY2t0by1EaXNoIiBzdHlsZT0ic3Ryb2tlOiM2Njk5Q0M7c3Ryb2tlLXdpZHRoOjE7c3Ryb2tlLWRhc2hhcnJheTo3LjAsNy4wOyIvPjxwb2x5Z29uIGZpbGw9Im5vbmUiIHBvaW50cz0iMTA2NC4xOCwxMjU1LjgyLDEwNjkuMDgyMSwxMjc0LjE0OTUsMTA3OS4wOTk0LDEyNjcuNTQyMywxMDY0LjE4LDEyNTUuODIiIHN0eWxlPSJzdHJva2U6IzY2OTlDQztzdHJva2Utd2lkdGg6MTsiLz48L2c+PCEtLWxpbmsgT3JkZXIgdG8gQ3VzdG9tZXItLT48ZyBjbGFzcz0ibGluayIgZGF0YS1lbnRpdHktMT0iT3JkZXIiIGRhdGEtZW50aXR5LTI9IkN1c3RvbWVyIiBkYXRhLXNvdXJjZS1saW5lPSIxODIiIGRhdGEtdWlkPSJsbmsyNSIgaWQ9ImxpbmtfT3JkZXJfQ3VzdG9tZXIiPjxwYXRoIGNvZGVMaW5lPSIxODIiIGQ9Ik0yMDc2LjQsOTQ1IEMyMDkzLjc0LDk2NC45IDIxMDcuMzI5NCw5ODAuNDk1NSAyMTI0LjUzOTQsMTAwMC4yNTU1IiBmaWxsPSJub25lIiBpZD0iT3JkZXItdG8tQ3VzdG9tZXIiIHN0eWxlPSJzdHJva2U6IzY2OTlDQztzdHJva2Utd2lkdGg6MTsiLz48cG9seWdvbiBmaWxsPSIjNjY5OUNDIiBwb2ludHM9IjIxMjguNDgsMTAwNC43OCwyMTI1LjU4NTQsOTk1LjM2NjEsMjEyNS4xOTYxLDEwMDEuMDA5NiwyMTE5LjU1MjcsMTAwMC42MjAzLDIxMjguNDgsMTAwNC43OCIgc3R5bGU9InN0cm9rZTojNjY5OUNDO3N0cm9rZS13aWR0aDoxOyIvPjx0ZXh0IGZpbGw9IiMwMDAwMDAiIGZvbnQtZmFtaWx5PSJzYW5zLXNlcmlmIiBmb250LXNpemU9IjEzIiBsZW5ndGhBZGp1c3Q9InNwYWNpbmciIHRleHRMZW5ndGg9IjYuNSIgeD0iMjA3Ni44OTIxIiB5PSI5NjUuMTQ2OSI+MTwvdGV4dD48dGV4dCBmaWxsPSIjMDAwMDAwIiBmb250LWZhbWlseT0ic2Fucy1zZXJpZiIgZm9udC1zaXplPSIxMyIgbGVuZ3RoQWRqdXN0PSJzcGFjaW5nIiB0ZXh0TGVuZ3RoPSI2LjUiIHg9IjIxMTUuMTcwMiIgeT0iOTk1LjUyMjYiPjE8L3RleHQ+PC9nPjwhLS1saW5rIE9yZGVyIHRvIElTZWxsYWJsZS0tPjxnIGNsYXNzPSJsaW5rIiBkYXRhLWVudGl0eS0xPSJPcmRlciIgZGF0YS1lbnRpdHktMj0iSVNlbGxhYmxlIiBkYXRhLXNvdXJjZS1saW5lPSIxODMiIGRhdGEtdWlkPSJsbmsyNiIgaWQ9ImxpbmtfT3JkZXJfSVNlbGxhYmxlIj48cGF0aCBjb2RlTGluZT0iMTgzIiBkPSJNMTUwMi43MSw5NDUgQzEzNTguMDQsMTAyMy4wMyAxMjEyLjM1MDgsMTEwMS42MTE3IDExMjAuODAwOCwxMTUwLjk5MTciIGZpbGw9Im5vbmUiIGlkPSJPcmRlci10by1JU2VsbGFibGUiIHN0eWxlPSJzdHJva2U6IzY2OTlDQztzdHJva2Utd2lkdGg6MTsiLz48cG9seWdvbiBmaWxsPSIjNjY5OUNDIiBwb2ludHM9IjExMTUuNTIsMTE1My44NCwxMTI1LjM0MDEsMTE1My4wODgsMTExOS45MjA3LDExNTEuNDY2NCwxMTIxLjU0MjMsMTE0Ni4wNDY5LDExMTUuNTIsMTE1My44NCIgc3R5bGU9InN0cm9rZTojNjY5OUNDO3N0cm9rZS13aWR0aDoxOyIvPjx0ZXh0IGZpbGw9IiMwMDAwMDAiIGZvbnQtZmFtaWx5PSJzYW5zLXNlcmlmIiBmb250LXNpemU9IjEzIiBsZW5ndGhBZGp1c3Q9InNwYWNpbmciIHRleHRMZW5ndGg9IjYuNSIgeD0iMTQ4Mi41ODUxIiB5PSI5NjUuMTQ2OSI+MTwvdGV4dD48dGV4dCBmaWxsPSIjMDAwMDAwIiBmb250LWZhbWlseT0ic2Fucy1zZXJpZiIgZm9udC1zaXplPSIxMyIgbGVuZ3RoQWRqdXN0PSJzcGFjaW5nIiB0ZXh0TGVuZ3RoPSI2LjUiIHg9IjExMjMuNTE1MSIgeT0iMTE0OC4zNDg5Ij4qPC90ZXh0PjwvZz48IS0tbGluayBQYXltZW50IHRvIE9yZGVyLS0+PGcgY2xhc3M9ImxpbmsiIGRhdGEtZW50aXR5LTE9IlBheW1lbnQiIGRhdGEtZW50aXR5LTI9Ik9yZGVyIiBkYXRhLXNvdXJjZS1saW5lPSIyMTMiIGRhdGEtdWlkPSJsbmsyOCIgaWQ9ImxpbmtfUGF5bWVudF9PcmRlciI+PHBhdGggY29kZUxpbmU9IjIxMyIgZD0iTTE4OTMsNDU0Ljc5IEMxODkzLDQ3Ni45NyAxODkzLDQ5My41OCAxODkzLDUxNS44NCIgZmlsbD0ibm9uZSIgaWQ9IlBheW1lbnQtdG8tT3JkZXIiIHN0eWxlPSJzdHJva2U6IzY2OTlDQztzdHJva2Utd2lkdGg6MTsiLz48cG9seWdvbiBmaWxsPSIjNjY5OUNDIiBwb2ludHM9IjE4OTMsNTIxLjg0LDE4OTcsNTEyLjg0LDE4OTMsNTE2Ljg0LDE4ODksNTEyLjg0LDE4OTMsNTIxLjg0IiBzdHlsZT0ic3Ryb2tlOiM2Njk5Q0M7c3Ryb2tlLXdpZHRoOjE7Ii8+PHRleHQgZmlsbD0iIzAwMDAwMCIgZm9udC1mYW1pbHk9InNhbnMtc2VyaWYiIGZvbnQtc2l6ZT0iMTMiIGxlbmd0aEFkanVzdD0ic3BhY2luZyIgdGV4dExlbmd0aD0iNi41IiB4PSIxODg2LjkwMTIiIHk9IjQ3NC42Nzc1Ij4xPC90ZXh0Pjx0ZXh0IGZpbGw9IiMwMDAwMDAiIGZvbnQtZmFtaWx5PSJzYW5zLXNlcmlmIiBmb250LXNpemU9IjEzIiBsZW5ndGhBZGp1c3Q9InNwYWNpbmciIHRleHRMZW5ndGg9IjYuNSIgeD0iMTg4Ni44OTI2IiB5PSI1MTIuNjMyNyI+MTwvdGV4dD48L2c+PCEtLWxpbmsgUmVzZXJ2YXRpb24gdG8gVGFibGUtLT48ZyBjbGFzcz0ibGluayIgZGF0YS1lbnRpdHktMT0iUmVzZXJ2YXRpb24iIGRhdGEtZW50aXR5LTI9IlRhYmxlIiBkYXRhLXNvdXJjZS1saW5lPSIyMzkiIGRhdGEtdWlkPSJsbmszMSIgaWQ9ImxpbmtfUmVzZXJ2YXRpb25fVGFibGUiPjxwYXRoIGNvZGVMaW5lPSIyMzkiIGQ9Ik01ODEsNDI0LjgxIEM1ODEsNTAxLjI3IDU4MSw1ODEuNTggNTgxLDY0My4yOCIgZmlsbD0ibm9uZSIgaWQ9IlJlc2VydmF0aW9uLXRvLVRhYmxlIiBzdHlsZT0ic3Ryb2tlOiM2Njk5Q0M7c3Ryb2tlLXdpZHRoOjE7Ii8+PHBvbHlnb24gZmlsbD0iIzY2OTlDQyIgcG9pbnRzPSI1ODEsNjQ5LjI4LDU4NSw2NDAuMjgsNTgxLDY0NC4yOCw1NzcsNjQwLjI4LDU4MSw2NDkuMjgiIHN0eWxlPSJzdHJva2U6IzY2OTlDQztzdHJva2Utd2lkdGg6MTsiLz48dGV4dCBmaWxsPSIjMDAwMDAwIiBmb250LWZhbWlseT0ic2Fucy1zZXJpZiIgZm9udC1zaXplPSIxMyIgbGVuZ3RoQWRqdXN0PSJzcGFjaW5nIiB0ZXh0TGVuZ3RoPSI2LjUiIHg9IjU3NC44ODQiIHk9IjQ0NC43NTI5Ij4xPC90ZXh0Pjx0ZXh0IGZpbGw9IiMwMDAwMDAiIGZvbnQtZmFtaWx5PSJzYW5zLXNlcmlmIiBmb250LXNpemU9IjEzIiBsZW5ndGhBZGp1c3Q9InNwYWNpbmciIHRleHRMZW5ndGg9IjYuNSIgeD0iNTc0LjczNzkiIHk9IjYzOS45NzE4Ij4xPC90ZXh0PjwvZz48IS0tbGluayBEQU9DUlVETWFuYWdlciB0byBEQU9DdXN0b21lci0tPjxnIGNsYXNzPSJsaW5rIiBkYXRhLWVudGl0eS0xPSJEQU9DUlVETWFuYWdlciIgZGF0YS1lbnRpdHktMj0iREFPQ3VzdG9tZXIiIGRhdGEtc291cmNlLWxpbmU9IjMxNCIgZGF0YS11aWQ9ImxuazM5IiBpZD0ibGlua19EQU9DUlVETWFuYWdlcl9EQU9DdXN0b21lciI+PHBhdGggY29kZUxpbmU9IjMxNCIgZD0iTTY2NzEuOCwzNjcuMzkgQzY1ODEuMzgsNDA4LjE1IDY0ODYuODUsNDU5LjY4IDY0MDksNTIyIEM2MzUzLjk5LDU2Ni4wMyA2MzE2LjgyODQsNjE3LjU4ODQgNjI4OC4zNDg0LDY2NC4xMDg0IiBmaWxsPSJub25lIiBpZD0iREFPQ1JVRE1hbmFnZXItdG8tREFPQ3VzdG9tZXIiIHN0eWxlPSJzdHJva2U6IzY2OTlDQztzdHJva2Utd2lkdGg6MTtzdHJva2UtZGFzaGFycmF5OjcuMCw3LjA7Ii8+PHBvbHlnb24gZmlsbD0ibm9uZSIgcG9pbnRzPSI2Mjc4Ljk1LDY3OS40Niw2MjkzLjQ2NTYsNjY3LjI0MTIsNjI4My4yMzEyLDY2MC45NzU2LDYyNzguOTUsNjc5LjQ2IiBzdHlsZT0ic3Ryb2tlOiM2Njk5Q0M7c3Ryb2tlLXdpZHRoOjE7Ii8+PC9nPjwhLS1saW5rIERBT0NSVURNYW5hZ2VyIHRvIERBT09yZGVycy0tPjxnIGNsYXNzPSJsaW5rIiBkYXRhLWVudGl0eS0xPSJEQU9DUlVETWFuYWdlciIgZGF0YS1lbnRpdHktMj0iREFPT3JkZXJzIiBkYXRhLXNvdXJjZS1saW5lPSIzMTUiIGRhdGEtdWlkPSJsbms0MCIgaWQ9ImxpbmtfREFPQ1JVRE1hbmFnZXJfREFPT3JkZXJzIj48cGF0aCBjb2RlTGluZT0iMzE1IiBkPSJNNjk0Mi4yLDQ2Mi4xMiBDNjkyMC4yOSw1NDEuOTUgNjkwMS45MjQyLDYwOC44NzE5IDY4ODcuNDI0Miw2NjEuNzAxOSIgZmlsbD0ibm9uZSIgaWQ9IkRBT0NSVURNYW5hZ2VyLXRvLURBT09yZGVycyIgc3R5bGU9InN0cm9rZTojNjY5OUNDO3N0cm9rZS13aWR0aDoxO3N0cm9rZS1kYXNoYXJyYXk6Ny4wLDcuMDsiLz48cG9seWdvbiBmaWxsPSJub25lIiBwb2ludHM9IjY4ODIuNjYsNjc5LjA2LDY4OTMuMjEwMiw2NjMuMjksNjg4MS42MzgyLDY2MC4xMTM5LDY4ODIuNjYsNjc5LjA2IiBzdHlsZT0ic3Ryb2tlOiM2Njk5Q0M7c3Ryb2tlLXdpZHRoOjE7Ii8+PC9nPjwhLS1saW5rIERBT0NSVURNYW5hZ2VyIHRvIERBT1BheW1lbnRzLS0+PGcgY2xhc3M9ImxpbmsiIGRhdGEtZW50aXR5LTE9IkRBT0NSVURNYW5hZ2VyIiBkYXRhLWVudGl0eS0yPSJEQU9QYXltZW50cyIgZGF0YS1zb3VyY2UtbGluZT0iMzE2IiBkYXRhLXVpZD0ibG5rNDEiIGlkPSJsaW5rX0RBT0NSVURNYW5hZ2VyX0RBT1BheW1lbnRzIj48cGF0aCBjb2RlTGluZT0iMzE2IiBkPSJNNzA1Ny44LDQ2Mi4xMiBDNzA4MC44Miw1NDUuOTkgNzEwMC40MTU0LDYxNy40MjIgNzExNC43MDU0LDY2OS40ODIiIGZpbGw9Im5vbmUiIGlkPSJEQU9DUlVETWFuYWdlci10by1EQU9QYXltZW50cyIgc3R5bGU9InN0cm9rZTojNjY5OUNDO3N0cm9rZS13aWR0aDoxO3N0cm9rZS1kYXNoYXJyYXk6Ny4wLDcuMDsiLz48cG9seWdvbiBmaWxsPSJub25lIiBwb2ludHM9IjcxMTkuNDcsNjg2Ljg0LDcxMjAuNDkxNCw2NjcuODkzOCw3MTA4LjkxOTQsNjcxLjA3MDIsNzExOS40Nyw2ODYuODQiIHN0eWxlPSJzdHJva2U6IzY2OTlDQztzdHJva2Utd2lkdGg6MTsiLz48L2c+PCEtLWxpbmsgREFPQ1JVRE1hbmFnZXIgdG8gREFPUmVzZXJ2YXRpb25zLS0+PGcgY2xhc3M9ImxpbmsiIGRhdGEtZW50aXR5LTE9IkRBT0NSVURNYW5hZ2VyIiBkYXRhLWVudGl0eS0yPSJEQU9SZXNlcnZhdGlvbnMiIGRhdGEtc291cmNlLWxpbmU9IjMxNyIgZGF0YS11aWQ9ImxuazQyIiBpZD0ibGlua19EQU9DUlVETWFuYWdlcl9EQU9SZXNlcnZhdGlvbnMiPjxwYXRoIGNvZGVMaW5lPSIzMTciIGQ9Ik02Nzk2LjUsNDYyLjEgQzY3NzguMTcsNDgyLjE0IDY3NjAuMSw1MDIuMzIgNjc0Myw1MjIgQzY2OTUuMTIsNTc3LjExIDY2NTQuMjgwMyw2MjkuMTkzNCA2NjIxLjI5MDMsNjcyLjQ4MzQiIGZpbGw9Im5vbmUiIGlkPSJEQU9DUlVETWFuYWdlci10by1EQU9SZXNlcnZhdGlvbnMiIHN0eWxlPSJzdHJva2U6IzY2OTlDQztzdHJva2Utd2lkdGg6MTtzdHJva2UtZGFzaGFycmF5OjcuMCw3LjA7Ii8+PHBvbHlnb24gZmlsbD0ibm9uZSIgcG9pbnRzPSI2NjEwLjM4LDY4Ni44LDY2MjYuMDYyNSw2NzYuMTIwMSw2NjE2LjUxODEsNjY4Ljg0NjYsNjYxMC4zOCw2ODYuOCIgc3R5bGU9InN0cm9rZTojNjY5OUNDO3N0cm9rZS13aWR0aDoxOyIvPjwvZz48IS0tbGluayBEQU9DUlVETWFuYWdlciB0byBEQU9UYWJsZS0tPjxnIGNsYXNzPSJsaW5rIiBkYXRhLWVudGl0eS0xPSJEQU9DUlVETWFuYWdlciIgZGF0YS1lbnRpdHktMj0iREFPVGFibGUiIGRhdGEtc291cmNlLWxpbmU9IjMxOCIgZGF0YS11aWQ9ImxuazQzIiBpZD0ibGlua19EQU9DUlVETWFuYWdlcl9EQU9UYWJsZSI+PHBhdGggY29kZUxpbmU9IjMxOCIgZD0iTTcyMTkuMjYsNDYyLjAxIEM3MjM3LjMsNDgxLjgxIDcyNTQuOCw1MDEuOTcgNzI3MSw1MjIgQzczMTYuNjksNTc4LjUgNzM1MS42NTg2LDYzNS4yNjA4IDczNzYuNjk4Niw2NzguNzUwOCIgZmlsbD0ibm9uZSIgaWQ9IkRBT0NSVURNYW5hZ2VyLXRvLURBT1RhYmxlIiBzdHlsZT0ic3Ryb2tlOiM2Njk5Q0M7c3Ryb2tlLXdpZHRoOjE7c3Ryb2tlLWRhc2hhcnJheTo3LjAsNy4wOyIvPjxwb2x5Z29uIGZpbGw9Im5vbmUiIHBvaW50cz0iNzM4NS42OCw2OTQuMzUsNzM4MS44OTgzLDY3NS43NTcsNzM3MS40OTg4LDY4MS43NDQ3LDczODUuNjgsNjk0LjM1IiBzdHlsZT0ic3Ryb2tlOiM2Njk5Q0M7c3Ryb2tlLXdpZHRoOjE7Ii8+PC9nPjwhLS1saW5rIEN1c3RvbWVyU2VydmxldCB0byBEQU9DdXN0b21lci0tPjxnIGNsYXNzPSJsaW5rIiBkYXRhLWVudGl0eS0xPSJDdXN0b21lclNlcnZsZXQiIGRhdGEtZW50aXR5LTI9IkRBT0N1c3RvbWVyIiBkYXRhLXNvdXJjZS1saW5lPSIzNjAiIGRhdGEtdWlkPSJsbms1MCIgaWQ9ImxpbmtfQ3VzdG9tZXJTZXJ2bGV0X0RBT0N1c3RvbWVyIj48cGF0aCBjb2RlTGluZT0iMzYwIiBkPSJNNDM3Ni40NSwzMTIuMTUgQzQ0MjIuMTgsMzYwLjgzIDQ0OTIuOTYsNDI2LjY5IDQ1NjksNDYyIEM0ODQzLjE0LDU4OS4zIDU3NDYuNDE2OSw2ODUuMzUyMSA2MTAwLjMyNjksNzE5LjAwMjEiIGZpbGw9Im5vbmUiIGlkPSJDdXN0b21lclNlcnZsZXQtdG8tREFPQ3VzdG9tZXIiIHN0eWxlPSJzdHJva2U6IzY2OTlDQztzdHJva2Utd2lkdGg6MTsiLz48cG9seWdvbiBmaWxsPSIjNjY5OUNDIiBwb2ludHM9IjYxMDYuMyw3MTkuNTcsNjA5Ny43MTksNzE0LjczNjEsNjEwMS4zMjI0LDcxOS4wOTY3LDYwOTYuOTYxOCw3MjIuNzAwMiw2MTA2LjMsNzE5LjU3IiBzdHlsZT0ic3Ryb2tlOiM2Njk5Q0M7c3Ryb2tlLXdpZHRoOjE7Ii8+PC9nPjwhLS1saW5rIE9yZGVyU2VydmxldCB0byBEQU9PcmRlcnMtLT48ZyBjbGFzcz0ibGluayIgZGF0YS1lbnRpdHktMT0iT3JkZXJTZXJ2bGV0IiBkYXRhLWVudGl0eS0yPSJEQU9PcmRlcnMiIGRhdGEtc291cmNlLWxpbmU9IjM2MSIgZGF0YS11aWQ9ImxuazUxIiBpZD0ibGlua19PcmRlclNlcnZsZXRfREFPT3JkZXJzIj48cGF0aCBjb2RlTGluZT0iMzYxIiBkPSJNNTQwNi4yLDMxOS41OSBDNTQ0OS4xMSwzNjguODYgNTUxNC4xNiw0MzEuODcgNTU4Nyw0NjIgQzU4MjQuNyw1NjAuMzMgNjUyMi44MiwzODkgNjc0Myw1MjIgQzY4MDAuNjYsNTU2LjgzIDY4MzIuODQ0LDYyMy41NjE3IDY4NTAuNTE0LDY3My42NTE3IiBmaWxsPSJub25lIiBpZD0iT3JkZXJTZXJ2bGV0LXRvLURBT09yZGVycyIgc3R5bGU9InN0cm9rZTojNjY5OUNDO3N0cm9rZS13aWR0aDoxOyIvPjxwb2x5Z29uIGZpbGw9IiM2Njk5Q0MiIHBvaW50cz0iNjg1Mi41MSw2NzkuMzEsNjg1My4yODgxLDY2OS40OTE5LDY4NTAuODQ2Niw2NzQuNTk0OCw2ODQ1Ljc0MzgsNjcyLjE1MzMsNjg1Mi41MSw2NzkuMzEiIHN0eWxlPSJzdHJva2U6IzY2OTlDQztzdHJva2Utd2lkdGg6MTsiLz48L2c+PCEtLWxpbmsgT3JkZXJTZXJ2bGV0IHRvIERBT0N1c3RvbWVyLS0+PGcgY2xhc3M9ImxpbmsiIGRhdGEtZW50aXR5LTE9Ik9yZGVyU2VydmxldCIgZGF0YS1lbnRpdHktMj0iREFPQ3VzdG9tZXIiIGRhdGEtc291cmNlLWxpbmU9IjM2MiIgZGF0YS11aWQ9ImxuazUyIiBpZD0ibGlua19PcmRlclNlcnZsZXRfREFPQ3VzdG9tZXIiPjxwYXRoIGNvZGVMaW5lPSIzNjIiIGQ9Ik01NDE2LjU3LDMxOS44OCBDNTQ2MS4wMywzNjQuNzMgNTUyMy41OCw0MjIuMjIgNTU4Nyw0NjIgQzU3NTMuNTcsNTY2LjQ5IDU5NjEuNzAwNSw2NDMuMzc1NiA2MTAwLjU3MDUsNjg4LjIzNTYiIGZpbGw9Im5vbmUiIGlkPSJPcmRlclNlcnZsZXQtdG8tREFPQ3VzdG9tZXIiIHN0eWxlPSJzdHJva2U6IzY2OTlDQztzdHJva2Utd2lkdGg6MTsiLz48cG9seWdvbiBmaWxsPSIjNjY5OUNDIiBwb2ludHM9IjYxMDYuMjgsNjkwLjA4LDYwOTguOTQ1Myw2ODMuNTA3MSw2MTAxLjUyMjEsNjg4LjU0Myw2MDk2LjQ4NjIsNjkxLjExOTgsNjEwNi4yOCw2OTAuMDgiIHN0eWxlPSJzdHJva2U6IzY2OTlDQztzdHJva2Utd2lkdGg6MTsiLz48L2c+PCEtLWxpbmsgUGF5bWVudFNlcnZsZXQgdG8gREFPUGF5bWVudHMtLT48ZyBjbGFzcz0ibGluayIgZGF0YS1lbnRpdHktMT0iUGF5bWVudFNlcnZsZXQiIGRhdGEtZW50aXR5LTI9IkRBT1BheW1lbnRzIiBkYXRhLXNvdXJjZS1saW5lPSIzNjMiIGRhdGEtdWlkPSJsbms1MyIgaWQ9ImxpbmtfUGF5bWVudFNlcnZsZXRfREFPUGF5bWVudHMiPjxwYXRoIGNvZGVMaW5lPSIzNjMiIGQ9Ik01ODgxLjQxLDMxMi4wNSBDNTkzMC40NywzNjIuMDggNjAwNy40MSw0MjkuOTEgNjA5MCw0NjIgQzYyNzcuNDUsNTM0Ljg1IDY4MTkuMTUsNDIwLjg5IDY5OTMsNTIyIEM3MDU2LjAzLDU1OC42NiA3MDkzLjYzLDYzMS4xMTM4IDcxMTMuNzgsNjgxLjE4MzgiIGZpbGw9Im5vbmUiIGlkPSJQYXltZW50U2VydmxldC10by1EQU9QYXltZW50cyIgc3R5bGU9InN0cm9rZTojNjY5OUNDO3N0cm9rZS13aWR0aDoxOyIvPjxwb2x5Z29uIGZpbGw9IiM2Njk5Q0MiIHBvaW50cz0iNzExNi4wMiw2ODYuNzUsNzExNi4zNzA3LDY3Ni45MDc0LDcxMTQuMTUzMyw2ODIuMTExNSw3MTA4Ljk0OTIsNjc5Ljg5NDEsNzExNi4wMiw2ODYuNzUiIHN0eWxlPSJzdHJva2U6IzY2OTlDQztzdHJva2Utd2lkdGg6MTsiLz48L2c+PCEtLWxpbmsgUmVzZXJ2YXRpb25TZXJ2bGV0IHRvIERBT1Jlc2VydmF0aW9ucy0tPjxnIGNsYXNzPSJsaW5rIiBkYXRhLWVudGl0eS0xPSJSZXNlcnZhdGlvblNlcnZsZXQiIGRhdGEtZW50aXR5LTI9IkRBT1Jlc2VydmF0aW9ucyIgZGF0YS1zb3VyY2UtbGluZT0iMzY0IiBkYXRhLXVpZD0ibG5rNTQiIGlkPSJsaW5rX1Jlc2VydmF0aW9uU2VydmxldF9EQU9SZXNlcnZhdGlvbnMiPjxwYXRoIGNvZGVMaW5lPSIzNjQiIGQ9Ik00ODkzLjU4LDMwNC42NyBDNDk0NC43NywzNTUuNSA1MDI5LjY4LDQyOS4xMyA1MTIwLDQ2MiBDNTM4OS40Niw1NjAuMDcgNjE1My43NywzOTEuMjggNjQwOSw1MjIgQzY0NzguMzQsNTU3LjUxIDY1MjUuNTA0LDYzMC45NTA4IDY1NTEuODQ0LDY4MS40MjA4IiBmaWxsPSJub25lIiBpZD0iUmVzZXJ2YXRpb25TZXJ2bGV0LXRvLURBT1Jlc2VydmF0aW9ucyIgc3R5bGU9InN0cm9rZTojNjY5OUNDO3N0cm9rZS13aWR0aDoxOyIvPjxwb2x5Z29uIGZpbGw9IiM2Njk5Q0MiIHBvaW50cz0iNjU1NC42Miw2ODYuNzQsNjU1NC4wMDIsNjc2LjkxMDUsNjU1Mi4zMDY2LDY4Mi4zMDc0LDY1NDYuOTA5OCw2ODAuNjExOSw2NTU0LjYyLDY4Ni43NCIgc3R5bGU9InN0cm9rZTojNjY5OUNDO3N0cm9rZS13aWR0aDoxOyIvPjwvZz48IS0tbGluayBSZXNlcnZhdGlvblNlcnZsZXQgdG8gREFPQ3VzdG9tZXItLT48ZyBjbGFzcz0ibGluayIgZGF0YS1lbnRpdHktMT0iUmVzZXJ2YXRpb25TZXJ2bGV0IiBkYXRhLWVudGl0eS0yPSJEQU9DdXN0b21lciIgZGF0YS1zb3VyY2UtbGluZT0iMzY1IiBkYXRhLXVpZD0ibG5rNTUiIGlkPSJsaW5rX1Jlc2VydmF0aW9uU2VydmxldF9EQU9DdXN0b21lciI+PHBhdGggY29kZUxpbmU9IjM2NSIgZD0iTTQ4OTguODIsMzA0LjU0IEM0OTUxLjQ0LDM1Mi41NSA1MDM1LjIyLDQyMS43NCA1MTIwLDQ2MiBDNTQ1Mi43Myw2MjAuMDEgNTg3OS43OTUzLDY4OS41MzM4IDYxMDAuMzY1Myw3MTYuODAzOCIgZmlsbD0ibm9uZSIgaWQ9IlJlc2VydmF0aW9uU2VydmxldC10by1EQU9DdXN0b21lciIgc3R5bGU9InN0cm9rZTojNjY5OUNDO3N0cm9rZS13aWR0aDoxOyIvPjxwb2x5Z29uIGZpbGw9IiM2Njk5Q0MiIHBvaW50cz0iNjEwNi4zMiw3MTcuNTQsNjA5Ny44Nzg4LDcxMi40NjU5LDYxMDEuMzU3OCw3MTYuOTI2NSw2MDk2Ljg5NzIsNzIwLjQwNTUsNjEwNi4zMiw3MTcuNTQiIHN0eWxlPSJzdHJva2U6IzY2OTlDQztzdHJva2Utd2lkdGg6MTsiLz48L2c+PCEtLWxpbmsgREFPQ1JVRE1hbmFnZXIgdG8gRGJVdGlsLS0+PGcgY2xhc3M9ImxpbmsiIGRhdGEtZW50aXR5LTE9IkRBT0NSVURNYW5hZ2VyIiBkYXRhLWVudGl0eS0yPSJEYlV0aWwiIGRhdGEtc291cmNlLWxpbmU9IjM3NiIgZGF0YS11aWQ9ImxuazU4IiBpZD0ibGlua19EQU9DUlVETWFuYWdlcl9EYlV0aWwiPjxwYXRoIGNvZGVMaW5lPSIzNzYiIGQ9Ik03MzI4LjMsMzg1LjEzIEM3NDAyLjM1LDQyMy4zNCA3NDc3LjcsNDY5LjE5IDc1NDEsNTIyIEM3NTk0LjY4LDU2Ni43OSA3NjM3LjUwOCw2MjguMTEyMyA3NjY1Ljc4OCw2NzQuMzIyMyIgZmlsbD0ibm9uZSIgaWQ9IkRBT0NSVURNYW5hZ2VyLXRvLURiVXRpbCIgc3R5bGU9InN0cm9rZTojNjY5OUNDO3N0cm9rZS13aWR0aDoxOyIvPjxwb2x5Z29uIGZpbGw9IiM2Njk5Q0MiIHBvaW50cz0iNzY2OC45Miw2NzkuNDQsNzY2Ny42MzM4LDY2OS42NzU1LDc2NjYuMzEsNjc1LjE3NTMsNzY2MC44MTAzLDY3My44NTE0LDc2NjguOTIsNjc5LjQ0IiBzdHlsZT0ic3Ryb2tlOiM2Njk5Q0M7c3Ryb2tlLXdpZHRoOjE7Ii8+PC9nPjwhLS1TUkM9W3ZMZlBSbml0NDd4TmhyWXUzdjVRc0syUThhMDRtdTBpc091ME52TmFsYkRRbmJiYWpMSU5iMEVyeU5fbHkxdm9rUndLajBPUTB6UGdQWlpwU0pXTnItNVZZY2ZEUWhCQTVjSnZ2UlBjY29lVmlQQkxzSy1fN2lrVjNkU0lvdjltZGx0VG9SQlpNRlJUd0R0ZlJzLTFTeWVnT01ZZHdmLUtQZExFUXFEel9feDNYejQ4Z0NFd1BiejN1ZHNkaW1SRHY5UGNVblNpZnNMc0poUXF0V0VSUng5OTlNWnpZSW1meG5Kc0NQakN3TFRJdnNISEtXTmliLW9RME5UQTFFdHMxamNPUk8yWndFRTJCbTVtWVpOUkJGWW9CalFZT0RMck5JbW43bzBYUXBEUWJpWk1CSE1KTjBnM1kyTFNhZkxRRm5EcktUclFnYkVSVXhEMDdXNk9NclBscUc4bS0yT3hnSk9odGc3bUV2amxyemhTd01Hd2N5RmR6RUppdmRtdVhRU185alRJTjhkRDExNFJWSlpOOXZWWm9VS1BGOHNrQmM3TG5TYk9GV3lsSG9WZHZfMmlCOG1zTkIwTGhKREl2SGRWQkRKUFdjbDlXZWtRQjhLdlIyU2M1VXpkSE91c2pmekxpRFUwODAzaUc0NU1OLWNBNTZLV2lGeENnZDE5b1JRYTU1anJSM3BtcC03WGlnUldlQUNaMXdFaDVtQUVsajZYQ0ZJcmJ3SHJIclVzdEpUYmpzLXFYcFB4Wm5jQkIzbk5fWTU0bEoyQ21mWDlIdkJLQXdkNm9PZnM4WktkV2F3UVE5QkZ5VXdaY0VHTW9YcWhTYWpIR0JJRWRnTGZhbjVINnVvODJsM1NFT3g3MEJIcnBJSHZ0aXdpd09oVHFKR1ZPamU0eEZvcWdCY081b2tSZkZZYUYxQ1ZMay05U2UtVnZDQ3c2Yjd4aWIzel9YTkVrY3ZBUnBTYmdMRUVDd243dDlRR1VnUko4V3NsdGNMR1dyRmswbDhaaGVlYWRrYWNqRmhMa2laclppRGwtX2l1N25lU1MtV0RrY25tN1RwWTN4eVQ3Qlh3Yy0wVzZtY2NEUERXQUtqbGlXbGVmVGI0SzZZLSAtZTJGd0hzanZKcFktdl9rek9kY251a19HaTlRLWdJamZMZER0THVoMW9vcmRndXF2ZXZKNlVlelBvSDlMTk1HZDg3TWZnSVlIZkFmV09QUkNneFFoTEVFVGwyT21qWEhZLV9sTndFdXdMeEItNXp1ai0yVmQtQlFYcHE5SVg5a2JERzdWUVctbGh5TlRfVUQ3LURMempqeVktYWNLMWZhc0JZaTVMVm9LY0Z5aDl1SlpYUG9zR0dIYmdQczNObUxhc0hyR0w5clBvM2xITUh4TmQxbncwbVZVSTR6dm1VN2YtWFpzRWFXRXNUQktpZjdMR0FaNHJDV3RQNzlKbUVseHlUeVl3LVZYRTVua2JENmVGZ1hVTy1oX1RKZDZhMTRUR0RyQnQySnVicXZKcWJrWXcteWY0Uk1kODZsQjNSOVFkZkRaeTQwb0stbjFZY2NFUHBzbU40R29YSjRLQ3ZXWkNQY1pwMjB2LVBhZ1J0aExBaHBuNkRvb0RPU0tCRTQxWVdlRDZ4MTEyY1pCN0J5VU84OUpoRVptNzBiVnFWeXBKZzdiUWFER1NSZl9EWHhrdlZqeG4tZkp0VWs0VWxkRk5fQmJiYnNKUk9oMmc2WHl5bnlDdmNzcmp6bVZYNDUzRzYzams0b0hkeHdaMWNPMzRRUUJnWnVwQzhoQmJvNkFteHRPSFhuOVk3N2g3YjJ1WGRLQWxLU3ZodWY2V2dCZ3Y4UWx2X1FDMnY3M0ozcnhUTVY5dkNHZVVwejg1by1DYmlUS0p1ZHV5TkJRb3M5Y294VVBmRURLemtTQkRSUWRqbklIV3MtUHdJZXc5RUIzdFNSbUtzNkVvM3dtei01ZEpEbW9UMHJNRnNFOU9xUnVqanB1OEp1bGdyTmdaamNMMktXd01vb3VCSko4R3p2RFFOR3MtdzhyNmpvMnI1Q1ZqTVVha2ZYYXQ2T0FRZjJaaHFTTWZ2RTRYWDREZ2k1aFF5LWRNcWVic3pfeDU4VVR4YVdSWDVJNVJpMUpqcFBuWXZXRlVPdUdJQUtVZGM4Z19UQzAwY1IwUVBkMHEwcGJPeW5ZREtmamppSW52RG44aENxYWNaNUQwSkljWm9OMFJQOElSQlh5WFhnZ2VpMmRaWnMzS21pN09EQ0Q0VlVXOFdMRDlpSjNkb1NBdEZSV19JM3BmQXZVX3FSSmRoYTNjeFJhWlY4NWVvTGI1SG5xQVlMTlNGcXlZdDNLUzY3TGFBSWlTdmVFRDdtUVYzSXhnUUFnVlZtdXp3alp1VE5faXF3QkYxbGs4NEpsRkFMb1p1TExNdzlucmpOWE0zeE9PY3FpaUVvajVHTDI2aHVpUEdaOHlaOTdNdEVKdFlaS1lnZDlITXEtVk90NEJubFI0NUxFVXVzODVqR01NZ1kwd0ktTVpHcEc4REJTdW5aZ2NRZ0tDOHU2bS1Lb1psb09GbmlxR0hkb2hBN2ZvRjREY0ZwMkloaXdBRWJHMlg3M1JsMXJ3dUE5R3A0OVdPS3lYdzdUMEFrUkVXdnRBeHNuZkQ0alVrbkVOUzBZN1lLMUViSnBPb3lFZUZLeHoyQWRacUxtd0h0OUFJS2NvaW5IRlpxUGRuMUFhWTU2aVQ4c243LXUxMXcxVHhfam1CSE94OTl1RjBPV2lFb210NF9OQlItY3ZnNWYwOWRzd2tFa2d1TFZpQXNXeFZ6M2tsempHWHhtVGU5X29wWXBtd3ZKTGpxeFJRMk9ROVFzalNodFoxd0V0ZW1IdC1fWWc2NVpiR1A1a05NbVM2dDh6bkhzWUxxT2hOcFJSWXFJLTBXUnZWSWRIcF9jTmQ0QWI2cGlXR1hybjZwdzgtVkN6MENQLWZnSFN4RWdFWC01NjlqRTVGd2ZubXEtYmIwdXNsMDRlTGtwZ3VQVi03UXlGblVmWUNDY1hWazhHcG1QLWowbkxZX0JkWER4aks1VVdWVnhnMTBFdE83MU5lQmlmUVNyY3BiNlhjazdDWnY5Z2JVYlZqanN6WlgwN1BJNEpRbE5LOFI1UUhOdk00eUVFcFdQUm16dE9EdFNUUDcyNTBNa3djZTJqNkRqX3pvcHU1T3BSUlRvN3ZTdS1OYkJzblBHT3FvUkRVbEthb3FEYWVuOHUyd01JOUFaNTNLcURlNWRKZFNyazE2SjFRNEt6X0twRkl4azE1NXdWX3g0aElfWWdndEktZnpiX2tjdG1VTlpERlZEbUtMdlJSaFVWWVk2T1o4R0EzWHQxNTltMnVzOVJYMy02amY5c2hMUWJTQVBVVi03bTAwXS0tPjwvZz48L3N2Zz4=;" vertex="1" parent="1">
            <mxGeometry x="-5800" y="-150" width="7840" height="1739" as="geometry" />
          </mxCell>
        </UserObject>
      </root>
    </mxGraphModel>
  </diagram>
</mxfile>
